<svg version="1.1" id="Layer_1" xmlns="http://www.w3.org/2000/svg" xmlns:xlink="http://www.w3.org/1999/xlink" x="0px" y="0px"
	 width="100%" viewBox="0 0 512 512" enable-background="new 0 0 512 512" xml:space="preserve">
<path fill="#000000" opacity="1.000000" stroke="none" 
	d="
M326.000000,513.000000 
	C217.359726,513.000000 109.219444,513.000000 1.039583,513.000000 
	C1.039583,342.401367 1.039583,171.802719 1.039583,1.102037 
	C171.556946,1.102037 342.113983,1.102037 512.835510,1.102037 
	C512.835510,171.666534 512.835510,342.333252 512.835510,513.000000 
	C450.802704,513.000000 388.651337,513.000000 326.000000,513.000000 
M196.949615,256.779633 
	C188.312897,253.748901 179.676178,250.718155 170.911850,247.642639 
	C170.911850,259.738434 171.084137,271.894348 170.817673,284.040619 
	C170.725403,288.246582 172.110596,291.398071 175.612091,293.128143 
	C182.128510,296.347809 188.635925,299.973694 195.572647,301.890045 
	C233.030457,312.238251 270.922302,312.309998 308.743866,304.398285 
	C318.656830,302.324646 328.091095,297.682678 337.490143,293.628784 
	C339.843262,292.613892 342.692963,289.364288 342.781647,287.044922 
	C343.287415,273.816284 343.027069,260.558380 343.027069,247.364182 
	C336.038666,250.023956 329.568542,253.122726 322.759216,254.973938 
	C281.292297,266.247314 239.579605,266.010071 196.949615,256.779633 
M254.502823,203.130890 
	C225.792145,202.667358 197.534821,199.812225 170.911789,186.750320 
	C170.911789,199.309952 171.149078,211.305481 170.796127,223.283630 
	C170.653061,228.138824 172.452423,231.526199 176.404648,233.465729 
	C182.785477,236.597092 189.218033,239.999664 196.020844,241.831924 
	C233.186478,251.842148 270.751404,251.999405 308.259003,244.229004 
	C318.031921,242.204361 327.392212,237.853668 336.650299,233.889877 
	C339.303497,232.753922 342.633270,229.308792 342.749573,226.788528 
	C343.358521,213.590790 343.034119,200.349991 343.034119,186.849426 
	C337.739380,189.078674 333.129486,191.333450 328.314575,192.993698 
	C304.721100,201.128998 280.245056,203.155304 254.502823,203.130890 
M343.054871,345.987335 
	C343.054871,333.141785 343.054871,320.296234 343.054871,308.350739 
	C285.261414,329.308044 228.249451,329.290314 170.911835,308.316986 
	C170.911835,319.756775 171.129379,331.898315 170.801865,344.025116 
	C170.675629,348.698975 172.371902,352.061584 176.230591,353.790039 
	C184.384552,357.442505 192.528687,361.586700 201.126587,363.695068 
	C233.923401,371.737396 267.106567,371.842377 300.334869,366.471741 
	C312.518097,364.502533 324.578583,361.682465 335.275574,355.241394 
	C338.410065,353.354004 340.484802,349.706604 343.054871,345.987335 
M339.868866,161.694443 
	C334.114258,158.798676 328.639038,154.959579 322.560059,153.159058 
	C280.710846,140.764114 238.529755,140.842026 196.423935,151.652466 
	C188.709076,153.633179 181.351181,157.644653 174.383453,161.677536 
	C169.454651,164.530289 169.522644,168.374252 174.272461,171.531387 
	C179.332336,174.894608 184.823685,178.073074 190.584229,179.843063 
	C230.493790,192.105850 270.946350,192.195450 311.392273,183.206787 
	C321.074615,181.055008 330.330597,176.329544 339.281281,171.797546 
	C344.286469,169.263275 344.005249,166.628784 339.868866,161.694443 
M40.501442,274.999481 
	C46.922070,274.999481 53.342693,274.999481 59.694832,274.999481 
	C59.694832,262.674622 59.694832,250.959366 59.694832,239.304016 
	C47.669437,239.304016 35.952484,239.304016 24.293983,239.304016 
	C24.293983,251.324570 24.293983,263.039093 24.293983,274.999481 
	C29.566259,274.999481 34.534733,274.999481 40.501442,274.999481 
M489.997040,265.463715 
	C489.997040,256.718628 489.997040,247.973511 489.997040,239.311844 
	C477.659149,239.311844 465.945251,239.311844 454.310974,239.311844 
	C454.310974,251.339691 454.310974,263.053864 454.310974,274.686066 
	C466.339081,274.686066 478.052887,274.686066 489.997040,274.686066 
	C489.997040,271.733765 489.997040,269.092896 489.997040,265.463715 
M78.958084,51.383492 
	C85.189697,59.814594 94.119759,62.308071 102.513596,57.960735 
	C110.385094,53.883930 114.129150,44.655132 111.295174,36.314892 
	C107.991623,26.592772 97.414185,21.525854 87.918747,25.116875 
	C77.741745,28.965651 73.746452,39.927803 78.958084,51.383492 
M85.850761,487.904297 
	C93.212471,491.435455 100.143951,490.692291 106.249405,485.300110 
	C111.900612,480.309113 113.471619,473.850586 111.389610,466.689026 
	C109.165306,459.038025 102.071976,453.972626 94.163933,454.003998 
	C86.504623,454.034424 79.480965,459.143341 77.155998,466.375366 
	C74.558449,474.455322 77.405342,481.950195 85.850761,487.904297 
M437.441345,44.847878 
	C438.598145,33.771748 431.396179,24.691803 420.928406,24.028978 
	C411.734863,23.446838 403.266968,30.125221 401.995880,38.960503 
	C400.563568,48.916397 406.683167,57.760757 416.364655,59.727020 
	C425.732208,61.629536 434.465912,55.738762 437.441345,44.847878 
M420.363220,489.982605 
	C434.541565,488.199036 442.021271,474.790253 435.337830,463.137848 
	C431.063690,455.686005 422.470337,452.298187 414.358826,454.867188 
	C405.817017,457.572388 400.873749,465.446899 401.959320,474.619446 
	C402.956177,483.042389 409.866547,489.097412 420.363220,489.982605 
z"/>
<path fill="#C8CED5" opacity="1.000000" stroke="none" 
	d="
M197.354156,256.862610 
	C239.579605,266.010071 281.292297,266.247314 322.759216,254.973938 
	C329.568542,253.122726 336.038666,250.023956 343.027069,247.364182 
	C343.027069,260.558380 343.287415,273.816284 342.781647,287.044922 
	C342.692963,289.364288 339.843262,292.613892 337.490143,293.628784 
	C328.091095,297.682678 318.656830,302.324646 308.743866,304.398285 
	C270.922302,312.309998 233.030457,312.238251 195.572647,301.890045 
	C188.635925,299.973694 182.128510,296.347809 175.612091,293.128143 
	C172.110596,291.398071 170.725403,288.246582 170.817673,284.040619 
	C171.084137,271.894348 170.911850,259.738434 170.911850,247.642639 
	C179.676178,250.718155 188.312897,253.748901 197.354156,256.862610 
M210.913483,275.616943 
	C205.592209,274.387421 200.298492,273.015656 194.940155,271.977356 
	C191.233185,271.259033 188.259552,272.760925 187.109558,276.457001 
	C185.935272,280.231232 186.994629,283.859222 190.942352,284.983307 
	C198.243164,287.062042 205.698105,288.710541 213.183121,289.984253 
	C216.899551,290.616699 219.532410,288.274811 220.170578,284.436249 
	C220.795135,280.679535 219.233688,277.954193 215.581619,276.656158 
	C214.347946,276.217621 213.007233,276.080231 210.913483,275.616943 
z"/>
<path fill="#E2E6E9" opacity="1.000000" stroke="none" 
	d="
M255.001984,203.152222 
	C280.245056,203.155304 304.721100,201.128998 328.314575,192.993698 
	C333.129486,191.333450 337.739380,189.078674 343.034119,186.849426 
	C343.034119,200.349991 343.358521,213.590790 342.749573,226.788528 
	C342.633270,229.308792 339.303497,232.753922 336.650299,233.889877 
	C327.392212,237.853668 318.031921,242.204361 308.259003,244.229004 
	C270.751404,251.999405 233.186478,251.842148 196.020844,241.831924 
	C189.218033,239.999664 182.785477,236.597092 176.404648,233.465729 
	C172.452423,231.526199 170.653061,228.138824 170.796127,223.283630 
	C171.149078,211.305481 170.911789,199.309952 170.911789,186.750320 
	C197.534821,199.812225 225.792145,202.667358 255.001984,203.152222 
M190.087997,224.483047 
	C197.315689,226.271820 204.503586,228.250702 211.786682,229.774689 
	C215.850998,230.625137 219.014221,228.889908 220.107819,224.610352 
	C221.147964,220.539963 218.941360,217.124664 214.581955,216.077805 
	C208.458588,214.607346 202.285477,213.345413 196.147751,211.932892 
	C192.544922,211.103760 189.367447,211.680481 187.572144,215.128387 
	C185.858215,218.420013 186.424561,221.567184 190.087997,224.483047 
z"/>
<path fill="#A8AFBA" opacity="1.000000" stroke="none" 
	d="
M343.050049,346.426605 
	C340.484802,349.706604 338.410065,353.354004 335.275574,355.241394 
	C324.578583,361.682465 312.518097,364.502533 300.334869,366.471741 
	C267.106567,371.842377 233.923401,371.737396 201.126587,363.695068 
	C192.528687,361.586700 184.384552,357.442505 176.230591,353.790039 
	C172.371902,352.061584 170.675629,348.698975 170.801865,344.025116 
	C171.129379,331.898315 170.911835,319.756775 170.911835,308.316986 
	C228.249451,329.290314 285.261414,329.308044 343.054871,308.350739 
	C343.054871,320.296234 343.054871,333.141785 343.050049,346.426605 
M191.256378,332.363800 
	C185.424744,336.180878 184.912766,343.112183 190.742142,345.049194 
	C198.071609,347.484619 205.786591,348.893982 213.429337,350.191925 
	C216.889359,350.779541 219.414474,348.485382 220.131989,344.895325 
	C220.834061,341.382538 219.632034,338.100494 216.236786,337.221893 
	C208.264725,335.159058 200.115829,333.779602 191.256378,332.363800 
z"/>
<path fill="#F2F4F6" opacity="1.000000" stroke="none" 
	d="
M340.148743,161.934387 
	C344.005249,166.628784 344.286469,169.263275 339.281281,171.797546 
	C330.330597,176.329544 321.074615,181.055008 311.392273,183.206787 
	C270.946350,192.195450 230.493790,192.105850 190.584229,179.843063 
	C184.823685,178.073074 179.332336,174.894608 174.272461,171.531387 
	C169.522644,168.374252 169.454651,164.530289 174.383453,161.677536 
	C181.351181,157.644653 188.709076,153.633179 196.423935,151.652466 
	C238.529755,140.842026 280.710846,140.764114 322.560059,153.159058 
	C328.639038,154.959579 334.114258,158.798676 340.148743,161.934387 
z"/>
<path fill="#FDCD56" opacity="1.000000" stroke="none" 
	d="
M40.002323,274.999481 
	C34.534733,274.999481 29.566259,274.999481 24.293983,274.999481 
	C24.293983,263.039093 24.293983,251.324570 24.293983,239.304016 
	C35.952484,239.304016 47.669437,239.304016 59.694832,239.304016 
	C59.694832,250.959366 59.694832,262.674622 59.694832,274.999481 
	C53.342693,274.999481 46.922070,274.999481 40.002323,274.999481 
z"/>
<path fill="#FDCD56" opacity="1.000000" stroke="none" 
	d="
M489.997040,265.957886 
	C489.997040,269.092896 489.997040,271.733765 489.997040,274.686066 
	C478.052887,274.686066 466.339081,274.686066 454.310974,274.686066 
	C454.310974,263.053864 454.310974,251.339691 454.310974,239.311844 
	C465.945251,239.311844 477.659149,239.311844 489.997040,239.311844 
	C489.997040,247.973511 489.997040,256.718628 489.997040,265.957886 
z"/>
<path fill="#F9CA55" opacity="1.000000" stroke="none" 
	d="
M78.768921,51.062180 
	C73.746452,39.927803 77.741745,28.965651 87.918747,25.116875 
	C97.414185,21.525854 107.991623,26.592772 111.295174,36.314892 
	C114.129150,44.655132 110.385094,53.883930 102.513596,57.960735 
	C94.119759,62.308071 85.189697,59.814594 78.768921,51.062180 
z"/>
<path fill="#F9CA55" opacity="1.000000" stroke="none" 
	d="
M85.520576,487.715729 
	C77.405342,481.950195 74.558449,474.455322 77.155998,466.375366 
	C79.480965,459.143341 86.504623,454.034424 94.163933,454.003998 
	C102.071976,453.972626 109.165306,459.038025 111.389610,466.689026 
	C113.471619,473.850586 111.900612,480.309113 106.249405,485.300110 
	C100.143951,490.692291 93.212471,491.435455 85.520576,487.715729 
z"/>
<path fill="#F9CA55" opacity="1.000000" stroke="none" 
	d="
M437.347870,45.242500 
	C434.465912,55.738762 425.732208,61.629536 416.364655,59.727020 
	C406.683167,57.760757 400.563568,48.916397 401.995880,38.960503 
	C403.266968,30.125221 411.734863,23.446838 420.928406,24.028978 
	C431.396179,24.691803 438.598145,33.771748 437.347870,45.242500 
z"/>
<path fill="#F9CA55" opacity="1.000000" stroke="none" 
	d="
M419.937622,489.991089 
	C409.866547,489.097412 402.956177,483.042389 401.959320,474.619446 
	C400.873749,465.446899 405.817017,457.572388 414.358826,454.867188 
	C422.470337,452.298187 431.063690,455.686005 435.337830,463.137848 
	C442.021271,474.790253 434.541565,488.199036 419.937622,489.991089 
z"/>
<path fill="#040404" opacity="1.000000" stroke="none" 
	d="
M211.314453,275.711060 
	C213.007233,276.080231 214.347946,276.217621 215.581619,276.656158 
	C219.233688,277.954193 220.795135,280.679535 220.170578,284.436249 
	C219.532410,288.274811 216.899551,290.616699 213.183121,289.984253 
	C205.698105,288.710541 198.243164,287.062042 190.942352,284.983307 
	C186.994629,283.859222 185.935272,280.231232 187.109558,276.457001 
	C188.259552,272.760925 191.233185,271.259033 194.940155,271.977356 
	C200.298492,273.015656 205.592209,274.387421 211.314453,275.711060 
z"/>
<path fill="#050505" opacity="1.000000" stroke="none" 
	d="
M189.761047,224.260712 
	C186.424561,221.567184 185.858215,218.420013 187.572144,215.128387 
	C189.367447,211.680481 192.544922,211.103760 196.147751,211.932892 
	C202.285477,213.345413 208.458588,214.607346 214.581955,216.077805 
	C218.941360,217.124664 221.147964,220.539963 220.107819,224.610352 
	C219.014221,228.889908 215.850998,230.625137 211.786682,229.774689 
	C204.503586,228.250702 197.315689,226.271820 189.761047,224.260712 
z"/>
<path fill="#030303" opacity="1.000000" stroke="none" 
	d="
M191.647430,332.243683 
	C200.115829,333.779602 208.264725,335.159058 216.236786,337.221893 
	C219.632034,338.100494 220.834061,341.382538 220.131989,344.895325 
	C219.414474,348.485382 216.889359,350.779541 213.429337,350.191925 
	C205.786591,348.893982 198.071609,347.484619 190.742142,345.049194 
	C184.912766,343.112183 185.424744,336.180878 191.647430,332.243683 
z"/>
</svg>