<?xml version="1.0" standalone="no"?>
<!DOCTYPE svg PUBLIC "-//W3C//DTD SVG 20010904//EN"
 "http://www.w3.org/TR/2001/REC-SVG-20010904/DTD/svg10.dtd">
<svg version="1.0" xmlns="http://www.w3.org/2000/svg"
 width="512.000000pt" height="512.000000pt" viewBox="0 0 512.000000 512.000000"
 preserveAspectRatio="xMidYMid meet">
<metadata>
Created by potrace 1.16, written by Peter Selinger 2001-2019
</metadata>
<g transform="translate(0.000000,512.000000) scale(0.100000,-0.100000)"
fill="#000000" stroke="none">
<path d="M813 5014 c-57 -21 -138 -96 -171 -158 -24 -45 -27 -62 -27 -146 0
-84 3 -101 27 -146 33 -63 115 -138 171 -157 l42 -14 5 -537 c5 -518 6 -538
24 -552 16 -11 80 -14 343 -14 l323 0 0 -330 0 -330 -410 0 -410 0 0 108 c0
93 -3 111 -18 125 -16 15 -52 17 -304 17 -277 0 -285 -1 -304 -21 -18 -20 -19
-40 -19 -299 0 -259 1 -279 19 -299 19 -20 27 -21 306 -21 265 0 288 1 303 18
14 15 17 40 17 125 l0 107 410 0 410 0 0 -330 0 -330 -323 0 c-263 0 -327 -3
-343 -14 -18 -14 -19 -34 -24 -552 l-5 -537 -42 -14 c-56 -19 -138 -94 -171
-157 -24 -45 -27 -62 -27 -146 0 -84 3 -101 27 -146 35 -67 115 -138 179 -159
79 -27 199 -17 267 20 181 98 223 342 87 503 -30 36 -120 92 -147 92 -17 0
-18 30 -18 480 l0 480 269 0 269 0 7 -42 c10 -60 26 -87 80 -137 85 -78 247
-139 491 -183 117 -21 158 -23 434 -23 269 0 320 3 430 22 239 42 411 106 497
186 52 48 68 76 78 135 l7 42 269 0 269 0 0 -479 0 -478 -27 -6 c-46 -10 -120
-63 -157 -114 -118 -162 -63 -392 117 -485 58 -30 186 -37 256 -13 64 21 144
92 179 159 24 45 27 62 27 146 0 84 -3 101 -27 146 -33 63 -115 138 -171 157
l-42 14 -5 537 c-5 518 -6 538 -24 552 -16 11 -80 14 -343 14 l-323 0 0 330 0
330 404 0 404 0 4 -104 c5 -157 -20 -146 328 -146 279 0 287 1 306 21 18 20
19 40 19 299 0 259 -1 279 -19 299 -19 20 -27 21 -306 21 -348 0 -323 11 -328
-146 l-4 -104 -404 0 -404 0 0 330 0 330 323 0 c263 0 327 3 343 14 18 14 19
34 24 552 l5 537 42 14 c56 19 138 94 171 157 24 45 27 62 27 146 0 84 -3 101
-27 146 -35 67 -115 138 -179 159 -79 27 -199 17 -267 -20 -91 -49 -156 -147
-169 -252 -7 -66 19 -165 60 -222 36 -50 115 -109 159 -118 l28 -5 0 -479 0
-479 -269 0 -269 0 -7 43 c-10 59 -26 86 -80 136 -85 78 -256 142 -495 184
-110 19 -161 22 -430 22 -276 0 -317 -2 -434 -23 -378 -68 -575 -187 -576
-344 0 -17 -20 -18 -270 -18 l-270 0 0 480 c0 450 1 480 18 480 27 0 117 56
147 92 82 97 104 239 54 348 -34 74 -76 120 -141 155 -46 25 -65 30 -143 32
-62 2 -103 -2 -132 -13z m184 -139 c48 -20 71 -41 94 -87 24 -48 24 -109 -1
-157 -65 -129 -241 -132 -311 -6 -81 144 67 313 218 250z m3289 -17 c35 -24
67 -74 78 -121 19 -81 -60 -189 -148 -202 -64 -10 -128 16 -170 68 -28 35 -31
46 -31 106 0 59 4 72 29 105 58 76 166 96 242 44z m-1356 -1193 c228 -35 445
-114 480 -177 13 -25 13 -29 -6 -55 -11 -15 -54 -45 -96 -66 -322 -162 -1092
-171 -1461 -17 -83 35 -147 83 -147 111 0 85 288 188 610 219 134 12 494 4
620 -15z m-1172 -429 c264 -133 851 -177 1286 -95 124 23 250 61 318 95 26 13
50 24 53 24 3 0 5 -94 5 -208 l0 -208 -28 -27 c-62 -60 -262 -127 -472 -159
-55 -8 -187 -13 -370 -13 -248 0 -301 3 -405 22 -197 36 -356 93 -417 151
l-28 26 0 208 c0 114 2 208 5 208 3 0 27 -11 53 -24z m-1168 -676 l0 -180
-180 0 -180 0 0 180 0 180 180 0 180 0 0 -180z m4300 0 l0 -180 -180 0 -180 0
0 180 0 180 180 0 180 0 0 -180z m-2918 0 c179 -45 344 -62 588 -62 325 0 587
42 780 125 l80 35 0 -208 0 -208 -42 -36 c-190 -163 -912 -224 -1358 -115
-126 31 -231 75 -278 115 l-42 36 0 208 0 208 80 -35 c44 -19 131 -47 192 -63z
m-56 -588 c433 -128 1131 -100 1447 59 l57 29 0 -209 0 -209 -37 -32 c-173
-152 -783 -223 -1243 -144 -189 32 -357 93 -412 149 l-28 28 0 208 0 208 58
-29 c32 -16 103 -42 158 -58z m-919 -1397 c48 -20 71 -41 94 -87 24 -48 24
-109 -1 -157 -65 -129 -241 -132 -311 -6 -81 144 67 313 218 250z m3289 -17
c35 -24 67 -74 78 -121 19 -81 -60 -189 -148 -202 -64 -10 -128 16 -170 68
-28 35 -31 46 -31 106 0 59 4 72 29 105 58 76 166 96 242 44z"/>
<path d="M1910 3012 c-49 -15 -68 -83 -32 -115 19 -17 131 -50 215 -62 66 -10
97 11 97 65 0 50 -18 63 -120 84 -41 9 -91 20 -110 24 -19 5 -42 7 -50 4z"/>
<path d="M1877 2392 c-17 -19 -22 -68 -9 -88 12 -19 48 -33 134 -54 133 -32
171 -25 191 33 9 26 -19 76 -46 82 -12 2 -62 14 -110 25 -109 25 -139 25 -160
2z"/>
<path d="M1875 1790 c-21 -24 -24 -72 -5 -94 14 -18 78 -39 186 -61 83 -17
114 -10 133 33 14 30 -1 76 -27 87 -28 11 -225 55 -248 55 -11 0 -29 -9 -39
-20z"/>
</g>
</svg>
