<?xml version="1.0" encoding="UTF-8" standalone="no"?>
<svg 
  version="1.1" 
  xmlns="http://www.w3.org/2000/svg" 
  xmlns:xlink="http://www.w3.org/1999/xlink" 
  xmlns:svg="http://www.w3.org/2000/svg"
  xmlns:rdf="http://www.w3.org/1999/02/22-rdf-syntax-ns#"
  xmlns:cc="http://creativecommons.org/ns#"
  xmlns:dc="http://purl.org/dc/elements/1.1/"
  viewBox="0 0 768 768"
  width="768"
  height="768"
>
<style>svg {background-color: white; }</style>"
<metadata id="metadata1">
Created by https://svgstud.io and licensed under CC-BY-SA 4.0 license. Please attribute https://svgstud.io
</metadata>
<metadata id="prompt">
abstract image of the stack data structure in computer science. The resulting image should not be too complex so that it can be used as an icon or logo.
</metadata>
<metadata id="version">
7
</metadata>
<metadata id="metadata2">
<rdf:RDF>
<cc:Work
    rdf:about="">
    <cc:license
    rdf:resource="http://creativecommons.org/licenses/by-sa/4.0/" />
    <dc:creator>
        <cc:Agent>
            <dc:title>https://svgstud.io</dc:title>
        </cc:Agent>
    </dc:creator>
</cc:Work>
<cc:License
    rdf:about="http://creativecommons.org/licenses/by-sa/4.0/">
    <cc:permits
    rdf:resource="http://creativecommons.org/ns#Reproduction" />
    <cc:permits
    rdf:resource="http://creativecommons.org/ns#Distribution" />
    <cc:requires
    rdf:resource="http://creativecommons.org/ns#Notice" />
    <cc:requires
    rdf:resource="http://creativecommons.org/ns#Attribution" />
    <cc:permits
    rdf:resource="http://creativecommons.org/ns#DerivativeWorks" />
    <cc:requires
    rdf:resource="http://creativecommons.org/ns#ShareAlike" />
</cc:License>
</rdf:RDF>
</metadata>
<metadata id="uid">
a90eceb2ac287dd03ae891455066eb712e0787228e2e460b2e8dd15a4fbe8be4
</metadata>
<path stroke="none" fill="black" fill-rule="evenodd" d="M387.28,767.86C359.35,767.78 331.32,767.33 325.00,766.85C318.68,766.38 304.50,765.09 293.50,764.00C282.50,762.91 262.48,760.20 249.00,757.99C235.53,755.78 215.28,752.19 204.00,750.01C192.72,747.83 178.55,744.67 172.50,742.98C166.45,741.30 154.53,737.64 146.00,734.85C137.47,732.06 125.86,728.02 120.19,725.87C114.52,723.72 106.19,720.12 101.69,717.86C97.18,715.61 89.74,711.32 85.13,708.33C80.53,705.34 74.28,700.55 71.24,697.70C68.21,694.84 65.11,691.05 64.36,689.28C63.61,687.51 63.00,683.44 63.00,680.23C63.00,674.40 63.00,674.40 56.80,669.45C53.39,666.73 49.78,663.09 48.78,661.37C47.65,659.43 46.72,655.16 46.33,650.12C45.97,645.52 46.09,642.01 46.60,642.01C47.10,642.02 49.75,644.30 52.50,647.09C55.25,649.87 60.06,653.71 63.20,655.61C66.33,657.52 72.77,660.89 77.50,663.11C82.24,665.33 92.05,669.10 99.30,671.48C106.56,673.86 122.62,678.31 135.00,681.37C148.49,684.71 167.71,688.53 183.00,690.91C197.03,693.10 218.18,696.03 230.00,697.43C241.82,698.82 259.82,700.63 270.00,701.46C280.18,702.28 298.18,703.43 310.00,704.02C321.82,704.60 353.32,705.35 380.00,705.68C411.83,706.07 436.58,705.88 452.00,705.10C464.93,704.45 484.27,703.24 495.00,702.42C505.73,701.59 523.05,700.03 533.49,698.96C543.94,697.88 552.56,697.00 552.65,697.00C552.73,697.00 553.29,698.40 553.89,700.11C554.77,702.65 555.39,703.12 557.24,702.69C558.48,702.39 562.20,701.87 565.50,701.52C568.80,701.18 572.56,700.67 573.85,700.40C575.96,699.96 576.15,699.50 575.70,695.71C575.42,693.39 575.04,690.63 574.85,689.57C574.54,687.83 575.48,687.51 584.13,686.40C589.43,685.72 597.75,684.43 602.63,683.53C607.51,682.63 620.56,679.68 631.63,676.97C642.70,674.26 657.47,670.05 664.45,667.61C671.58,665.13 680.66,661.07 685.18,658.35C689.63,655.66 695.63,650.91 698.61,647.69C704.00,641.89 704.00,641.89 703.98,648.19C703.96,652.15 703.27,656.02 702.11,658.57C701.03,660.94 697.27,665.32 693.13,669.02C686.00,675.41 686.00,675.41 686.00,683.01C686.00,689.63 685.64,691.18 683.17,695.06C681.62,697.51 677.06,702.52 673.04,706.19C668.25,710.56 661.74,715.03 654.13,719.16C647.74,722.62 635.51,728.26 626.93,731.68C618.35,735.10 605.30,739.73 597.92,741.95C590.54,744.18 574.68,748.28 562.69,751.05C550.69,753.82 534.49,757.16 526.69,758.47C518.88,759.79 505.07,761.78 496.00,762.91C486.93,764.04 470.18,765.64 458.78,766.48C443.72,767.58 424.18,767.96 387.28,767.86zM409.00,751.46C442.45,751.22 455.76,750.73 471.50,749.15C482.50,748.05 496.68,746.21 503.00,745.08C509.32,743.94 521.25,742.11 529.50,741.01C537.75,739.91 545.79,738.73 547.36,738.40C549.75,737.89 550.00,737.58 548.86,736.48C548.11,735.76 544.69,733.75 541.25,732.02C537.82,730.29 533.53,728.64 531.72,728.34C529.92,728.05 521.25,728.53 512.47,729.41C503.69,730.29 489.07,731.49 480.00,732.08C470.93,732.66 439.43,733.39 410.00,733.70C376.01,734.05 346.66,733.83 329.50,733.09C314.65,732.44 286.68,730.82 267.34,729.48C248.01,728.14 224.44,726.33 214.98,725.47C205.51,724.61 197.56,724.11 197.31,724.36C197.06,724.61 197.67,725.06 198.67,725.35C199.68,725.64 206.35,727.01 213.50,728.39C220.65,729.78 231.45,731.60 237.50,732.45C243.55,733.29 254.55,734.68 261.95,735.52C269.35,736.37 275.59,737.26 275.83,737.50C276.07,737.73 275.08,738.46 273.63,739.12C272.18,739.78 271.00,740.66 271.00,741.07C271.00,741.48 273.36,742.11 276.25,742.48C279.14,742.84 285.32,743.77 290.00,744.53C294.68,745.29 304.57,746.59 312.00,747.41C319.43,748.23 332.48,749.39 341.00,749.98C349.52,750.57 358.75,751.21 361.50,751.41C364.25,751.60 385.62,751.63 409.00,751.46zM573.12,724.93C575.66,724.97 583.09,724.07 589.62,722.94C596.15,721.81 606.04,719.81 611.59,718.50C617.15,717.19 627.15,714.29 633.82,712.06C640.50,709.83 649.76,706.25 654.41,704.10C659.05,701.95 664.89,698.79 667.39,697.08C670.68,694.81 672.20,692.95 672.95,690.23C673.52,688.18 673.99,685.71 673.99,684.75C674.00,683.79 673.37,683.00 672.60,683.00C671.83,683.00 667.22,684.83 662.35,687.07C657.48,689.31 649.02,692.70 643.55,694.61C638.08,696.51 628.41,699.37 622.05,700.97C615.70,702.56 601.27,705.88 590.00,708.35C578.73,710.81 566.01,713.57 561.75,714.48C557.49,715.39 554.00,716.58 554.00,717.12C554.00,717.66 555.39,718.59 557.08,719.18C558.78,719.77 562.04,721.29 564.33,722.55C566.88,723.96 570.29,724.88 573.12,724.93zM365.00,687.25C350.43,687.39 334.00,687.41 328.50,687.29C323.00,687.18 307.93,686.59 295.00,686.00C282.07,685.40 262.73,684.23 252.00,683.41C241.28,682.58 221.26,680.32 207.52,678.39C193.78,676.45 174.20,673.30 164.02,671.38C153.83,669.46 138.75,666.15 130.50,664.02C122.25,661.90 111.00,658.73 105.50,656.99C100.00,655.24 92.30,652.30 88.40,650.44C84.18,648.44 79.81,645.42 77.65,643.03C74.18,639.20 74.00,638.64 74.00,632.00C74.00,628.15 74.27,625.00 74.61,625.00C74.95,625.00 77.63,627.21 80.58,629.90C83.82,632.86 90.01,636.79 96.22,639.83C101.87,642.60 111.90,646.66 118.50,648.84C125.10,651.03 135.00,653.79 140.50,654.98C149.71,656.98 151.23,657.05 159.77,655.89C167.84,654.80 173.49,654.93 203.27,656.91C222.10,658.16 244.50,659.43 253.06,659.74C268.62,660.29 268.62,660.29 279.56,655.48C285.58,652.84 291.14,650.09 291.93,649.37C293.16,648.25 293.16,648.01 291.93,647.57C291.14,647.29 276.65,646.14 259.73,645.01C242.81,643.89 218.06,641.84 204.73,640.47C191.40,639.10 176.23,637.25 171.02,636.37C165.81,635.50 156.34,633.51 149.98,631.96C143.62,630.40 134.82,627.82 130.42,626.21C126.03,624.61 120.52,622.09 118.18,620.61C115.84,619.13 113.49,616.79 112.96,615.40C112.43,614.01 112.00,609.52 112.00,605.43C112.00,599.79 112.33,598.00 113.38,598.00C114.14,598.00 115.29,598.64 115.94,599.43C116.59,600.21 121.00,602.48 125.75,604.46C130.49,606.45 139.35,609.39 145.44,611.00C151.52,612.61 162.80,615.07 170.50,616.47C178.20,617.86 192.37,619.91 202.00,621.00C211.62,622.10 223.74,623.00 228.93,623.00C235.54,623.00 240.64,622.36 245.94,620.86C253.15,618.83 254.30,618.78 271.00,619.85C280.62,620.46 311.68,621.92 340.00,623.09C385.80,624.98 395.51,625.09 427.67,624.12C447.56,623.51 475.46,622.10 489.67,620.98C503.87,619.86 516.06,618.75 516.75,618.50C517.51,618.24 518.00,616.22 518.00,613.38C518.00,608.70 518.00,608.70 504.75,609.39C497.46,609.77 484.75,610.52 476.50,611.05C468.25,611.58 428.20,612.29 387.50,612.64C337.13,613.07 304.72,612.89 286.00,612.09C270.88,611.45 249.28,610.25 238.00,609.44C226.72,608.63 208.28,607.04 197.00,605.92C185.72,604.79 170.43,602.76 163.00,601.41C155.57,600.06 144.40,597.53 138.16,595.79C131.93,594.05 124.05,591.21 120.66,589.48C117.27,587.75 113.94,585.25 113.26,583.92C112.51,582.45 112.02,577.26 112.01,570.68C112.00,559.85 112.00,559.85 117.25,562.84C120.14,564.48 127.01,567.39 132.51,569.30C138.02,571.21 147.08,573.70 152.64,574.83C158.21,575.97 169.45,577.80 177.63,578.91C185.81,580.02 197.00,581.39 202.50,581.95C208.00,582.52 221.05,583.66 231.50,584.48C241.95,585.30 266.48,586.66 286.00,587.49C305.52,588.33 342.43,589.29 368.00,589.64C397.06,590.03 425.75,589.84 444.50,589.11C461.00,588.48 482.38,587.48 492.00,586.89C501.62,586.30 510.85,585.50 512.50,585.10C515.46,584.39 515.50,584.28 515.80,577.04C515.96,573.00 515.70,569.30 515.21,568.81C514.71,568.31 507.36,568.36 497.92,568.94C488.89,569.49 460.35,570.48 434.50,571.15C398.25,572.08 373.43,572.09 326.00,571.19C292.18,570.55 255.28,569.36 244.00,568.54C232.72,567.73 216.53,566.34 208.00,565.46C199.47,564.58 188.00,563.20 182.50,562.40C177.00,561.59 166.99,559.82 160.26,558.46C153.53,557.11 146.28,555.30 144.15,554.44C141.94,553.56 139.78,551.82 139.14,550.40C138.51,549.03 138.00,547.26 138.00,546.48C138.00,545.60 135.78,544.42 132.25,543.40C129.09,542.49 123.93,540.45 120.79,538.88C117.65,537.30 114.50,534.99 113.80,533.75C112.95,532.26 112.58,528.01 112.69,521.15C112.79,515.46 113.13,510.54 113.44,510.23C113.76,509.91 117.27,511.28 121.26,513.27C125.24,515.26 134.57,518.47 142.00,520.41C149.43,522.34 160.75,524.82 167.17,525.93C173.59,527.03 189.34,529.05 202.17,530.43C215.00,531.81 235.62,533.84 248.00,534.94C260.38,536.04 276.57,537.40 284.00,537.97C291.43,538.54 308.07,539.65 321.00,540.45C333.93,541.24 355.16,542.43 368.20,543.08C384.53,543.90 408.78,544.06 446.20,543.58C476.06,543.19 504.55,542.57 509.50,542.19C518.50,541.50 518.50,541.50 518.75,531.00C518.89,525.23 518.67,520.00 518.25,519.39C517.71,518.60 508.97,518.51 487.00,519.08C470.23,519.52 424.10,519.89 384.50,519.92C344.90,519.94 300.12,519.54 285.00,519.02C269.88,518.50 248.28,517.37 237.00,516.52C225.72,515.66 209.07,514.04 200.00,512.91C190.93,511.79 179.51,510.01 174.63,508.95C169.75,507.90 163.42,505.96 160.56,504.65C156.78,502.93 155.00,501.42 154.06,499.15C153.29,497.30 153.04,494.62 153.42,492.55C153.78,490.64 154.47,488.83 154.95,488.53C155.43,488.24 157.88,488.88 160.40,489.96C162.91,491.04 168.47,492.58 172.74,493.38C177.01,494.19 185.90,495.32 192.50,495.90C199.10,496.48 212.71,497.17 222.75,497.44C241.00,497.92 241.00,497.92 241.00,493.59C241.00,489.36 240.91,489.25 237.25,488.64C235.19,488.30 231.93,488.02 230.00,488.01C228.07,488.00 219.53,486.90 211.00,485.56C202.47,484.23 191.78,481.96 187.24,480.52C181.35,478.66 178.53,477.21 177.38,475.46C176.18,473.62 175.87,471.27 176.17,466.06C176.38,462.23 176.88,458.79 177.27,458.40C177.66,458.01 179.67,458.42 181.74,459.31C183.81,460.21 188.20,461.61 191.50,462.43C194.80,463.25 201.78,464.60 207.00,465.42C212.22,466.25 222.12,467.39 229.00,467.95C235.88,468.52 252.97,469.63 267.00,470.44C281.02,471.24 309.05,472.43 329.29,473.09C352.09,473.82 386.87,474.06 420.79,473.71C450.88,473.40 483.38,472.65 493.00,472.04C502.62,471.44 511.51,470.72 512.75,470.45C514.87,469.99 515.00,469.46 515.00,461.53C515.00,453.09 515.00,453.09 422.25,453.55C371.24,453.80 316.29,454.21 300.14,454.46C283.99,454.70 254.06,454.48 233.64,453.95C213.21,453.43 189.75,452.53 181.50,451.96C173.25,451.39 162.51,449.99 157.64,448.85C152.60,447.67 147.97,445.97 146.89,444.89C145.35,443.35 145.00,441.51 145.00,434.97C145.00,429.07 145.37,426.80 146.38,426.41C147.13,426.12 150.50,426.59 153.85,427.46C157.21,428.33 164.72,429.71 170.55,430.53C176.38,431.35 192.71,432.90 206.83,433.97C220.95,435.04 243.53,436.39 257.00,436.96C270.48,437.53 283.98,438.23 287.00,438.51C290.02,438.79 323.77,439.47 362.00,440.02C409.21,440.69 441.93,440.68 464.00,439.98C481.88,439.41 497.98,438.71 499.79,438.42C503.08,437.89 503.08,437.89 502.79,430.20C502.50,422.50 502.50,422.50 400.50,422.82C340.40,423.02 284.74,422.70 265.00,422.06C246.57,421.46 224.30,420.51 215.50,419.95C206.70,419.40 189.77,418.05 177.89,416.96C166.00,415.87 153.96,414.29 151.14,413.45C146.00,411.92 146.00,411.92 146.00,401.85C146.00,392.67 146.15,391.85 147.75,392.46C148.71,392.83 151.56,393.53 154.09,394.01C156.61,394.49 168.31,395.58 180.09,396.42C191.86,397.26 217.25,398.50 236.50,399.17C257.74,399.91 317.21,400.41 387.75,400.45C504.00,400.50 504.00,400.50 504.00,414.61C504.00,422.37 504.29,430.83 504.64,433.40C505.28,438.08 505.28,438.08 511.89,437.79C518.50,437.50 518.50,437.50 518.77,409.88C519.03,382.26 519.03,382.26 476.77,381.62C453.52,381.27 381.85,381.06 317.50,381.14C253.15,381.23 199.49,380.98 198.25,380.58C196.09,379.89 196.00,379.42 196.00,368.28C196.00,356.70 196.00,356.70 280.75,357.60C327.36,358.09 399.70,358.50 441.50,358.50C517.50,358.50 517.50,358.50 517.79,350.87C518.04,344.31 517.83,343.14 516.29,342.53C515.31,342.14 439.23,341.49 347.23,341.09C228.68,340.58 179.65,340.05 178.88,339.28C178.20,338.60 177.92,334.96 178.14,329.68C178.34,325.00 178.77,320.89 179.10,320.56C179.44,320.23 183.19,319.29 187.44,318.48C191.70,317.67 203.35,316.34 213.34,315.54C223.33,314.73 249.15,313.76 270.71,313.38C309.92,312.69 309.92,312.69 310.21,322.59C310.50,332.50 310.50,332.50 322.50,332.50C334.50,332.50 334.50,332.50 334.79,322.72C335.07,312.95 335.07,312.95 359.29,313.47C383.50,313.98 383.50,313.98 383.79,323.40C384.00,330.39 384.47,333.14 385.61,334.09C386.76,335.04 394.89,335.48 417.55,335.81C440.53,336.15 448.70,335.95 450.99,335.00C452.66,334.31 456.20,331.22 458.86,328.12C461.53,325.03 464.24,321.48 464.90,320.23C465.56,318.98 465.82,317.52 465.49,316.98C465.15,316.44 460.66,316.00 455.50,316.00C450.34,316.00 445.86,315.59 445.55,315.08C445.23,314.56 450.17,314.01 457.24,313.81C463.98,313.61 470.07,313.62 470.77,313.84C471.75,314.14 471.90,316.60 471.43,324.37C470.95,332.10 471.13,334.90 472.15,336.21C473.07,337.37 475.19,337.99 478.77,338.14C481.78,338.26 484.55,337.85 485.22,337.18C485.87,336.53 489.18,336.00 492.63,336.00C496.69,336.00 499.35,335.50 500.28,334.57C501.36,333.49 501.60,331.24 501.25,325.32C500.93,319.79 500.33,317.13 499.20,316.25C498.33,315.56 495.34,314.95 492.56,314.88C487.50,314.76 487.50,314.76 493.50,313.81C496.86,313.28 509.19,313.12 521.50,313.45C533.60,313.77 550.48,314.52 559.00,315.12C567.52,315.72 577.65,316.72 581.50,317.35C588.50,318.50 588.50,318.50 588.79,328.90C589.07,339.30 589.07,339.30 580.65,338.65C576.02,338.30 564.50,337.54 555.06,336.98C545.62,336.41 537.47,336.21 536.95,336.53C536.40,336.87 536.01,346.18 536.02,358.81C536.02,370.74 536.43,381.14 536.93,381.91C537.68,383.11 542.96,383.22 570.91,382.65C604.00,381.98 604.00,381.98 604.00,388.88C604.00,394.51 603.68,395.92 602.25,396.52C601.29,396.93 587.00,397.44 570.50,397.68C554.00,397.91 539.49,398.31 538.25,398.57C536.10,399.02 536.00,399.47 536.00,409.05C536.00,417.57 536.25,419.16 537.71,419.72C538.65,420.08 549.56,419.80 561.96,419.10C574.36,418.40 588.68,417.29 593.79,416.63C598.91,415.96 603.29,415.63 603.54,415.88C603.79,416.13 604.00,419.60 604.00,423.59C604.00,430.84 604.00,430.84 600.75,431.87C598.96,432.44 593.90,433.39 589.50,433.98C585.10,434.57 572.05,435.51 560.50,436.07C548.95,436.63 538.94,437.28 538.25,437.51C537.37,437.81 537.00,440.64 537.00,447.00C537.00,454.39 537.30,456.18 538.60,456.68C539.48,457.02 549.05,456.51 559.85,455.55C570.66,454.59 584.85,452.94 591.38,451.88C597.92,450.82 606.47,448.88 610.38,447.57C615.56,445.84 617.70,445.50 618.23,446.34C618.64,446.98 618.98,450.52 618.98,454.21C619.00,459.87 618.65,461.25 616.78,462.99C615.56,464.12 611.85,465.89 608.53,466.91C605.21,467.94 598.21,469.51 592.96,470.40C587.71,471.29 576.69,472.46 568.46,472.99C560.23,473.52 551.36,473.97 548.75,473.98C544.00,474.00 544.00,474.00 544.00,487.50C544.00,497.95 544.30,501.00 545.31,501.00C546.03,501.00 553.81,500.11 562.61,499.02C571.41,497.93 583.08,496.12 588.55,494.99C594.02,493.86 600.80,492.22 603.62,491.33C606.43,490.44 609.81,489.99 611.12,490.32C612.43,490.66 615.19,492.33 617.25,494.04C619.93,496.26 621.00,497.93 621.00,499.92C621.00,501.44 620.20,503.42 619.22,504.30C618.23,505.19 614.97,507.00 611.97,508.33C608.96,509.65 602.45,511.67 597.50,512.81C592.55,513.96 583.77,515.57 578.00,516.39C572.23,517.22 563.90,518.18 559.50,518.53C555.10,518.88 548.35,519.31 544.50,519.48C540.65,519.65 537.16,519.83 536.75,519.89C536.34,519.95 536.01,524.16 536.02,529.25C536.02,534.34 536.40,539.08 536.85,539.78C537.49,540.81 539.90,540.86 548.65,540.03C554.69,539.46 563.21,538.55 567.57,538.00C571.93,537.45 581.80,535.85 589.50,534.44C597.20,533.04 608.90,530.60 615.50,529.02C622.10,527.45 629.71,525.21 632.41,524.04C635.11,522.88 639.45,520.37 642.05,518.46C645.99,515.57 646.88,515.26 647.39,516.58C647.73,517.45 648.00,521.26 648.00,525.03C648.00,528.81 647.52,532.96 646.94,534.24C646.35,535.53 643.76,538.00 641.19,539.74C638.61,541.49 633.12,544.49 629.00,546.43C624.88,548.36 617.23,551.08 612.00,552.48C606.77,553.87 595.30,556.36 586.50,558.01C577.70,559.66 564.42,562.36 557.00,564.00C543.50,566.99 543.50,566.99 566.66,566.45C580.51,566.13 590.06,566.29 590.40,566.84C590.72,567.35 590.42,568.19 589.74,568.71C589.06,569.22 585.74,570.85 582.37,572.32C578.37,574.07 571.61,575.69 562.87,576.99C555.52,578.08 546.49,579.24 542.80,579.56C536.10,580.15 536.10,580.15 535.80,594.82C535.64,602.90 535.67,610.31 535.88,611.31C536.21,612.88 536.98,613.03 541.88,612.49C544.97,612.14 554.70,610.98 563.50,609.90C572.30,608.81 580.51,607.50 581.75,606.99C583.93,606.07 584.00,605.62 584.00,592.02C584.00,578.00 584.00,578.00 589.83,578.00C593.03,578.00 600.79,577.09 607.08,575.97C613.36,574.86 622.23,572.78 626.78,571.35C631.33,569.92 637.86,567.05 641.28,564.97C644.70,562.90 647.59,561.29 647.71,561.39C647.82,561.49 647.99,565.29 648.09,569.83C648.24,577.12 648.01,578.37 646.05,580.45C644.82,581.75 641.28,584.15 638.16,585.79C635.05,587.42 628.67,590.13 624.00,591.81C619.33,593.48 612.26,595.80 608.29,596.96C604.32,598.11 600.83,599.46 600.53,599.96C600.22,600.45 600.88,601.14 601.99,601.50C603.10,601.85 606.60,601.63 609.76,601.00C612.92,600.37 621.43,598.09 628.68,595.93C635.93,593.77 642.35,592.00 642.93,592.00C643.52,592.00 644.00,592.96 644.00,594.13C644.00,595.30 642.43,597.75 640.51,599.56C638.59,601.37 634.47,603.80 631.36,604.97C628.24,606.13 621.38,608.21 616.10,609.58C610.82,610.95 597.50,613.61 586.50,615.49C575.50,617.37 561.33,619.60 555.00,620.44C548.67,621.28 534.50,622.64 523.50,623.45C512.50,624.27 495.62,625.44 486.00,626.04C476.38,626.64 433.37,627.47 390.43,627.89C347.50,628.31 311.83,628.98 311.18,629.39C310.48,629.82 310.01,632.61 310.02,636.31C310.02,639.71 310.44,643.14 310.93,643.93C311.69,645.12 320.09,645.43 362.67,645.81C393.71,646.08 424.01,645.80 440.50,645.07C455.35,644.42 478.75,643.02 492.50,641.95C506.25,640.89 518.51,640.02 519.75,640.01C521.94,640.00 522.00,640.27 522.00,650.53C522.00,658.96 522.30,661.18 523.50,661.64C524.32,661.95 530.01,661.72 536.15,661.12C542.29,660.51 547.49,659.84 547.71,659.62C547.93,659.40 548.20,656.06 548.31,652.19C548.41,648.33 548.81,644.86 549.19,644.48C549.57,644.10 554.97,643.19 561.19,642.46C567.41,641.74 577.23,640.41 583.00,639.52C588.77,638.63 598.23,636.98 604.00,635.85C609.77,634.72 621.24,632.01 629.47,629.83C637.71,627.64 647.90,624.52 652.12,622.89C656.34,621.27 662.65,618.10 666.14,615.86C669.64,613.62 673.48,610.89 674.68,609.79C675.87,608.69 677.34,608.09 677.93,608.45C678.52,608.82 679.00,610.59 679.00,612.40C679.00,614.20 679.90,619.20 681.00,623.50C682.10,627.80 683.00,632.38 683.00,633.69C683.00,635.14 681.36,637.68 678.75,640.28C676.41,642.61 671.35,646.15 667.50,648.16C663.65,650.16 656.45,653.15 651.50,654.79C646.55,656.44 639.00,658.35 634.72,659.03C630.45,659.72 626.72,660.05 626.44,659.77C626.15,659.49 629.43,657.83 633.71,656.09C638.00,654.34 642.37,652.26 643.44,651.46C644.51,650.66 644.89,650.00 644.28,650.00C643.68,650.00 635.38,652.01 625.84,654.47C616.30,656.93 605.35,659.60 601.50,660.40C597.65,661.20 586.17,663.04 576.00,664.47C565.83,665.91 555.14,667.59 552.25,668.20C549.36,668.82 547.00,669.59 547.00,669.92C547.00,670.25 550.25,672.09 554.23,674.01C558.20,675.93 561.59,678.00 561.76,678.62C561.95,679.27 560.10,679.98 557.29,680.34C554.65,680.67 546.88,681.40 540.00,681.96C533.12,682.53 516.48,683.68 503.00,684.54C489.52,685.39 458.93,686.29 435.00,686.55C411.07,686.80 379.57,687.12 365.00,687.25zM406.00,681.48C430.71,681.31 451.31,680.64 463.50,679.60C473.95,678.71 490.82,677.07 501.00,675.96C511.18,674.85 520.40,673.65 521.50,673.29C523.15,672.75 522.89,672.50 520.00,671.82C518.08,671.37 514.30,670.55 511.62,670.00C508.07,669.28 497.61,669.54 473.62,670.95C455.40,672.03 431.50,673.36 420.50,673.92C409.50,674.48 388.12,675.19 373.00,675.49C357.88,675.80 341.53,676.32 336.68,676.66C331.84,676.99 328.24,677.64 328.69,678.09C329.14,678.54 335.58,679.38 343.00,679.96C350.43,680.54 358.98,681.18 362.00,681.38C365.02,681.58 384.82,681.62 406.00,681.48zM312.58,669.00C322.39,669.00 323.82,668.79 324.22,667.25C324.47,666.29 324.41,662.12 324.09,658.00C323.50,650.50 323.50,650.50 312.54,649.72C306.52,649.29 301.01,649.17 300.29,649.44C299.38,649.79 299.00,652.37 299.00,658.27C299.00,663.42 299.46,667.06 300.20,667.80C300.99,668.59 305.22,669.00 312.58,669.00zM388.05,608.04C392.97,607.54 393.44,607.27 394.16,604.47C394.59,602.80 394.59,600.10 394.15,598.47C393.41,595.66 393.06,595.48 387.52,595.20C383.53,594.99 381.42,595.30 380.86,596.20C380.40,596.91 380.02,599.38 380.02,601.68C380.01,603.98 380.61,606.47 381.36,607.22C382.33,608.18 384.29,608.42 388.05,608.04zM482.25,566.80C488.50,566.50 488.50,566.50 488.79,557.75C489.08,549.00 489.08,549.00 482.54,549.00C476.00,549.00 476.00,549.00 476.00,558.05C476.00,567.10 476.00,567.10 482.25,566.80zM415.00,514.37C429.02,514.11 453.55,513.26 469.50,512.48C485.45,511.69 502.32,510.78 507.00,510.45C511.68,510.11 516.29,509.62 517.25,509.35C518.73,508.94 519.00,507.63 519.00,500.90C519.00,492.93 519.00,492.93 496.25,493.71C483.74,494.15 429.74,494.50 376.25,494.50C279.00,494.50 279.00,494.50 279.00,502.23C279.00,509.44 279.15,509.99 281.25,510.45C282.49,510.71 294.75,511.44 308.50,512.05C322.25,512.67 346.10,513.55 361.50,514.00C376.90,514.45 400.98,514.62 415.00,514.37zM410.75,450.60C413.09,450.40 415.66,449.69 416.48,449.02C417.58,448.11 417.70,447.30 416.94,445.89C416.12,444.36 414.80,444.00 409.96,444.00C404.04,444.00 404.00,444.02 404.00,446.92C404.00,448.52 404.56,450.08 405.25,450.39C405.94,450.70 408.41,450.79 410.75,450.60zM386.41,419.00C390.67,419.00 394.09,418.51 394.80,417.80C395.46,417.14 395.99,414.33 395.98,411.55C395.98,408.77 395.54,405.83 395.02,405.01C394.33,403.91 392.19,403.51 387.01,403.51C381.80,403.50 379.68,403.90 378.98,405.00C378.46,405.82 378.02,408.60 378.02,411.17C378.01,413.74 378.27,416.55 378.61,417.42C379.08,418.66 380.77,419.00 386.41,419.00zM184.00,379.60C183.18,379.67 174.90,379.34 165.62,378.87C155.74,378.38 148.17,377.56 147.37,376.89C146.39,376.08 146.00,373.10 146.00,366.38C146.00,357.00 146.00,357.00 166.03,357.00C186.07,357.00 186.07,357.00 185.78,368.24C185.55,377.37 185.22,379.50 184.00,379.60zM388.82,375.92C390.64,375.96 393.00,375.53 394.07,374.96C395.53,374.18 396.00,372.86 396.00,369.50C396.00,366.14 395.53,364.82 394.07,364.04C393.00,363.47 390.08,363.00 387.57,363.00C383.00,363.00 383.00,363.00 383.00,368.92C383.00,372.71 383.45,375.01 384.25,375.34C384.94,375.62 386.99,375.88 388.82,375.92zM432.71,375.98C434.94,376.00 436.27,375.37 437.02,373.96C437.62,372.83 437.98,370.25 437.81,368.21C437.50,364.50 437.50,364.50 432.33,364.20C427.84,363.94 427.08,364.17 426.51,365.97C426.15,367.11 426.17,369.50 426.55,371.27C426.94,373.05 427.76,374.83 428.38,375.23C428.99,375.64 430.95,375.98 432.71,375.98zM319.99,375.00C321.43,375.00 323.14,374.46 323.80,373.80C324.46,373.14 325.00,370.90 325.00,368.82C325.00,365.67 324.60,364.94 322.62,364.44C321.31,364.11 318.95,363.99 317.37,364.17C314.81,364.46 314.46,364.93 314.18,368.46C313.94,371.35 314.33,372.77 315.62,373.71C316.59,374.42 318.56,375.00 319.99,375.00zM449.25,374.81C453.39,374.51 453.51,374.40 453.81,370.68C453.99,368.58 453.58,366.19 452.90,365.38C452.17,364.50 450.41,364.02 448.59,364.20C446.41,364.41 445.15,365.27 444.25,367.16C443.34,369.07 443.26,370.56 443.99,372.47C444.89,374.84 445.44,375.08 449.25,374.81zM175.56,305.87C172.78,305.81 165.24,305.18 158.82,304.47C152.39,303.77 146.65,302.90 146.07,302.54C145.39,302.12 145.01,296.53 145.02,287.19C145.02,279.11 145.40,271.92 145.85,271.20C146.31,270.49 148.89,269.23 151.59,268.41C154.29,267.58 160.70,266.27 165.83,265.49C170.97,264.71 183.57,263.59 193.83,262.99C204.10,262.39 219.93,261.59 229.00,261.20C245.50,260.50 245.50,260.50 246.02,255.31C246.31,252.46 246.79,249.88 247.09,249.58C247.39,249.28 261.78,248.76 279.07,248.42C296.36,248.09 347.40,248.30 392.50,248.89C444.19,249.57 482.63,250.53 496.50,251.49C508.60,252.32 520.96,253.46 523.97,254.01C526.98,254.56 529.95,255.57 530.56,256.26C531.28,257.05 531.52,260.34 531.23,265.37C530.77,273.25 530.77,273.25 525.58,272.64C522.72,272.30 513.89,271.56 505.94,270.99C498.00,270.42 475.75,269.51 456.50,268.97C437.25,268.43 382.46,267.69 334.75,267.34C248.00,266.69 248.00,266.69 248.00,274.70C248.00,282.72 248.00,282.72 307.75,283.40C340.61,283.78 373.35,284.49 380.50,284.98C387.65,285.47 420.50,286.35 453.50,286.92C486.50,287.50 517.08,288.38 521.45,288.89C527.10,289.56 529.77,290.33 530.68,291.58C531.70,292.97 531.71,293.64 530.74,294.81C529.71,296.05 527.00,296.18 513.51,295.59C504.70,295.20 476.80,294.26 451.50,293.51C412.24,292.33 397.22,292.33 349.00,293.53C317.93,294.30 276.98,295.40 258.00,295.97C239.03,296.54 219.00,297.46 213.50,298.00C208.00,298.55 199.82,299.49 195.32,300.09C189.47,300.87 186.20,301.87 183.87,303.59C181.36,305.45 179.46,305.97 175.56,305.87zM415.39,263.00C419.39,263.00 420.94,262.59 421.39,261.42C421.73,260.55 422.00,258.78 422.00,257.49C422.00,256.20 421.29,254.44 420.43,253.57C419.56,252.71 417.58,252.00 416.01,252.00C414.44,252.00 412.45,252.27 411.58,252.61C410.44,253.05 410.00,254.57 410.00,258.11C410.00,263.00 410.00,263.00 415.39,263.00zM433.95,262.98C435.35,262.98 436.98,262.64 437.57,262.23C438.16,261.83 438.96,260.65 439.35,259.61C439.76,258.49 439.41,256.75 438.50,255.36C437.58,253.96 435.97,253.00 434.55,253.00C433.23,253.00 431.44,253.71 430.57,254.57C429.71,255.44 429.00,257.15 429.00,258.37C429.00,259.60 429.54,261.14 430.20,261.80C430.86,262.46 432.55,262.99 433.95,262.98zM167.36,244.55C166.19,244.89 164.96,244.74 164.63,244.22C164.31,243.69 163.79,240.39 163.48,236.88C163.10,232.55 163.34,229.70 164.24,228.00C165.13,226.30 167.49,224.81 171.58,223.35C174.90,222.17 183.44,220.27 190.55,219.13C197.67,217.99 210.03,216.39 218.00,215.58C225.97,214.77 242.62,213.57 255.00,212.91C270.53,212.09 294.70,211.93 333.00,212.40C363.52,212.77 406.73,213.49 429.00,214.00C451.27,214.50 476.48,215.40 485.00,215.99C493.52,216.58 505.61,217.74 511.85,218.58C518.09,219.41 524.93,220.79 527.03,221.63C530.77,223.12 530.87,223.31 531.53,229.45C531.95,233.40 531.80,236.51 531.11,237.79C530.18,239.54 529.53,239.71 526.76,238.96C524.97,238.48 516.98,237.40 509.00,236.57C501.02,235.74 483.02,234.26 469.00,233.29C447.89,231.83 429.55,231.52 362.50,231.51C306.92,231.50 275.22,231.91 261.50,232.80C250.50,233.51 233.62,234.77 224.00,235.59C214.38,236.41 201.53,237.73 195.46,238.53C189.39,239.32 181.07,240.86 176.96,241.95C172.86,243.03 168.54,244.20 167.36,244.55zM412.50,227.00C415.86,227.00 418.19,226.48 418.95,225.56C419.61,224.76 420.01,223.07 419.83,221.81C419.55,219.88 418.76,219.42 415.00,218.99C412.52,218.72 409.48,218.66 408.24,218.86C406.86,219.09 405.74,220.17 405.38,221.63C405.05,222.95 405.33,224.69 406.01,225.51C406.82,226.48 409.07,227.00 412.50,227.00zM163.88,209.93C163.67,209.90 160.83,208.88 157.56,207.68C154.30,206.48 150.08,204.05 148.20,202.27C145.33,199.57 144.88,198.60 145.47,196.28C145.85,194.76 146.66,192.91 147.26,192.18C147.87,191.45 150.12,189.96 152.26,188.87C154.41,187.77 159.61,185.99 163.83,184.91C168.05,183.84 179.15,181.86 188.50,180.52C197.85,179.18 213.15,177.40 222.50,176.57C231.85,175.73 247.82,174.47 258.00,173.77C269.87,172.96 298.55,172.50 338.00,172.50C399.50,172.50 399.50,172.50 399.79,182.25C400.07,192.00 400.07,192.00 404.29,192.01C406.60,192.01 410.86,192.30 413.75,192.65C416.64,192.99 419.00,193.69 419.00,194.19C419.00,194.72 402.85,194.82 379.25,194.43C355.62,194.03 324.50,194.22 302.50,194.89C282.15,195.52 257.40,196.48 247.50,197.03C237.60,197.59 222.53,198.74 214.00,199.59C205.47,200.45 193.85,202.04 188.16,203.13C182.48,204.21 174.77,206.21 171.04,207.55C167.31,208.90 164.09,209.97 163.88,209.93zM529.75,204.88C528.51,204.82 523.45,203.95 518.50,202.95C513.55,201.95 502.75,200.44 494.50,199.59C486.25,198.75 472.13,197.58 463.11,197.00C454.10,196.42 446.34,195.71 445.86,195.42C445.39,195.12 445.00,190.44 445.00,185.00C445.00,179.56 445.38,174.88 445.84,174.60C446.31,174.31 456.99,174.74 469.59,175.56C482.19,176.38 497.90,177.73 504.50,178.57C511.10,179.42 519.19,180.79 522.48,181.64C525.76,182.48 529.25,183.60 530.23,184.12C531.74,184.93 532.00,186.52 532.00,195.04C532.00,204.74 531.94,205.00 529.75,204.88zM455.32,190.99C455.76,190.99 457.00,190.53 458.07,189.96C459.37,189.27 460.00,187.87 460.00,185.66C460.00,183.87 459.46,181.86 458.80,181.20C458.14,180.54 456.17,180.00 454.42,180.00C452.67,180.00 450.71,180.65 450.05,181.44C449.39,182.23 449.00,184.13 449.18,185.67C449.38,187.44 450.41,188.91 452.00,189.71C453.38,190.40 454.87,190.98 455.32,190.99zM145.69,182.00C145.45,182.00 144.97,180.59 144.62,178.88C144.28,177.16 144.00,174.12 144.01,172.12C144.01,170.13 144.46,166.87 145.02,164.88C145.85,161.89 147.01,160.74 151.79,158.19C154.96,156.50 161.48,153.98 166.28,152.59C171.08,151.20 178.72,149.37 183.25,148.53C187.79,147.69 199.60,146.08 209.50,144.97C219.40,143.85 238.41,142.66 251.75,142.31C276.00,141.69 276.00,141.69 276.00,134.44C276.00,127.19 276.00,127.19 266.25,126.45C260.89,126.05 246.82,126.01 235.00,126.35C223.18,126.70 209.34,127.27 204.25,127.63C195.00,128.28 195.00,128.28 195.01,125.89C195.02,124.57 195.30,122.46 195.64,121.20C196.00,119.88 198.57,117.42 201.63,115.46C204.59,113.57 209.89,111.30 213.41,110.41C218.31,109.18 219.95,108.31 220.36,106.71C220.66,105.57 220.64,102.66 220.31,100.26C219.73,95.99 219.65,95.92 216.61,96.58C214.90,96.95 211.19,98.28 208.37,99.52C205.56,100.76 201.41,103.44 199.16,105.47C195.08,109.16 195.08,109.16 194.45,106.64C194.10,105.26 193.97,99.32 194.16,93.45C194.50,82.77 194.50,82.77 199.50,78.24C202.25,75.74 205.85,73.14 207.49,72.44C209.13,71.75 210.82,71.39 211.24,71.65C211.66,71.91 212.01,75.35 212.02,79.31C212.02,83.26 212.41,87.10 212.88,87.83C213.56,88.91 215.13,88.69 221.11,86.66C225.17,85.29 232.32,83.00 237.00,81.59C241.68,80.18 250.22,77.93 256.00,76.58C261.77,75.23 271.98,73.19 278.68,72.05C285.38,70.91 298.65,69.27 308.18,68.42C320.31,67.32 338.53,66.82 369.00,66.74C392.93,66.68 422.18,67.18 434.00,67.85C445.82,68.53 461.57,69.74 469.00,70.54C476.43,71.35 488.12,72.93 495.00,74.07C501.88,75.21 511.03,77.03 515.34,78.12C519.65,79.20 524.94,80.79 527.09,81.65C531.00,83.22 531.00,83.22 531.00,92.73C531.00,102.07 530.96,102.22 528.75,101.73C527.51,101.46 519.75,99.86 511.50,98.19C503.25,96.51 490.20,94.44 482.50,93.60C474.80,92.75 458.82,91.29 447.00,90.35C431.11,89.09 413.36,88.63 379.00,88.59C349.28,88.56 327.09,89.00 317.50,89.82C309.25,90.52 295.75,91.77 287.50,92.59C279.25,93.41 266.72,94.96 259.66,96.03C252.60,97.11 242.81,98.92 237.91,100.07C229.00,102.17 229.00,102.17 229.00,109.11C229.00,114.62 229.34,116.19 230.63,116.69C231.53,117.03 237.77,116.34 244.49,115.16C251.22,113.97 263.20,112.35 271.11,111.56C279.03,110.77 294.85,109.59 306.28,108.93C320.35,108.12 345.67,107.92 384.78,108.29C421.87,108.65 450.54,109.41 465.00,110.44C477.38,111.31 493.80,112.73 501.50,113.59C509.20,114.45 519.10,115.82 523.50,116.63C527.90,117.44 536.00,119.27 541.50,120.69C547.00,122.11 554.20,124.50 557.50,126.02C560.80,127.53 564.31,129.39 565.30,130.16C566.30,130.93 567.52,133.34 568.03,135.53C568.54,137.71 568.69,140.92 568.38,142.65C567.81,145.81 567.81,145.81 563.16,143.41C560.60,142.10 554.90,140.13 550.50,139.05C546.10,137.97 538.23,136.40 533.00,135.58C527.77,134.75 515.85,133.39 506.50,132.55C497.15,131.70 478.25,130.31 464.50,129.44C450.41,128.56 417.45,127.66 389.00,127.38C361.23,127.11 331.75,127.26 323.50,127.70C308.50,128.50 308.50,128.50 307.88,134.00C307.53,137.03 307.47,141.30 307.73,143.50C308.20,147.50 308.20,147.50 373.35,147.43C409.18,147.39 448.62,146.99 461.00,146.54C476.15,146.00 489.15,146.12 500.78,146.91C510.28,147.56 523.56,148.99 530.28,150.08C537.00,151.18 546.00,152.95 550.27,154.01C554.55,155.07 560.06,157.12 562.52,158.57C565.34,160.22 567.00,161.90 567.00,163.10C567.00,164.14 566.05,165.95 564.90,167.10C563.74,168.26 560.48,170.24 557.65,171.51C554.82,172.79 549.91,174.39 546.74,175.07C543.58,175.76 540.68,176.02 540.31,175.65C539.94,175.28 539.44,171.16 539.20,166.51C538.91,161.16 538.26,157.63 537.42,156.93C536.69,156.33 535.62,156.12 535.04,156.47C534.47,156.83 533.99,159.68 533.98,162.81C533.98,165.94 533.58,169.11 533.10,169.87C532.40,170.98 531.06,170.76 525.74,168.63C522.16,167.20 512.77,164.89 504.87,163.49C496.97,162.10 481.05,160.08 469.50,159.00C457.95,157.93 437.48,156.36 424.00,155.53C410.52,154.69 385.55,154.01 368.50,154.01C351.45,154.01 325.57,154.45 311.00,155.00C296.43,155.54 276.85,156.46 267.50,157.03C258.15,157.60 243.97,158.75 236.00,159.58C228.03,160.41 214.15,162.20 205.16,163.55C196.17,164.91 183.32,167.33 176.60,168.94C169.88,170.54 161.73,173.03 158.49,174.46C155.25,175.89 151.15,178.18 149.37,179.53C147.59,180.89 145.93,182.00 145.69,182.00zM567.20,115.90C566.82,115.84 564.37,114.31 561.77,112.49C559.17,110.67 553.43,107.98 549.02,106.51C541.00,103.84 541.00,103.84 541.00,95.79C541.00,87.75 541.00,87.75 544.21,88.39C545.98,88.75 550.72,90.67 554.76,92.66C558.79,94.65 563.39,97.49 564.97,98.97C566.62,100.51 568.14,103.22 568.53,105.33C568.91,107.35 568.93,110.58 568.57,112.50C568.20,114.42 567.59,115.95 567.20,115.90zM394.31,83.80C400.50,83.50 400.50,83.50 400.50,77.50C400.50,71.50 400.50,71.50 393.50,71.50C386.50,71.50 386.50,71.50 386.19,75.71C386.03,78.03 386.39,80.86 387.00,82.01C387.98,83.83 388.89,84.06 394.31,83.80zM413.87,82.80C419.50,82.50 419.50,82.50 419.50,78.00C419.50,73.50 419.50,73.50 414.86,72.60C412.30,72.11 409.49,71.98 408.61,72.32C407.56,72.72 407.00,74.14 407.00,76.39C407.00,78.28 407.28,80.57 407.62,81.46C408.12,82.75 409.42,83.03 413.87,82.80zM238.61,67.00C237.80,67.00 236.81,65.99 236.42,64.75C236.02,63.51 235.73,60.52 235.76,58.11C235.80,55.46 236.58,52.68 237.72,51.11C238.77,49.67 242.38,46.63 245.75,44.35C249.11,42.07 255.39,39.04 259.69,37.61C263.98,36.18 271.55,34.13 276.50,33.05C281.45,31.98 291.35,30.19 298.50,29.08C305.65,27.97 319.15,26.33 328.50,25.44C337.85,24.55 355.40,23.75 367.50,23.66C389.50,23.50 389.50,23.50 390.00,31.67C390.27,36.16 390.87,40.21 391.32,40.66C391.77,41.10 399.09,41.89 407.59,42.41C419.50,43.14 423.33,43.07 424.27,42.13C424.99,41.42 425.65,37.29 425.86,32.31C426.22,23.72 426.22,23.72 438.86,24.40C445.81,24.78 457.35,25.74 464.50,26.55C471.65,27.35 482.45,28.93 488.50,30.05C494.55,31.18 503.32,33.25 507.98,34.65C512.65,36.06 519.00,38.49 522.10,40.05C525.20,41.61 528.92,44.30 530.37,46.02C532.55,48.62 533.00,50.14 533.00,54.99C533.00,58.21 532.74,61.51 532.43,62.33C531.93,63.62 530.92,63.51 525.18,61.56C521.50,60.31 513.50,58.10 507.39,56.64C501.27,55.17 491.37,53.08 485.39,51.97C479.40,50.87 468.88,49.32 462.00,48.53C455.12,47.74 440.05,46.56 428.50,45.91C415.25,45.17 396.98,44.97 379.00,45.39C363.32,45.75 342.85,46.73 333.50,47.56C324.15,48.39 308.66,50.20 299.07,51.57C289.49,52.95 277.56,54.97 272.57,56.07C267.58,57.16 259.90,59.23 255.50,60.67C251.10,62.10 245.83,64.11 243.79,65.14C241.75,66.16 239.42,67.00 238.61,67.00zM434.46,38.00C438.46,38.00 439.03,37.71 439.61,35.43C439.96,34.01 439.76,31.76 439.15,30.43C438.24,28.44 437.31,28.00 434.00,28.00C430.66,28.00 429.76,28.43 428.82,30.50C427.97,32.37 427.97,33.63 428.82,35.50C429.79,37.63 430.63,38.00 434.46,38.00z" />

</svg>