<svg id="Layer_5" enable-background="new 0 0 64 64" viewBox="0 0 64 64" xmlns="http://www.w3.org/2000/svg" xmlns:xlink="http://www.w3.org/1999/xlink">
  <linearGradient id="SVGID_1_" gradientUnits="userSpaceOnUse" x1="32.07" x2="32.07" y1="63" y2="1">
  <stop offset="0" stop-color="#9f2fff"/>
  <stop offset="1"  stop-color="#0bb1d3"/>
  </linearGradient>
  <path d="m8.673 45.453c.236 2.592 2.376 4.547 4.98 4.547h5.347v2.279l-6.573 2.191c-3.246 1.082-5.427 4.108-5.427 7.53v1h46.443l
  -.697-1.86c-1.709-4.555-5.95-7.71-10.746-8.098v-4.762c3.756-6.138 9.536-10.865 16.344-13.34l.795-.291-2.312-12.327c-2.316-12.355-13.12-21.322-25.689-21.322-14.413 0-26.138 
  11.725-26.138 26.138v10.583l3.063 1.021zm.411 15.547c.363-2.134 1.87-3.93 3.976-4.632l7.94-2.647v-3.721h2c.092 0 .182-.014.274-.016l1.901 5.701 5.352 2.974c-.481.728-.895 
  1.509-1.218 2.341zm41.43 0h-19.028c1.735-3.623 5.451-6 9.514-6s7.779 2.377 9.514 6zm-9.713-14.515-6.514-5.791c3.856-1.015 6.713-4.523 6.713-8.694 0-1.053-.191-2.06-.525-3h15.57l.818 
  4.36c-6.584 2.575-12.213 7.201-16.062 13.125zm4.634-27.92c.754.754 1.434 1.573 2.048 2.435h-5.077c-1.125-1.065-2.375-1.921-3.701-2.575l1.475-3.56c1.922.919 3.704 2.149 5.255 
  3.7zm-8.584-.89c-1.252-.422-2.545-.683-3.851-.768v-3.858c1.842.095 3.631.45 5.332 1.051zm-5.851-.761c-1.306.086-2.6.337-3.852.759l-1.48-3.573c1.701-.601 3.491-.956 
  5.332-1.051zm-7.18-2.049 1.479 3.571c-1.306.644-2.534 1.487-3.646 2.53l-2.412-3.015c1.387-1.261 2.926-2.295 4.579-3.086zm8.18 4.034c3.537 0 6.837 1.353 9.293 
  3.808l.293.293h13.334l.75 4h-16.192c-1.617-2.41-4.365-4-7.478-4-2.552 0-4.853 1.072-6.493 2.784l-2.604-3.255c2.435-2.337 5.651-3.63 9.097-3.63zm2.816 12.101c-.302-.847-.969-1.514-1.816-1.816v-4.104c3.059.441 5.48 2.861 5.92 5.92zm-2.816 0c.551 0 1 .449 1 1s-.449 1-1 1-1-.449-1-1 .449-1 1-1zm1 3.816c.847-.302 1.514-.969 1.816-1.816h4.104c-.441 3.059-2.861 5.48-5.92 5.92zm-2-9.736v4.104c-.847.302-1.514.969-1.816 1.816h-4.104c.44-3.059 2.861-5.48 5.92-5.92zm-1.816 7.92c.302.847.969 1.514 1.816 1.816v4.104c-3.059-.441-5.48-2.861-5.92-5.92zm1.954-30c11.024 0 20.564 7.475 23.329 18h-4.586c-.857-1.39-1.868-2.686-3.032-3.849-3.966-3.966-9.24-6.151-14.849-6.151-5.497 0-10.664 2.109-14.574 5.9l-7.557-1.162c4.076-7.576 12.08-12.738 21.269-12.738zm-20.138 25v-2h-3.971c.031-.675.096-1.341.182-2h7.789c1.103 0 2 .897 2 2v1c0 2.206-1.794 4-4 4h-6v-3zm-4 5h6c3.309 0 6-2.691 6-6v-1c0-2.206-1.794-4-4-4h-7.444c.33-1.517.801-2.982 1.403-4.379l8.503 1.308 6.799 8.499c-.795 1.342-1.261 2.902-1.261 4.572 0 4.826 3.822 8.766 8.596 8.98l8.404 7.469v4.593c-3.179.258-6.113 1.731-8.228 4.021l-4.946-2.748-1.524-4.573c2.567-.555 4.9-2.011 6.498-4.142l-1.6-1.2c-1.691 2.254-4.382 3.6-7.2 3.6h-9.347c-1.562 0-2.846-1.173-2.987-2.728l-.729-8.014-2.937-.979zm8-5h-2v-2h2z" fill="url(#SVGID_1_)"/>
  </svg>