<?xml version="1.0" standalone="no"?>
<!DOCTYPE svg PUBLIC "-//W3C//DTD SVG 20010904//EN"
 "http://www.w3.org/TR/2001/REC-SVG-20010904/DTD/svg10.dtd">
<svg version="1.0" xmlns="http://www.w3.org/2000/svg"
 width="300.000000pt" height="300.000000pt" viewBox="0 0 300.000000 300.000000"
 preserveAspectRatio="xMidYMid meet">
<metadata>
Created by potrace 1.10, written by Peter Selinger 2001-2011
</metadata>
<defs>
  <linearGradient id="gradient1" x1="0%" y1="0%" x2="100%" y2="100%">
      <stop offset="0" style="stop-color:#4800bd;stop-opacity:1"/>
      <stop offset="1" style="stop-color:#e39f00;stop-opacity:1"/>
  </linearGradient>
  <linearGradient id="gradient2" x1="0%" y1="0%" x2="100%" y2="100%">
      <stop offset="0" style="stop-color:#e39f00;stop-opacity:1"/>
      <stop offset="1" style="stop-color:#e39f00;stop-opacity:1"/>
  </linearGradient>
  <linearGradient id="gradient3" x1="0%" y1="0%" x2="100%" y2="100%">
      <stop offset="0" style="stop-color:#97515c;stop-opacity:1"/>
      <stop offset="1" style="stop-color:#a96348;stop-opacity:1"/>
  </linearGradient>
  
</defs>

<g transform="translate(0.000000,300.000000) scale(0.050000,-0.050000)"
 stroke="none">
<path style="fill:url(#gradient1);" d="M3082 5969 c-181 -39 -310 -85 -386 -136 -36 -24 -151 -85 -256 -134
-339 -159 -737 -492 -993 -829 -222 -293 -287 -416 -493 -934 -178 -445 -534
-728 -869 -691 -47 6 -85 3 -85 -5 0 -70 612 -96 778 -33 107 41 113 41 81 2
-59 -71 -181 -114 -303 -105 -177 13 -47 -46 194 -88 35 -7 31 -16 -37 -79
-177 -164 -446 -272 -627 -252 -114 13 -109 -14 9 -53 225 -74 576 -55 719 39
67 44 73 38 59 -73 -26 -222 89 -564 254 -751 96 -110 104 -104 53 43 -55 161
-55 447 1 650 51 183 82 224 76 100 -4 -80 49 -372 70 -394 5 -5 15 37 23 93
21 152 44 138 42 -25 -1 -79 6 -202 15 -274 23 -173 -2 -143 -36 43 -24 134
-27 139 -29 57 -4 -184 113 -706 189 -843 46 -84 4 -224 -114 -375 -20 -26
-37 -64 -37 -85 0 -43 -14 -41 -264 36 -84 26 -161 46 -170 44 -9 -2 -58 15
-110 39 -267 119 -440 51 -715 -281 -127 -153 -167 -293 -92 -322 31 -12 151
-167 151 -196 0 -41 -61 -11 -117 58 l-62 75 0 -97 c-1 -83 3 -94 28 -74 23
19 44 9 108 -49 70 -63 92 -72 164 -66 l84 6 -40 49 -39 48 86 117 c47 65 91
135 98 157 18 56 41 49 89 -30 23 -37 75 -96 114 -131 83 -73 87 -67 -88 -152
-130 -64 -133 -67 -64 -67 38 -1 92 14 120 33 49 33 280 225 299 248 6 7 90
76 188 154 191 154 186 153 302 47 l74 -68 -107 -60 c-235 -130 -388 -195
-462 -195 -76 0 -209 -53 -188 -74 6 -6 40 -1 75 12 35 12 99 22 142 22 46 0
154 32 266 80 218 93 237 95 279 36 44 -64 41 -69 -59 -107 -49 -19 -100 -47
-112 -62 -16 -19 -78 -28 -205 -29 -357 -5 -302 -33 67 -35 329 -2 366 1 331
28 -45 34 -70 36 -140 9 -28 -10 -51 -11 -51 -1 0 9 63 42 140 72 154 61 153
57 33 176 -54 54 -50 91 9 93 23 0 167 -168 235 -275 37 -58 80 -105 96 -105
47 0 -117 222 -322 437 -71 75 -100 116 -71 100 28 -15 57 -36 65 -47 9 -13
14 -12 15 2 1 60 88 5 260 -161 246 -239 359 -331 404 -331 45 0 46 18 3 50
-43 31 -17 77 29 52 19 -10 55 -38 80 -62 69 -65 96 -37 34 36 -72 86 -35 82
50 -6 73 -76 131 -98 68 -27 -37 43 -37 44 2 28 22 -8 78 -20 125 -26 47 -6
91 -18 97 -28 6 -9 20 -17 32 -17 12 0 6 18 -14 40 -20 22 -53 40 -74 40 -64
0 -216 44 -206 59 5 8 -65 34 -156 57 -169 42 -393 135 -464 192 -22 17 19 6
90 -26 145 -65 477 -172 490 -159 5 5 -92 44 -216 86 -264 90 -459 179 -497
225 -24 29 -23 31 11 12 39 -21 185 6 262 49 60 33 -52 49 -195 26 -304 -47
-358 -39 -510 74 -75 55 -170 121 -211 146 -102 60 -84 67 51 21 233 -80 808
-172 1134 -180 165 -5 211 -21 211 -76 0 -30 23 -38 144 -49 122 -11 339 -53
363 -70 15 -10 -55 -67 -83 -67 -16 0 -40 13 -54 30 -24 29 -70 22 -51 -9 32
-51 -194 -2 -359 79 -99 48 -188 86 -198 83 -9 -2 -35 11 -58 31 l-41 36 39
-69 c21 -38 105 -137 187 -220 82 -83 148 -157 146 -163 -2 -7 69 -28 156 -47
140 -30 163 -42 190 -93 38 -74 76 -78 48 -5 l-20 52 85 -15 c48 -8 110 -15
140 -15 30 -1 50 -8 44 -18 -5 -9 3 -11 19 -5 16 6 57 -3 90 -21 34 -17 95
-30 137 -30 68 2 58 8 -104 68 -240 88 -301 104 -223 60 31 -18 52 -36 48 -41
-10 -10 -459 111 -475 127 -5 6 9 6 32 1 49 -12 108 15 108 50 0 13 -51 40
-113 60 -122 38 -369 177 -411 230 -21 26 -14 25 34 -5 144 -93 237 -135 510
-228 328 -113 658 -240 756 -291 37 -19 76 -31 88 -27 32 10 -353 185 -544
246 -210 67 -207 65 -171 101 17 17 44 50 61 74 l32 44 143 -78 c193 -104 455
-278 514 -341 26 -28 55 -51 64 -51 34 0 17 191 -24 267 -53 100 -36 118 25
26 25 -39 66 -82 91 -96 25 -13 70 -63 100 -111 53 -83 165 -127 165 -65 0 12
-9 16 -20 9 -11 -7 -26 4 -34 24 -11 31 -76 125 -177 256 -52 68 -33 498 23
506 39 6 43 -9 66 -250 14 -140 32 -264 41 -276 9 -11 27 -53 40 -94 29 -91
171 -214 206 -179 13 13 40 23 60 23 21 0 33 8 27 17 -6 9 32 13 84 8 53 -5
129 0 171 12 57 15 74 15 68 -3 -5 -13 -19 -24 -32 -24 -55 0 -27 -41 32 -46
36 -4 65 1 63 10 -11 66 5 86 72 86 72 0 104 -62 45 -87 -14 -6 96 -9 244 -8
l268 3 -78 35 c-113 51 -358 103 -440 93 -72 -8 -95 16 -34 37 19 7 85 51 147
99 96 74 121 84 170 71 83 -23 72 -66 -30 -115 l-87 -42 123 -14 c115 -13 182
-32 332 -92 l60 -24 -50 -21 c-41 -17 -44 -23 -15 -30 19 -4 100 23 180 61 80
37 179 80 220 95 102 37 94 51 -36 66 -156 19 -605 171 -827 281 -103 51 -177
81 -165 66 12 -15 67 -48 122 -74 100 -47 129 -80 70 -80 -17 0 -56 13 -87 29
-32 16 -62 25 -68 19 -17 -17 -96 32 -84 52 6 9 0 24 -13 32 -14 9 -18 6 -9
-9 32 -52 -30 -18 -112 62 -49 47 -70 71 -47 54 22 -17 57 -43 76 -57 19 -15
35 -23 35 -18 0 19 -164 140 -196 145 -19 3 -35 15 -36 28 -2 13 -5 30 -8 38
-3 8 -3 22 -2 31 2 10 -5 12 -14 6 -10 -5 -66 39 -125 99 -60 60 -119 106
-132 101 -13 -5 -40 10 -60 34 l-37 44 50 -40 50 -40 -49 56 c-27 31 -88 80
-135 110 -138 87 -109 108 112 79 233 -30 446 28 589 162 83 77 102 127 155
393 26 132 51 217 54 188 36 -312 -304 -1018 -491 -1018 -24 0 -27 -6 -11 -22
131 -131 615 515 723 964 l33 139 90 -16 c136 -23 304 -16 360 15 l50 28 -79
14 c-118 20 -219 174 -266 406 -12 64 -25 62 165 19 85 -20 273 169 300 303
l13 60 -43 -55 c-50 -63 -122 -71 -231 -26 -83 35 -83 38 -16 118 122 144 203
403 86 275 -62 -68 -140 -78 -247 -32 -91 39 41 -341 133 -386 25 -12 34 -22
20 -23 -14 0 -25 -11 -25 -23 0 -12 14 -17 30 -11 44 17 36 -14 -16 -63 -36
-34 -52 -38 -70 -20 -16 16 -24 17 -24 2 0 -59 -79 -41 -90 21 -40 233 -62
602 -32 524 32 -81 44 20 55 454 14 528 -5 696 -101 913 -37 84 -73 192 -80
240 -31 204 -295 529 -528 650 -32 16 -82 67 -112 112 -30 46 -85 101 -123
123 -38 23 -69 47 -69 54 0 7 -20 26 -45 41 l-45 27 46 -50 c54 -58 92 -416
47 -443 -13 -8 -27 8 -35 42 -21 85 -166 392 -194 410 -68 43 -303 -4 -477
-96 -609 -323 -1044 -1202 -1087 -2203 -9 -205 -22 -320 -34 -312 -143 88 365
-585 571 -757 l117 -98 -107 12 c-399 44 -644 201 -735 470 l-23 70 70 -80
c39 -44 70 -70 71 -59 0 12 -16 39 -35 61 -101 114 -184 364 -214 646 -16 146
-36 122 -24 -28 31 -391 76 -602 217 -1025 98 -295 156 -411 85 -171 -19 64
-37 150 -41 192 -4 42 -21 95 -38 119 -41 60 -41 109 0 75 17 -14 30 -37 30
-52 0 -16 11 -28 25 -29 74 -2 98 -57 136 -303 59 -397 100 -540 218 -775 65
-128 268 -364 309 -359 49 6 72 -4 111 -46 49 -52 52 -76 11 -76 -16 0 -30 14
-30 30 0 18 -19 30 -49 30 -27 0 -54 9 -60 19 -7 11 -91 70 -187 133 -493 321
-855 890 -933 1468 -17 118 15 67 49 -80 30 -131 183 -526 248 -641 45 -79 47
-80 56 -31 6 27 1 59 -11 71 -12 12 -15 21 -7 21 7 0 -9 40 -37 90 -27 49 -51
96 -52 105 -1 8 -11 38 -21 65 -124 317 -177 506 -251 890 -60 312 17 1342
124 1650 28 82 48 160 42 173 -5 14 -1 27 8 31 17 7 241 437 241 465 0 9 -20
-9 -45 -41 -25 -31 -45 -64 -45 -72 0 -7 -11 -25 -25 -39 -14 -14 -25 -37 -25
-52 0 -15 -9 -22 -20 -15 -28 17 -120 -185 -120 -262 0 -109 -23 -195 -44
-165 -12 18 -14 11 -5 -21 8 -29 6 -42 -7 -35 -102 64 -246 -612 -275 -1297
-17 -396 6 -361 41 63 34 424 51 547 73 547 10 0 11 -38 2 -85 -58 -327 2
-1391 97 -1715 49 -168 104 -299 120 -289 10 6 18 -3 18 -21 0 -18 28 -100 62
-181 92 -223 63 -215 -78 19 -150 250 -264 507 -328 735 -29 106 -48 150 -53
120 -11 -77 34 -297 109 -540 88 -284 78 -299 -40 -55 -285 594 -284 1491 2
2402 135 429 528 1108 611 1057 12 -7 16 -4 9 7 -23 37 246 261 285 237 10 -7
29 6 41 28 12 24 42 41 69 41 26 0 51 11 56 24 4 13 30 25 56 27 27 1 81 17
119 35 39 18 124 46 190 62 158 38 46 39 -128 1z m945 -291 c52 -40 185 -218
164 -218 -6 0 -47 36 -90 79 -201 201 -373 135 -588 -229 -45 -77 -89 -143
-98 -147 -8 -3 -10 -15 -4 -25 6 -10 2 -18 -9 -18 -24 0 -62 -126 -62 -205 0
-99 75 7 113 160 84 339 335 547 557 462 107 -42 251 -171 249 -226 0 -11 -13
-3 -29 19 -121 171 -127 156 -151 -421 -11 -274 -29 -553 -39 -619 -10 -66
-25 -327 -32 -580 -8 -253 -21 -437 -29 -410 -26 89 -65 522 -78 860 -11 307
-13 320 -29 193 -59 -477 97 -1329 330 -1800 75 -151 74 -152 -27 -61 -47 42
-85 83 -85 91 0 7 -29 45 -65 85 -36 39 -65 79 -65 90 0 10 -26 40 -57 67 -32
26 -69 68 -82 93 -18 34 -30 39 -50 22 -21 -17 -38 -7 -74 44 -25 36 -78 97
-117 136 -260 261 -378 1034 -248 1620 8 37 6 42 -9 20 -85 -132 -130 -953
-64 -1179 34 -114 8 -93 -66 53 -286 567 -176 1385 251 1868 155 174 466 269
583 176z m-1666 -113 c-34 -41 -113 -145 -174 -230 -111 -156 -157 -197 -201
-181 -43 15 -211 -283 -304 -540 -119 -330 -160 -528 -53 -261 74 185 195 427
214 427 8 0 -6 -47 -31 -105 -298 -685 -439 -1774 -290 -2231 41 -126 -2 -90
-69 58 -378 834 -289 1539 310 2438 190 285 205 312 128 229 -147 -156 -456
-669 -542 -899 -85 -226 -245 -750 -229 -750 36 0 -19 -172 -79 -250 -30 -39
-30 -39 11 -4 44 37 128 62 128 38 -1 -86 -181 -233 -310 -252 -100 -15 -161
18 -100 54 152 91 224 234 357 714 38 138 76 266 84 285 7 19 6 35 -4 35 -9
-1 -56 -97 -103 -215 -103 -255 -129 -306 -218 -424 -60 -78 -64 -91 -34 -107
22 -13 38 -10 49 8 21 34 49 -27 32 -71 -16 -41 -139 -103 -149 -74 -4 13 -22
23 -41 23 -25 1 -21 10 17 39 38 30 44 44 27 62 -18 18 -9 40 40 93 34 38 80
98 100 133 26 44 9 31 -56 -41 -90 -101 -269 -246 -303 -246 -10 0 29 41 86
91 140 122 261 323 395 655 189 469 421 823 686 1048 69 58 120 106 113 106
-7 0 -2 13 12 30 13 16 34 24 45 17 12 -7 16 -4 9 6 -13 21 53 87 86 87 11 0
20 8 20 17 0 19 96 86 279 197 136 83 139 82 62 -9z m2139 -118 c0 -104 -82
-252 -120 -217 -33 30 -37 277 -8 369 16 48 128 -86 128 -152z m113 -77 c6
-17 -3 -53 -21 -80 -40 -61 -27 -63 50 -9 32 23 58 33 58 22 0 -19 -214 -163
-242 -163 -8 0 15 58 49 130 64 133 86 153 106 100z m-269 -171 c69 -83 73
-664 6 -859 -17 -51 -27 -66 -23 -35 11 81 -18 67 -62 -30 -129 -285 -133
-295 -107 -320 19 -20 22 -18 12 8 -7 18 -4 38 6 45 42 26 42 -108 1 -203 -24
-52 -64 -149 -89 -215 l-46 -120 -1 92 c-2 159 24 351 41 307 14 -36 15 -36
17 6 0 25 -9 45 -20 45 -12 0 -17 8 -11 17 6 10 16 134 22 275 27 644 46 922
68 978 17 41 18 61 3 66 -12 4 -16 16 -10 26 15 25 151 -34 193 -83z m489 3
c34 -21 74 -66 89 -100 15 -34 33 -62 40 -62 6 0 11 -27 11 -60 0 -75 -3 -75
-144 10 -64 39 -131 72 -148 73 -45 5 -106 11 -150 14 -34 3 -32 10 20 65 99
105 180 122 282 60z m226 -229 c19 -46 41 -119 49 -163 l13 -80 -38 48 c-20
26 -47 89 -59 140 -12 51 -28 109 -36 130 -30 78 35 8 71 -75z m-402 -19 c247
-229 468 -801 512 -1324 73 -879 14 -1488 -191 -1981 -56 -135 -144 -282 -107
-179 231 644 250 2051 37 2707 -69 211 -254 550 -362 661 -172 178 -71 284
111 116z m103 36 c377 -191 518 -466 530 -1040 l7 -340 -18 270 c-11 148 -33
312 -50 364 -18 52 -26 105 -18 117 15 24 -41 187 -86 249 -28 38 -28 38 -14
-9 18 -62 -185 102 -312 252 -45 53 -104 117 -131 142 -66 59 -30 57 92 -5z
m-254 -185 c4 -8 -8 -60 -28 -115 l-36 -100 -1 83 c-1 117 34 188 65 132z
m-1609 -346 c-6 -259 -7 -264 -67 -289 -36 -15 -37 -17 -5 -25 20 -4 29 -18
22 -30 -8 -13 -4 -15 10 -7 13 8 18 23 12 33 -6 11 -2 19 10 19 11 0 22 -13
24 -30 1 -16 4 -41 6 -55 2 -14 -7 -38 -20 -55 -34 -43 -54 -140 -29 -140 11
0 21 14 23 30 1 17 4 39 7 50 3 11 6 29 8 40 1 11 12 20 25 20 14 0 18 -25 11
-70 -6 -38 -4 -70 4 -70 24 0 69 -212 53 -253 -25 -66 -75 28 -67 128 4 58 -2
85 -19 85 -46 0 -55 -10 -54 -55 2 -59 -4 -57 -42 17 -33 63 -39 426 -7 407
25 -16 43 71 20 99 -12 14 -17 32 -12 39 6 7 4 8 -4 2 -8 -5 -16 -21 -20 -35
-27 -117 -45 -256 -54 -434 -6 -115 -12 -219 -13 -230 -5 -61 -61 176 -60 258
0 108 50 327 93 409 15 29 28 63 28 74 0 12 18 59 41 105 22 46 45 111 52 144
22 112 29 61 24 -181z m1716 166 c18 -41 48 -106 67 -145 56 -113 115 -298
150 -477 38 -188 30 -245 -9 -68 -14 63 -38 139 -53 167 -14 29 -21 58 -15 65
23 23 -36 128 -84 150 -30 13 -44 33 -37 51 7 17 -5 33 -31 42 -50 16 -53 47
-6 82 52 40 -18 38 -96 -3 -56 -28 -59 -28 -59 9 0 21 7 42 15 45 8 4 31 41
50 82 19 41 44 75 55 75 11 0 35 -34 53 -75z m475 -106 c29 -34 52 -55 53 -46
0 10 13 0 30 -22 16 -21 28 -53 28 -70 -1 -21 -9 -16 -23 14 -55 114 -51 -45
5 -205 12 -33 26 -159 32 -280 6 -121 18 -256 26 -301 8 -45 8 -98 1 -120 -9
-24 -19 19 -28 111 -31 336 -117 684 -243 987 -22 55 51 13 119 -68z m-608
-159 c0 -10 25 -25 55 -32 72 -18 171 -68 159 -81 -6 -6 -29 0 -52 12 -57 31
-53 15 19 -67 102 -116 214 -519 247 -887 11 -124 11 -125 -40 -125 -38 0 -49
8 -41 30 13 34 -18 41 -38 9 -7 -13 -38 -16 -76 -8 -80 17 -84 22 -53 59 14
17 21 36 14 42 -6 7 -27 -7 -47 -30 -29 -34 -59 -42 -151 -42 -115 0 -323 -62
-349 -105 -9 -14 -2 -17 21 -9 29 11 27 3 -10 -48 -39 -56 -46 -59 -64 -27
-49 89 30 419 234 975 40 108 72 217 72 243 0 48 46 111 81 111 11 0 19 -9 19
-20z m-1674 -728 c17 -48 63 -139 102 -200 89 -139 90 -132 -15 -132 -130 0
-155 38 -150 232 5 219 17 237 63 100z m449 -370 c28 -37 43 -64 33 -59 -112
52 -130 70 -169 175 -75 199 -69 245 11 92 40 -77 97 -170 125 -208z m-304
-121 c40 33 62 8 28 -32 -20 -25 -21 -41 -4 -68 31 -51 14 -61 -101 -61 -96 0
-99 2 -67 37 37 40 44 83 13 83 -11 0 -20 13 -20 29 0 23 11 25 60 8 45 -16
68 -15 91 4z m247 -61 c100 -84 153 -108 92 -40 -47 52 -10 51 57 -1 69 -54
68 -27 -1 45 -29 30 -48 61 -41 67 6 7 48 -37 92 -97 80 -109 276 -294 311
-294 10 0 3 17 -16 38 -37 41 -119 241 -105 256 5 5 60 -59 122 -143 171 -232
569 -589 631 -567 10 3 -15 58 -54 121 -69 110 -211 490 -194 518 4 7 37 30
73 51 l65 39 -7 -82 -6 -82 122 -26 c71 -14 137 -41 156 -63 30 -35 34 -35 56
-5 21 28 33 30 77 10 45 -21 52 -20 52 12 0 19 27 56 61 81 34 24 71 67 83 93
49 107 51 40 3 -86 -28 -74 -59 -161 -68 -192 -28 -93 -151 -226 -262 -281
-122 -61 -96 -84 74 -64 60 7 109 6 109 -1 0 -52 -77 -239 -114 -280 -26 -27
-41 -58 -35 -68 14 -24 -32 -87 -70 -95 -49 -11 -128 -108 -101 -124 24 -15
-7 -49 -45 -50 -8 0 -30 -29 -50 -64 -49 -89 -337 -400 -425 -458 -71 -47 -74
-48 -180 -16 -175 52 -691 317 -721 371 -42 74 -176 707 -155 728 5 5 71 -4
147 -19 205 -41 409 -57 409 -33 0 12 -19 21 -41 21 -65 0 -214 111 -384 286
-270 276 -236 350 161 353 92 1 142 8 134 21 -7 11 -39 20 -71 20 -50 0 -59 8
-59 51 0 29 -9 69 -21 90 -36 68 35 46 139 -41z m2238 3 c-3 -18 3 -45 12 -60
10 -17 5 -38 -14 -57 -35 -36 -59 -5 -83 106 -12 59 -10 62 39 53 34 -7 50
-21 46 -42z m-732 -21 c58 -21 -49 -182 -120 -182 -52 0 -54 4 -54 108 l0 108
70 -11 c39 -6 85 -16 104 -23z m216 -208 l0 -246 -95 -71 c-93 -70 -226 -127
-265 -114 -11 4 29 45 89 91 119 92 171 159 180 230 9 75 74 356 83 356 4 0 8
-111 8 -246z m-440 203 c0 -8 -11 -18 -25 -22 -20 -7 -20 -22 -2 -72 25 -68 8
-81 -42 -32 -18 19 -47 27 -69 20 -31 -10 -37 -5 -28 28 6 23 1 52 -10 66 -16
19 2 25 78 25 54 0 98 -6 98 -13z m-3510 -77 c-87 -169 -243 -265 -473 -290
l-107 -12 116 50 c128 55 365 207 423 271 54 60 77 50 41 -19z m40 -121 c-8
-46 -3 -140 12 -215 l26 -134 25 120 25 120 -9 -128 c-5 -70 -10 -174 -12
-230 l-4 -102 -15 110 c-11 83 -13 60 -8 -90 4 -110 21 -245 38 -300 27 -91
27 -96 -1 -60 -148 188 -211 601 -134 874 37 133 78 158 57 35z m4255 -401 c2
-160 -4 -228 -21 -233 -13 -5 -24 -18 -24 -29 0 -11 14 -15 31 -8 17 6 26 3
19 -7 -6 -11 8 -29 32 -42 63 -34 18 -65 -71 -48 -64 12 -73 20 -62 57 10 31
51 359 70 550 1 5 6 4 12 -3 7 -6 13 -112 14 -237z m-365 -142 c0 -78 -30 -70
-92 24 -29 44 -56 80 -60 80 -18 0 23 -78 78 -147 l60 -78 -35 -112 c-106
-342 -347 -570 -651 -616 l-90 -13 178 187 c274 289 355 418 411 660 39 165
73 194 144 126 36 -35 57 -75 57 -111z m-3131 -526 c83 -192 102 -226 176
-324 43 -57 73 -114 65 -125 -7 -12 1 -27 18 -33 34 -13 132 -171 132 -213 0
-22 -25 -26 -115 -19 -135 11 -233 54 -217 95 7 18 -2 29 -22 29 -28 0 -29 4
-4 35 57 71 78 126 76 200 -2 74 -2 74 -17 15 -13 -58 -76 -170 -95 -170 -4 0
-2 62 5 138 11 114 8 147 -21 185 -34 46 -34 45 -23 -63 10 -97 8 -106 -17
-73 -61 82 -125 514 -90 603 l25 60 45 -130 c24 -71 60 -166 79 -210z m-150
-85 c44 -337 168 -615 298 -670 l53 -22 -48 -8 c-119 -21 -243 49 -203 114 9
14 5 49 -8 78 -14 29 -34 76 -46 103 l-22 50 -2 -55 c-1 -60 -41 -78 -41 -19
0 20 -10 46 -22 58 -46 46 -46 566 0 566 8 0 27 -88 41 -195z m352 -70 c76
-107 143 -195 150 -195 7 0 52 -47 100 -105 48 -58 69 -89 46 -70 -22 19 -50
35 -62 35 -54 0 -361 404 -395 520 -19 66 -5 49 161 -185z m782 -596 c84 -87
140 -159 125 -159 -16 0 -4 -20 27 -45 39 -32 50 -53 37 -73 -22 -35 -82 -14
-82 29 0 17 -9 26 -20 19 -42 -26 -63 13 -32 59 30 47 -22 131 -81 131 -32 0
-114 99 -244 296 -157 237 -159 276 -3 65 67 -89 189 -234 273 -322z m377 352
c44 -35 109 -75 145 -90 36 -14 65 -33 65 -42 0 -20 74 -46 140 -48 36 -1 48
-11 44 -36 -3 -19 4 -35 15 -35 12 0 21 11 22 25 0 15 11 11 27 -10 28 -37
104 -48 115 -16 4 10 33 25 65 33 48 11 56 8 47 -17 -7 -17 -19 -95 -26 -174
-20 -200 -89 -189 -255 39 -44 60 -83 114 -87 118 -4 5 -29 -12 -56 -37 l-49
-46 -89 74 c-49 40 -126 129 -171 198 -117 179 -110 188 48 64z m-969 -102
c213 -107 385 -315 428 -514 9 -41 24 -55 59 -55 180 0 343 -100 284 -174 -2
-3 -53 9 -113 24 -60 16 -138 30 -174 30 -47 0 -65 9 -65 33 0 31 -3 31 -37 0
-54 -49 -57 -45 -72 112 -26 274 -87 366 -357 533 -69 42 -89 62 -63 62 6 0
55 -23 110 -51z m-449 -240 c37 -52 54 -58 190 -66 149 -10 137 -35 -22 -42
-58 -3 -63 -7 -30 -21 32 -14 24 -18 -40 -22 -79 -4 -79 -4 20 -16 117 -14
229 4 253 42 24 38 21 61 -6 44 -15 -9 -18 -5 -9 9 8 13 22 19 31 13 9 -5 22
4 28 20 19 49 53 34 53 -22 0 -72 -75 -174 -117 -158 -17 7 -25 6 -18 -2 26
-26 -29 -68 -87 -68 -75 0 -74 30 2 57 71 25 78 40 15 31 -112 -16 -313 -21
-305 -8 5 9 -4 27 -22 41 -17 14 -44 52 -60 83 -26 50 -33 54 -59 28 -38 -38
-37 -79 4 -158 31 -60 31 -62 0 -37 -18 16 -33 40 -33 54 0 40 -42 58 -62 27
-11 -18 -17 -19 -18 -5 0 13 21 49 47 80 25 32 63 100 85 153 l38 95 40 -47
c22 -26 59 -73 82 -105z m1103 -141 c-20 -20 -272 96 -318 145 -40 44 -21 39
140 -42 103 -51 183 -98 178 -103z m694 110 c69 -104 58 -113 -56 -45 -86 52
-89 58 -59 91 45 50 54 47 115 -46z m-538 -70 c54 -61 213 -201 353 -310 139
-109 261 -209 269 -223 9 -15 -1 -14 -26 5 -23 17 -97 68 -164 115 -242 170
-614 525 -549 525 10 0 62 -50 117 -112z m944 -8 c0 -86 -5 -100 -39 -100 -41
0 -38 79 7 165 28 53 32 44 32 -65z m-3154 0 c272 -92 558 -310 492 -375 -30
-31 -37 -31 -53 -5 -17 26 -19 25 -20 -3 0 -44 -192 -184 -231 -169 -103 39
-35 134 103 142 59 4 100 17 105 33 5 15 1 20 -8 12 -9 -9 -35 1 -58 22 -41
37 -169 87 -325 128 -63 16 -90 35 -108 79 -13 31 -28 53 -33 48 -16 -16 131
-291 228 -427 l90 -126 -47 -39 c-25 -21 -56 -39 -68 -39 -48 -2 -256 295
-238 342 6 16 3 52 -8 78 -17 44 -20 45 -21 8 0 -23 -9 -50 -18 -60 -9 -10
-29 -50 -43 -89 -32 -83 -196 -340 -218 -340 -76 0 -83 78 -16 183 77 121 215
418 213 460 -1 15 -64 -97 -140 -248 -77 -151 -146 -275 -155 -275 -29 0 -168
182 -158 206 49 121 415 461 514 479 89 17 100 16 221 -25z m2775 -105 c103
-27 116 -48 214 -347 77 -235 79 -269 8 -155 -43 70 -204 253 -317 362 -39 37
-45 55 -28 81 16 25 11 41 -21 70 l-42 37 50 -13 c28 -7 89 -23 136 -35z m624
-98 c0 -22 -8 -34 -19 -28 -40 25 50 -123 113 -184 36 -35 66 -79 66 -97 0
-23 12 -30 40 -22 22 6 40 2 40 -7 0 -10 14 -13 30 -6 17 6 30 1 30 -12 0 -13
9 -18 20 -11 11 7 30 -11 43 -39 13 -28 31 -51 40 -51 9 0 17 -20 17 -43 0
-24 14 -59 31 -78 28 -31 27 -35 -9 -44 -23 -6 -51 2 -64 17 -12 15 -31 28
-40 28 -20 0 -89 53 -135 105 -18 19 -41 35 -51 35 -11 0 -50 29 -87 65 l-66
64 4 -63 c3 -35 12 -59 20 -54 34 21 140 -107 134 -162 -10 -84 -83 -103 -147
-38 -50 50 -73 164 -27 136 15 -9 18 -5 9 9 -8 13 -22 19 -31 13 -29 -17 -40
46 -12 69 46 39 49 98 7 152 -50 63 -37 316 15 296 16 -6 29 -29 29 -50z
m-1794 13 c2 -11 -36 -22 -86 -25 -85 -5 -88 -4 -50 26 43 33 128 32 136 -1z
m798 -77 l114 -77 -52 -66 c-51 -64 -54 -65 -118 -38 -37 16 -85 28 -107 28
-46 0 -50 25 -19 122 12 37 25 80 30 95 10 32 10 32 152 -64z m1287 -53 c54 0
30 -42 -42 -72 -89 -37 -109 -24 -109 70 0 100 18 113 75 53 26 -28 60 -51 76
-51z m-1022 -176 c146 -78 239 -175 263 -273 13 -55 7 -52 -94 51 -74 75 -150
128 -240 167 -106 46 -131 65 -123 94 13 51 35 47 194 -39z m1324 -59 c8 -30
13 -71 12 -90 -1 -19 6 -40 17 -46 26 -16 -17 -69 -54 -69 -21 0 -28 33 -28
130 0 133 28 173 53 75z m418 -7 c15 -23 -16 -23 -80 2 -74 28 -66 63 9 37 33
-12 65 -29 71 -39z m301 -98 c131 -45 216 -76 188 -70 -27 6 -90 16 -140 23
-49 7 -103 23 -119 35 -22 16 -25 16 -14 -2 11 -18 -5 -18 -70 0 -52 16 -85
38 -88 59 -7 43 -37 49 243 -45z m88 -99 c0 -10 16 -21 35 -25 26 -6 16 -17
-36 -42 -69 -34 -251 1 -212 39 31 32 213 56 213 28z"/>




<path style="fill:url(#gradient3);" d="M3431 4330 c-25 -299 -4 -624 47 -736 23 -51 42 -101 42 -113 0 -12
8 -21 17 -21 9 0 27 -35 40 -79 13 -43 55 -142 93 -219 39 -77 70 -161 70
-185 0 -35 5 -40 24 -21 19 19 13 47 -27 129 -112 229 -256 837 -259 1095 -3
300 -28 379 -47 150z"/>

<path style="fill:url(#gradient3);" d="M4215 3504 c-110 -49 -92 -62 70 -50 134 10 419 -26 525 -65 31 -12
35 -9 17 10 -88 95 -483 163 -612 105z"/>
<path style="fill:url(#gradient3);" d="M4270 3321 c-66 -15 -150 -56 -150 -73 0 -6 11 -4 23 4 16 10 20 4
12 -17 -9 -24 6 -19 59 16 56 39 97 49 192 49 66 0 117 3 112 7 -19 17 -193
27 -248 14z"/>
<path style="fill:url(#gradient3);" d="M3920 2535 c0 -3 -8 -34 -19 -70 -24 -84 8 -85 37 -2 27 77 27 77 2
77 -11 0 -20 -2 -20 -5z"/>
<path style="fill:url(#gradient3);" d="M3545 1967 c-86 -35 -12 -46 295 -43 50 1 110 1 135 1 52 -1 60 25
13 43 -37 14 -407 13 -443 -1z"/>


<path style="fill:url(#gradient1);" d="M850 820 c-7 -11 4 -20 24 -20 40 0 242 -96 282 -135 15 -14 36 -25
48 -25 35 0 -65 68 -201 136 -144 73 -137 71 -153 44z"/>
<path style="fill:url(#gradient1);" d="M3790 5973 c22 -18 51 -32 64 -32 14 -1 41 -17 60 -37 20 -20 79 -53
131 -72 53 -20 107 -46 120 -59 76 -71 104 -84 60 -27 -91 120 -251 216 -405
245 -66 12 -68 11 -30 -18z"/>
<path style="fill:url(#gradient2);" d="M3531 5790 c-235 -117 -291 -175 -69 -71 95 44 230 95 300 113 161
41 168 48 46 47 -75 0 -140 -21 -277 -89z"/>



<path style="fill:url(#gradient3);" d="M2700 5239 c-12 -22 -32 -34 -44 -26 -13 7 -17 4 -9 -8 13 -21 -23
-68 -75 -100 -43 -25 -177 -284 -164 -316 7 -20 3 -26 -11 -17 -13 8 -18 3
-13 -14 5 -15 -21 -118 -58 -228 -157 -460 -144 -759 52 -1190 l41 -90 1 86
c0 48 -8 81 -18 75 -30 -18 -85 262 -96 489 -22 430 146 973 395 1284 63 79
70 96 40 96 -11 0 -29 -18 -41 -41z"/>


<path style="fill:url(#gradient1);" d="M2170 3795 c-8 -93 -10 -186 -6 -207 5 -21 16 50 25 158 9 108 11
201 5 206 -5 6 -16 -65 -24 -157z"/>
<path style="fill:url(#gradient1);" d="M2413 3825 c-19 -114 -15 -385 5 -385 10 0 19 104 21 230 3 238 -5
284 -26 155z"/>
<path style="fill:url(#gradient1);" d="M2032 2895 c44 -193 112 -415 131 -427 9 -5 11 5 3 24 -8 23 -5 30
10 21 32 -20 17 39 -53 204 -34 79 -67 175 -74 213 -8 39 -21 75 -30 80 -8 6
-3 -46 13 -115z"/>
<path style="fill:url(#gradient1);" d="M1229 2210 c8 -265 49 -443 140 -602 40 -71 24 6 -19 92 -50 98 -73
214 -101 490 l-27 280 7 -260z"/>
<path style="fill:url(#gradient1);" d="M1745 290 c60 -77 128 -174 153 -215 25 -41 55 -75 66 -75 12 0 6 20
-12 45 -18 25 -54 77 -79 115 -26 39 -90 115 -142 170 l-94 100 108 -140z"/>
<path style="fill:url(#gradient1);" d="M2980 40 c0 -9 -16 -21 -35 -25 -19 -4 12 -8 70 -8 57 0 102 2 100 4
-27 19 -135 43 -135 29z"/>
</g>
</svg>
