<?xml version="1.0" standalone="no"?>
<!DOCTYPE svg PUBLIC "-//W3C//DTD SVG 20010904//EN"
 "http://www.w3.org/TR/2001/REC-SVG-20010904/DTD/svg10.dtd">
<svg version="1.0" xmlns="http://www.w3.org/2000/svg"
 width="300.000000pt" height="300.000000pt" viewBox="0 0 300.000000 300.000000"
 preserveAspectRatio="xMidYMid meet">
<metadata>
Created by potrace 1.10, written by Peter Selinger 2001-2011
</metadata>
<defs>
  <linearGradient id="gradient1" x1="0%" y1="0%" x2="100%" y2="100%">
      <stop offset="0" style="stop-color:#9f2fff;stop-opacity:1"/>
      <stop offset="1" style="stop-color:#0bb1d3;stop-opacity:1"/>
    </linearGradient>
</defs>
<g fill="url(#gradient1)" transform="translate(0.000000,300.000000) scale(0.100000,-0.100000)"
 stroke="none">
<path d="M1565 2990 c-68 -10 -172 -46 -215 -74 -19 -13 -78 -43 -130 -68
-167 -80 -349 -231 -483 -400 -94 -119 -160 -235 -218 -381 -105 -268 -165
-349 -304 -407 -62 -25 -95 -33 -147 -34 -83 -1 -71 -18 26 -35 116 -20 262
-9 331 26 l30 16 -20 -23 c-38 -42 -93 -63 -157 -58 -32 2 -55 1 -51 -3 10
-10 120 -39 145 -39 10 0 18 -4 18 -9 0 -18 -99 -92 -166 -123 -57 -27 -80
-32 -145 -32 -42 -1 -75 -4 -73 -8 2 -3 27 -14 56 -24 107 -35 318 -17 358 32
22 25 25 15 22 -72 -4 -102 18 -188 73 -279 34 -56 85 -118 92 -112 1 2 -7 28
-18 58 -38 97 -26 274 26 412 4 9 3 17 -3 17 -5 0 -15 -20 -22 -45 -7 -25 -17
-45 -21 -45 -8 0 -5 29 7 68 2 6 -1 12 -6 12 -18 0 -32 -114 -27 -210 5 -75 4
-86 -4 -55 -10 38 -7 251 3 305 3 14 3 17 1 8 -8 -32 -25 -19 -20 15 2 17 1
39 -3 47 -14 27 1 64 34 86 l33 21 12 -32 c6 -17 11 -43 11 -58 0 -15 5 -27
11 -27 8 0 9 -28 3 -97 -13 -145 -10 -371 5 -422 16 -55 72 -183 78 -177 3 2
-9 35 -25 73 -39 89 -50 146 -58 298 -5 91 -4 125 4 125 7 0 12 -14 12 -31 0
-17 7 -58 15 -92 8 -34 21 -111 29 -172 14 -102 60 -277 86 -325 16 -30 5 -68
-41 -144 -21 -36 -39 -72 -39 -81 0 -11 -6 -15 -17 -11 -115 32 -182 50 -198
51 -11 1 -41 12 -68 24 -57 27 -131 29 -180 6 -56 -26 -227 -206 -227 -238 0
-7 12 4 27 23 46 59 155 170 188 190 47 29 102 34 160 15 99 -34 291 -165 268
-184 -4 -4 -33 -26 -63 -48 -30 -23 -65 -51 -76 -62 l-22 -20 -48 68 c-27 37
-67 102 -89 144 -22 41 -41 74 -43 72 -7 -7 81 -171 125 -233 l44 -62 -28 -25
c-15 -13 -31 -25 -34 -25 -7 0 -54 59 -98 122 -27 40 -31 54 -26 85 5 34 4 32
-14 -14 -23 -63 -73 -152 -108 -193 l-25 -30 -19 24 c-20 25 -20 25 6 64 33
50 138 282 131 289 -3 3 -14 -14 -24 -38 -39 -90 -103 -217 -127 -253 -14 -20
-25 -39 -25 -42 0 -3 11 -17 25 -32 14 -15 31 -39 38 -55 7 -16 20 -27 31 -27
19 0 18 1 -2 23 -28 30 -28 31 7 75 17 20 45 63 64 94 l34 57 48 -70 c26 -38
54 -73 62 -78 13 -7 9 -13 -19 -34 -18 -14 -54 -35 -78 -46 -38 -18 -41 -21
-19 -21 14 0 44 12 65 26 23 16 40 22 42 15 2 -7 13 -6 32 4 16 8 50 15 75 15
34 0 63 10 113 37 37 20 77 36 89 35 12 -1 25 3 28 8 3 6 -2 7 -12 4 -17 -5
-17 -5 0 6 16 10 24 7 53 -21 19 -18 34 -35 34 -38 0 -4 -25 -17 -55 -30 -77
-33 -63 -36 18 -4 l68 27 -43 43 c-35 35 -40 46 -28 53 8 5 11 12 7 16 -3 4
-12 2 -19 -3 -7 -6 -56 -34 -109 -62 -76 -40 -106 -51 -143 -51 -26 0 -61 -7
-79 -15 -31 -16 -31 -15 8 20 65 59 248 205 256 205 16 0 169 -164 211 -225
23 -35 49 -65 57 -65 9 0 10 4 4 13 -112 149 -156 197 -254 277 -61 49 -130
102 -155 116 -25 15 -43 28 -42 30 2 2 33 -6 68 -17 131 -41 327 -73 505 -84
146 -8 165 -13 165 -35 0 -15 10 -20 48 -25 126 -15 222 -39 277 -67 80 -41
244 -150 274 -182 14 -14 28 -26 33 -26 14 0 9 91 -8 126 -17 36 -79 92 -184
166 -36 25 -87 65 -114 89 -26 23 -60 44 -74 45 -14 2 -30 8 -36 14 -13 13 21
9 43 -4 9 -6 6 1 -5 16 -10 15 -21 22 -23 16 -4 -12 -41 21 -41 39 0 7 -7 13
-16 13 -9 0 -12 5 -8 12 4 6 3 8 -4 4 -12 -7 -79 71 -74 88 2 6 1 8 -3 4 -8
-8 -49 34 -73 74 -9 15 -22 30 -29 33 -26 9 86 -140 156 -209 38 -38 67 -74
64 -81 -3 -8 10 -18 31 -26 39 -14 42 -24 25 -63 -11 -24 -13 -24 -40 -11 -15
8 -34 15 -41 15 -7 0 -30 5 -51 11 -38 10 -48 24 -63 84 l-6 25 57 -20 c32
-11 62 -17 67 -14 12 7 -30 54 -49 54 -15 0 -70 69 -138 173 -27 42 -51 72
-53 67 -2 -5 4 -18 14 -27 9 -10 27 -41 40 -69 13 -29 28 -55 34 -59 6 -3 8
-11 5 -16 -4 -5 -1 -9 6 -9 7 0 10 -3 7 -6 -11 -10 -48 16 -48 34 0 12 -3 13
-8 5 -6 -10 -14 -9 -32 5 -14 9 -43 27 -65 39 -22 12 -39 27 -37 33 1 6 -2 9
-7 6 -13 -8 -64 53 -133 157 -58 89 -67 111 -48 122 5 3 10 -2 10 -13 0 -11
18 -46 41 -78 22 -33 54 -80 72 -106 17 -26 34 -45 38 -42 4 2 11 -1 15 -7 5
-8 3 -9 -6 -4 -9 5 -11 4 -6 -4 4 -6 11 -9 16 -6 4 3 15 -6 24 -20 9 -13 26
-29 37 -36 12 -6 -4 20 -37 59 -32 39 -70 86 -84 106 -14 20 -37 53 -52 73
-15 19 -39 61 -54 92 -14 31 -36 76 -49 101 -35 71 -64 165 -75 238 -25 173 2
553 54 767 61 250 172 486 298 638 22 26 45 44 50 40 7 -4 8 -1 3 7 -11 18 81
98 166 144 42 23 115 49 182 66 111 28 118 34 22 20z m-383 -214 c-195 -209
-359 -577 -422 -951 -17 -105 -29 -413 -19 -506 9 -75 29 -136 51 -150 5 -3
11 -12 12 -20 2 -8 8 -25 13 -39 9 -21 7 -27 -11 -37 -14 -8 -23 -25 -27 -55
-4 -23 -12 -74 -19 -113 -7 -38 -10 -92 -7 -120 6 -48 5 -49 -7 -20 -14 32
-39 140 -55 240 -16 94 -23 314 -10 292 6 -11 9 -29 6 -43 -2 -13 -1 -22 2
-20 3 2 6 -44 7 -102 1 -59 6 -118 13 -132 10 -21 11 -18 6 27 -5 43 -3 53 10
53 16 0 21 16 6 22 -5 2 -11 32 -15 68 -3 36 -3 58 1 50 7 -17 43 -57 43 -48
0 3 -14 37 -31 75 -141 310 -155 553 -48 846 50 137 97 225 206 385 45 68 83
125 83 128 0 3 -11 -5 -24 -18 -39 -37 -163 -235 -221 -353 -62 -128 -128
-320 -119 -348 4 -11 2 -17 -3 -14 -9 6 -97 -182 -90 -190 5 -5 67 124 67 139
0 7 5 20 10 28 7 10 9 -23 5 -103 -5 -132 -10 -144 -77 -188 -52 -35 -87 -42
-153 -30 -27 5 -42 9 -32 10 33 2 96 40 121 74 14 19 26 37 26 41 0 4 9 27 20
51 11 24 36 105 55 180 19 74 39 145 45 156 6 11 10 25 8 31 -3 7 -15 -15 -28
-48 -13 -32 -30 -70 -37 -83 -6 -14 -10 -28 -7 -33 6 -9 -67 -138 -78 -138
-12 0 -10 10 10 38 36 52 34 56 -4 12 -53 -61 -94 -102 -128 -128 -16 -12 -22
-22 -14 -22 8 0 40 23 71 51 31 28 57 46 57 40 0 -5 -4 -13 -10 -16 -5 -3 -10
-11 -10 -17 0 -13 44 35 71 77 11 17 19 23 19 14 0 -21 -40 -141 -53 -157 -36
-46 -171 -72 -312 -62 l-70 5 75 22 c187 56 252 132 374 437 31 76 72 166 93
200 91 152 262 346 385 438 69 52 204 135 222 137 4 1 -19 -28 -52 -63z m-411
-1062 c-5 -35 -9 -46 -10 -28 -1 34 9 97 15 91 2 -2 0 -30 -5 -63z m-14 -96
c-3 -7 -5 -2 -5 12 0 14 2 19 5 13 2 -7 2 -19 0 -25z m-289 -150 c-31 -45 -56
-69 -88 -85 -45 -22 -229 -67 -238 -58 -3 2 1 6 9 9 128 38 226 89 299 155 25
22 49 40 53 41 5 0 -11 -28 -35 -62z m39 -55 c-1 -38 4 -134 10 -215 9 -114
17 -160 36 -207 29 -72 20 -71 -23 3 -69 122 -93 253 -67 366 16 67 34 120 40
120 2 0 4 -30 4 -67z m151 -148 c0 -38 -1 -39 -8 -10 -4 17 -8 59 -7 95 l0 65
7 -55 c5 -30 8 -73 8 -95z m-218 111 c0 -2 -7 -7 -16 -10 -8 -3 -12 -2 -9 4 6
10 25 14 25 6z m-80 -31 c0 -12 -60 -27 -120 -31 l-65 -3 55 9 c30 5 66 13 80
19 28 11 50 14 50 6z m543 -485 c18 -41 53 -99 77 -129 31 -39 39 -56 30 -61
-9 -6 -7 -11 8 -19 25 -13 62 -72 62 -99 0 -25 -32 -34 -83 -23 -47 11 -87 37
-87 56 0 8 -4 15 -8 15 -16 0 -32 49 -23 72 5 13 11 48 15 78 6 52 6 53 -8 30
-14 -25 -15 -24 -19 25 -2 28 -3 10 -1 -40 l3 -90 -19 60 c-31 96 -52 253 -39
299 l11 39 23 -69 c13 -38 39 -103 58 -144z m-104 56 c-2 -19 0 -38 4 -42 4
-4 7 -19 7 -34 0 -52 41 -185 73 -239 36 -61 70 -86 128 -95 44 -7 44 -26 1
-27 -15 0 -21 -3 -14 -6 21 -8 13 -23 -13 -23 -14 0 -25 -4 -25 -8 0 -5 13 -7
29 -4 22 3 29 -1 34 -17 8 -33 -32 -54 -101 -52 -67 1 -143 11 -157 20 -5 3
-14 6 -20 7 -5 0 -16 2 -22 2 -20 3 -15 46 7 75 11 14 31 49 44 77 l24 51 18
-26 c55 -77 57 -79 130 -81 l69 -2 -67 7 c-38 4 -70 9 -72 12 -5 6 -60 90 -67
103 -3 6 -12 22 -19 35 -26 50 -25 301 1 301 6 0 9 -16 8 -34z m300 -287 c119
-79 151 -125 151 -219 0 -19 5 -42 10 -50 15 -24 12 49 -5 106 -13 44 -12 47
1 29 8 -11 22 -45 31 -76 15 -55 17 -57 57 -63 76 -12 138 -37 132 -53 -3 -8
-6 -21 -6 -29 0 -9 -4 -13 -8 -10 -18 11 -165 37 -190 34 -26 -3 -27 -3 -38
95 -8 69 -17 107 -31 125 -18 24 -119 107 -169 139 -11 6 -14 12 -8 12 7 1 39
-18 73 -40z m64 -102 c16 -15 30 -39 31 -52 0 -14 4 -25 9 -25 4 0 7 -11 7
-25 0 -19 -5 -25 -22 -26 -23 0 -23 0 -2 -9 12 -4 24 -18 27 -29 5 -20 2 -21
-41 -16 -26 3 -67 7 -92 9 -24 2 -46 8 -47 13 -2 6 12 23 31 38 39 31 62 86
45 110 -3 6 -9 25 -11 42 -4 32 -4 33 16 15 11 -9 33 -30 49 -45z m105 9 c20
-13 61 -35 91 -50 64 -33 61 -46 -4 -17 -26 12 -53 21 -59 21 -7 0 -27 16 -46
35 -40 41 -34 44 18 11z m-178 -41 c0 -14 -13 -39 -31 -57 -28 -30 -30 -31
-23 -9 22 80 54 119 54 66z m440 -117 c0 -2 -7 -21 -15 -43 -17 -47 -19 -68
-6 -61 5 4 12 24 16 46 4 22 11 40 16 40 4 0 29 -14 54 -32 l45 -32 -20 -21
c-11 -12 -20 -28 -20 -36 1 -10 5 -8 16 6 15 20 16 19 89 -19 85 -43 140 -99
150 -153 3 -19 4 -37 2 -39 -3 -3 -22 21 -44 52 -46 68 -107 105 -240 149 -48
16 -90 30 -91 31 -8 5 29 114 38 114 6 0 10 -1 10 -2z m165 -123 c22 -13 37
-25 33 -25 -9 0 -88 41 -88 46 0 9 17 3 55 -21z m74 -140 l24 -26 -26 12 c-15
7 -27 16 -27 21 0 4 -7 8 -15 8 -9 0 -18 7 -21 15 -4 8 -12 15 -19 15 -7 0
-19 7 -26 16 -22 27 83 -31 110 -61z"/>
<path d="M946 2527 c-58 -102 -82 -157 -127 -292 -27 -82 -48 -157 -45 -165 3
-12 4 -11 5 2 2 26 79 217 108 268 15 25 33 56 41 70 l14 25 -19 -24 c-39 -46
-31 -4 12 72 24 42 41 77 37 77 -4 0 -15 -15 -26 -33z"/>
<path d="M550 1685 c-7 -9 -11 -18 -8 -20 3 -3 11 1 18 10 7 9 11 18 8 20 -3
3 -11 -1 -18 -10z"/>
<path d="M485 1607 c-22 -22 -31 -35 -20 -29 23 12 70 60 64 65 -2 2 -22 -14
-44 -36z"/>
<path d="M833 930 c0 -36 2 -50 4 -32 2 17 2 47 0 65 -2 17 -4 3 -4 -33z"/>
<path d="M851 894 c0 -11 3 -14 6 -6 3 7 2 16 -1 19 -3 4 -6 -2 -5 -13z"/>
<path d="M925 750 c3 -25 -1 -44 -15 -65 -25 -38 -26 -53 0 -30 25 23 36 79
21 108 -10 19 -11 18 -6 -13z"/>
<path d="M787 785 c3 -49 10 -94 15 -100 10 -10 3 74 -13 150 -5 26 -6 9 -2
-50z"/>
<path d="M821 654 c-1 -33 5 -46 34 -74 36 -34 49 -32 18 3 -10 10 -26 40 -35
65 l-16 47 -1 -41z"/>
<path d="M792 554 c-16 -18 18 -88 51 -105 19 -10 19 -8 -5 18 -38 39 -36 60
2 32 16 -13 33 -20 37 -16 3 4 1 7 -5 7 -7 0 -24 17 -40 38 -23 32 -30 37 -40
26z"/>
<path d="M761 487 c-9 -16 -9 -30 -2 -50 14 -36 24 -34 16 3 -8 34 4 39 25 10
8 -11 19 -20 24 -20 5 0 0 10 -11 23 -11 12 -25 30 -30 40 -8 16 -10 16 -22
-6z"/>
<path d="M943 463 c9 -2 23 -2 30 0 6 3 -1 5 -18 5 -16 0 -22 -2 -12 -5z"/>
<path d="M724 436 c-4 -11 -2 -21 7 -27 18 -11 24 5 10 28 -9 17 -10 17 -17
-1z"/>
<path d="M870 446 c0 -8 71 -12 76 -4 3 4 -13 8 -35 8 -23 0 -41 -2 -41 -4z"/>
<path d="M935 420 l-70 -6 67 -2 c37 -1 70 3 73 8 3 6 5 9 3 8 -2 -1 -34 -4
-73 -8z"/>
<path d="M1290 341 c0 -5 -8 -11 -17 -13 -10 -2 7 -4 37 -4 30 0 73 -2 95 -6
l40 -7 -40 13 c-62 20 -115 28 -115 17z"/>
<path d="M1128 393 c7 -3 16 -2 19 1 4 3 -2 6 -13 5 -11 0 -14 -3 -6 -6z"/>
<path d="M1747 179 c7 -7 15 -10 18 -7 3 3 -2 9 -12 12 -14 6 -15 5 -6 -5z"/>
<path d="M1940 2976 c14 -7 41 -23 60 -34 19 -12 42 -25 50 -28 8 -4 30 -22
48 -41 17 -19 32 -29 32 -23 0 12 -79 90 -91 90 -4 0 -14 6 -21 13 -17 16 -65
37 -86 37 -12 0 -10 -4 8 -14z"/>
<path d="M1860 2928 c-49 -13 -190 -79 -190 -90 0 -5 17 0 38 10 104 53 161
72 215 72 22 0 37 3 34 6 -11 11 -59 12 -97 2z"/>
<path d="M2131 2884 c22 -23 24 -35 27 -137 4 -116 -4 -130 -28 -52 -7 22 -30
75 -51 117 -45 89 -59 97 -141 78 -120 -27 -221 -93 -350 -229 -76 -79 -94
-106 -156 -230 -118 -235 -158 -380 -172 -626 -14 -236 -14 -234 -24 -210 -16
40 -24 61 -39 100 -98 250 -43 621 128 865 41 59 47 70 41 70 -3 0 -28 -32
-55 -70 -27 -39 -51 -66 -53 -60 -2 6 -11 -4 -21 -22 l-19 -33 21 25 c28 35
26 22 -9 -49 -57 -114 -113 -299 -112 -366 1 -33 1 -80 2 -105 0 -84 53 -257
108 -360 38 -69 137 -216 185 -272 45 -55 165 -158 182 -158 5 0 -6 12 -25 27
-19 14 -72 64 -117 110 -64 65 -83 91 -83 113 0 44 21 53 141 58 60 3 109 8
109 13 0 5 -18 9 -40 9 -36 0 -40 2 -40 26 0 14 -5 34 -10 45 -19 34 16 22 76
-26 61 -50 80 -59 44 -20 -28 30 -13 33 24 4 14 -11 26 -16 26 -11 0 16 -41
46 -68 50 -15 2 -35 11 -45 20 -15 13 -35 16 -100 14 -45 -2 -83 -4 -84 -6 -2
-1 8 -9 22 -16 21 -11 29 -11 50 0 31 16 46 5 19 -14 -19 -14 -19 -15 4 -39
l23 -25 -68 -7 c-43 -4 -72 -13 -81 -24 -12 -15 -13 -14 -8 2 3 10 6 23 6 28
0 5 6 9 13 9 8 0 21 8 30 18 14 16 13 20 -19 52 -19 19 -34 29 -34 23 0 -6 6
-13 13 -16 10 -4 10 -7 0 -18 -16 -16 -17 -29 -2 -29 5 0 7 5 4 10 -3 6 -2 10
3 10 6 0 13 -7 16 -16 4 -11 -1 -18 -14 -21 -13 -4 -23 -17 -27 -34 -3 -16 -8
-29 -12 -29 -3 0 -19 22 -36 48 -30 47 -30 47 -29 192 2 108 8 171 24 245 12
55 24 114 27 130 2 17 8 39 13 50 5 11 11 37 15 58 3 20 10 37 15 37 6 0 10 9
10 19 0 11 5 23 10 26 6 3 10 11 10 16 0 6 -5 7 -10 4 -6 -4 -5 4 1 19 7 14
16 23 22 19 5 -3 6 3 2 17 -4 14 -3 20 3 16 11 -7 25 21 16 35 -3 5 2 16 10
25 9 9 14 20 11 25 -4 5 -2 9 3 9 5 0 17 18 27 40 10 22 23 40 28 40 6 0 8 3
4 6 -3 3 10 26 29 50 41 55 64 78 64 66 0 -5 -3 -12 -7 -16 -5 -4 -8 -11 -8
-14 -1 -18 -40 -112 -46 -112 -9 0 -25 -73 -43 -196 -16 -108 -12 -267 8 -334
20 -66 98 -228 103 -213 2 6 -7 34 -21 62 -40 78 -74 189 -81 266 -9 96 11
251 47 365 82 257 200 389 364 406 60 6 62 6 101 -29 21 -20 48 -53 58 -74 10
-21 25 -51 32 -66 8 -16 12 -31 8 -35 -4 -4 -10 -2 -12 5 -9 25 -46 64 -54 56
-4 -4 -10 -102 -14 -218 -4 -115 -13 -266 -21 -335 -16 -147 -30 -458 -19
-448 4 4 11 78 15 165 5 87 14 206 20 266 6 59 14 181 19 271 6 128 11 170 25
190 9 14 13 26 8 26 -5 0 -14 -10 -20 -22 -11 -23 -11 -23 -11 4 -1 15 7 34
17 44 16 16 17 16 20 1 2 -9 14 -20 27 -23 45 -11 64 -45 76 -134 9 -78 8
-119 -7 -255 -9 -83 -41 -197 -85 -301 -80 -195 -99 -256 -99 -320 0 -82 42
-242 87 -334 20 -41 39 -79 42 -85 8 -17 -83 58 -162 134 -43 42 -94 100 -114
129 -19 29 -41 56 -48 58 -39 15 -133 204 -161 320 -16 70 -21 238 -10 394 5
63 4 69 -5 40 -6 -19 -13 -129 -16 -245 -4 -169 -2 -218 10 -250 8 -22 20 -39
25 -38 6 2 14 -13 18 -32 3 -19 10 -35 15 -35 5 0 9 -6 9 -13 0 -7 15 -35 33
-63 43 -65 48 -79 34 -94 -8 -9 -9 -11 -1 -7 7 4 14 -2 17 -13 8 -31 -7 -24
-47 23 -56 64 -80 87 -91 87 -26 1 -74 59 -94 116 -32 93 -25 97 18 10 39 -76
70 -121 79 -112 2 3 -5 17 -16 33 -41 59 -106 188 -128 257 -17 50 -22 59 -18
31 3 -22 13 -58 21 -80 8 -22 14 -54 14 -72 -1 -18 5 -49 14 -69 8 -20 12 -40
9 -45 -3 -5 -1 -9 4 -9 5 0 12 -9 15 -20 3 -10 21 -27 41 -36 19 -10 33 -21
30 -25 -2 -4 1 -11 7 -15 8 -4 9 -3 5 4 -4 7 -3 12 3 12 6 0 28 -24 49 -52 35
-47 141 -148 156 -148 3 0 -6 16 -19 36 -24 35 -49 104 -41 112 2 2 29 -29 58
-70 63 -84 182 -200 260 -252 29 -20 56 -36 60 -36 3 0 -12 31 -34 69 -39 68
-101 238 -92 253 3 4 25 20 50 34 42 25 46 25 69 10 24 -16 28 -16 54 0 25 15
34 15 107 1 43 -8 70 -15 59 -16 -12 -1 -29 -17 -43 -41 -18 -32 -28 -40 -50
-40 -26 0 -28 2 -24 35 2 19 1 42 -2 51 -6 15 -9 14 -31 -6 -24 -23 -25 -23
-5 -37 11 -8 20 -20 20 -28 0 -11 -7 -12 -32 -4 -18 5 -46 9 -62 9 -28 0 -28
1 -12 19 15 16 15 22 5 40 -17 26 -39 10 -39 -29 0 -19 -6 -30 -17 -33 -10 -3
-1 -5 19 -6 71 -2 136 -23 143 -45 6 -18 8 -19 12 -3 5 20 43 23 62 4 11 -10
12 -8 7 8 -4 15 2 24 24 37 17 9 36 30 42 45 12 26 29 45 35 39 7 -7 -72 -205
-93 -233 -29 -38 -105 -93 -129 -93 -9 0 -13 -5 -9 -11 7 -12 94 -8 126 5 37
16 -28 -161 -90 -244 -53 -72 -301 -329 -334 -346 -27 -14 -34 -14 -81 2 -72
24 -190 80 -265 126 -34 21 -67 38 -72 38 -5 0 -14 8 -19 18 -23 42 -90 356
-79 368 2 2 38 -2 79 -10 110 -20 205 -28 193 -16 -6 6 -38 12 -73 15 -177 14
-262 42 -342 113 -54 48 -109 145 -115 205 -3 23 -14 80 -24 127 -14 60 -19
70 -15 35 16 -147 27 -209 41 -230 8 -12 12 -30 8 -39 -8 -20 89 -317 117
-356 14 -20 4 17 -26 95 -39 101 -85 238 -85 254 0 8 13 -6 29 -31 16 -25 45
-58 64 -72 33 -25 36 -33 42 -94 22 -229 79 -406 170 -532 28 -37 95 -99 95
-87 0 2 -20 25 -43 51 -80 87 -168 278 -171 373 0 24 -5 43 -9 43 -5 0 -6 4
-3 9 5 8 -8 106 -19 141 -7 23 20 34 45 18 13 -9 21 -29 25 -68 4 -30 16 -92
27 -138 11 -46 19 -85 16 -87 -2 -2 -16 30 -30 73 -15 42 -27 69 -27 59 -1
-24 65 -190 102 -257 48 -86 103 -165 138 -196 17 -16 40 -37 50 -46 30 -29
95 -66 130 -77 23 -6 27 -9 13 -10 -12 -1 -41 6 -64 14 -24 8 -45 13 -47 11
-8 -8 54 -35 95 -42 39 -6 41 -8 66 -78 14 -39 34 -98 45 -131 10 -33 22 -69
27 -79 6 -15 4 -17 -7 -11 -8 5 1 -5 19 -22 17 -17 32 -38 32 -47 0 -9 4 -16
9 -16 5 0 12 -8 14 -17 4 -17 5 -17 6 0 1 11 6 15 13 11 7 -4 8 -3 4 5 -4 6
-13 8 -19 4 -8 -4 -7 -1 1 9 11 14 8 21 -18 51 -16 19 -30 38 -30 42 0 3 -7
13 -15 22 -13 12 -15 38 -13 132 3 110 4 116 24 119 23 3 26 -8 40 -205 5 -57
11 -83 19 -83 7 0 15 -13 18 -29 4 -17 22 -41 47 -61 45 -35 47 -35 25 6 -8
16 -15 22 -15 14 0 -11 -5 -10 -19 5 -30 30 -64 217 -80 438 -2 31 -3 31 -12
8 -5 -14 -7 -37 -4 -53 6 -24 3 -28 -14 -28 -25 0 -25 2 -7 60 11 37 11 47 1
57 -18 16 -12 48 8 48 18 0 177 -132 177 -147 0 -5 6 -8 13 -6 6 1 54 -40 105
-91 l92 -93 0 -75 c0 -42 3 -74 6 -70 4 3 6 38 5 78 l-1 72 22 -17 c13 -9 41
-26 63 -37 22 -12 42 -23 44 -25 8 -7 -25 -38 -75 -70 -35 -22 -54 -42 -59
-61 -3 -15 -12 -31 -18 -35 -8 -5 -7 -8 4 -8 10 0 20 15 27 39 9 28 19 41 36
45 26 6 136 102 136 117 0 5 -8 9 -17 9 -41 1 -260 151 -248 170 3 5 -8 18
-25 30 -16 12 -30 18 -30 13 0 -4 -6 -1 -13 7 -24 31 -188 171 -212 182 -14 6
-25 15 -25 19 0 14 26 16 98 8 128 -14 239 19 309 93 33 35 53 104 83 293 l13
81 -38 49 c-46 62 -45 61 -45 47 0 -6 16 -31 36 -57 29 -39 34 -52 28 -78 -11
-56 -70 -173 -108 -214 -42 -47 -161 -109 -226 -118 l-45 -7 61 64 c155 161
197 226 230 350 10 35 24 71 32 81 15 16 17 16 43 -9 15 -15 30 -38 32 -53 2
-16 5 -9 6 18 0 24 -2 41 -6 38 -3 -4 -15 0 -25 10 -18 16 -18 17 7 43 22 23
23 26 6 26 -11 0 -18 -4 -15 -7 8 -14 -67 -62 -118 -76 -58 -14 -72 -11 -35 9
35 19 97 75 97 88 0 6 4 9 9 6 9 -6 51 52 51 70 0 5 -11 -9 -25 -31 -13 -22
-25 -35 -25 -30 0 6 4 15 9 20 15 16 61 165 61 196 0 16 3 29 8 29 10 0 8
-468 -2 -550 -19 -151 -69 -318 -124 -417 -29 -52 -94 -103 -131 -103 -19 0
-22 -3 -12 -9 35 -22 119 31 178 113 21 28 46 60 56 71 31 34 115 216 134 290
10 39 18 71 18 72 1 1 30 -2 66 -8 66 -11 162 2 176 24 4 6 -2 8 -15 5 -49
-13 -106 54 -137 161 -16 54 -40 263 -55 474 -26 372 -100 607 -240 760 -77
84 -94 94 -125 73 -22 -15 -23 -14 -34 30 -6 24 -19 52 -29 62 -15 15 -16 25
-9 53 5 18 7 65 4 104 l-5 70 45 -49 c41 -45 43 -52 40 -97 -1 -26 1 -45 5
-43 4 3 8 15 8 27 0 12 4 28 9 36 7 11 11 10 22 -7 7 -11 19 -18 26 -15 9 3
11 0 8 -10 -4 -8 1 -17 11 -21 15 -6 15 -4 3 10 -12 15 -12 17 0 13 8 -3 21
-15 29 -27 13 -20 13 -22 -7 -22 -13 0 -42 -13 -66 -30 -24 -16 -48 -30 -54
-30 -14 0 -23 -18 -12 -25 5 -3 25 8 43 23 18 16 50 35 70 41 35 12 40 10 82
-18 70 -48 115 -126 120 -206 1 -22 14 -60 28 -85 47 -80 59 -148 63 -355 l3
-190 -10 160 c-7 115 -15 174 -30 213 -23 61 -34 66 -13 6 18 -54 37 -261 37
-409 -1 -66 3 -124 7 -130 5 -5 14 -35 21 -65 24 -102 76 -153 156 -154 19 -1
34 -3 34 -5 0 -2 -11 -19 -26 -38 -28 -37 -72 -63 -124 -74 -34 -7 -34 -7 -5
-8 68 -2 135 49 180 137 20 40 15 50 -10 22 -22 -24 -74 -26 -115 -5 -31 16
-37 29 -20 40 15 9 55 74 67 110 6 17 15 39 19 50 7 17 3 16 -25 -7 -35 -30
-74 -35 -116 -16 -21 9 -25 18 -25 52 0 23 -3 52 -6 66 -4 20 -3 22 5 10 14
-20 15 327 1 425 -6 39 -26 103 -45 145 -18 41 -36 95 -40 120 -9 69 -47 143
-95 181 -23 19 -58 51 -78 73 -20 21 -55 49 -78 62 -22 13 -55 44 -73 70 -18
25 -44 50 -57 56 -13 6 -31 22 -39 35 -9 12 -21 23 -27 23 -6 0 -1 -12 13 -26z
m-99 -21 c28 -33 31 -48 5 -24 -15 13 -44 27 -64 31 l-38 8 41 1 c28 1 46 -5
56 -16z m53 -183 c3 -5 1 -10 -4 -10 -6 0 -11 5 -11 10 0 6 2 10 4 10 3 0 8
-4 11 -10z m236 -197 c85 -77 159 -207 207 -364 56 -182 88 -532 72 -769 -19
-275 -53 -418 -143 -597 -43 -85 -66 -107 -33 -31 80 182 118 520 98 886 -17
317 -46 451 -133 629 -46 92 -133 214 -152 210 -20 -4 -21 45 -1 60 27 20 40
16 85 -24z m17 -225 c52 -123 92 -275 99 -372 2 -39 9 -118 14 -175 5 -58 8
-110 5 -117 -3 -7 -14 -10 -26 -7 -13 3 -19 11 -16 19 6 16 -10 19 -19 5 -3
-6 -23 -9 -45 -8 -39 1 -39 1 -24 25 20 30 13 38 -11 12 -14 -16 -31 -20 -76
-20 -63 0 -158 -30 -181 -57 -12 -15 -11 -15 9 -5 12 7 26 11 30 10 4 -1 18 3
30 10 24 13 175 24 168 12 -3 -4 29 -11 70 -15 74 -7 97 -19 52 -27 -13 -3
-35 -1 -48 4 -13 5 -62 8 -109 7 -47 -2 -91 0 -97 4 -6 4 -22 3 -35 -1 -12 -5
-28 -7 -34 -5 -6 2 -19 -8 -29 -23 -14 -22 -19 -24 -26 -12 -25 45 5 289 34
271 6 -3 7 -1 3 5 -4 6 -2 19 4 29 21 37 82 201 100 271 11 40 22 77 25 82 3
6 30 11 58 12 43 1 46 2 15 5 -21 2 -38 9 -38 15 0 6 -6 6 -15 -2 -22 -18 -24
-12 -14 50 4 30 8 78 8 106 1 28 4 54 9 58 15 15 68 -65 110 -166z m92 -159
c56 -164 64 -238 64 -614 1 -192 -2 -336 -5 -320 -4 17 -7 139 -8 272 0 133
-6 289 -12 345 -13 120 -51 305 -79 386 -11 31 -20 59 -20 62 2 13 40 -72 60
-131z m-1289 -14 c-3 -33 -10 -55 -14 -48 -6 10 11 119 18 111 2 -2 0 -30 -4
-63z m1584 -519 c17 0 38 4 48 8 17 8 17 7 0 -30 -18 -40 -51 -84 -64 -84 -7
0 -24 38 -39 88 -8 30 -7 33 8 26 9 -4 31 -8 47 -8z m-335 -60 c0 -2 -8 -10
-17 -17 -16 -13 -17 -12 -4 4 13 16 21 21 21 13z m244 -201 c10 -94 43 -181
85 -225 32 -34 34 -39 18 -44 -16 -4 -147 10 -153 17 -2 2 3 45 11 97 8 52 15
129 15 170 1 86 14 78 24 -15z m-127 -67 c-3 -8 -6 -5 -6 6 -1 11 2 17 5 13 3
-3 4 -12 1 -19z m-116 -397 c-15 -64 -23 -79 -57 -108 -52 -44 -110 -62 -222
-69 -87 -6 -92 -5 -92 14 0 11 7 23 16 26 25 10 62 7 66 -5 2 -5 11 -7 22 -3
14 5 15 9 4 16 -9 7 -7 8 7 4 14 -4 38 5 68 24 26 16 51 30 55 30 9 0 100 89
127 123 11 14 20 25 21 24 1 -1 -6 -35 -15 -76z m54 -6 c-8 -22 -13 -29 -10
-15 3 14 9 41 13 60 4 23 8 28 10 15 1 -11 -4 -38 -13 -60z m-795 -162 c144
-69 194 -86 231 -81 30 5 31 4 25 -26 -4 -17 -9 -57 -13 -89 -6 -57 -7 -58
-32 -52 -26 6 -61 39 -115 109 l-28 38 -23 -22 -24 -22 -42 33 c-38 31 -139
169 -139 191 0 5 12 1 28 -10 15 -10 74 -41 132 -69z m445 -174 l40 -43 -55
48 c-76 68 -90 83 -55 58 17 -11 48 -40 70 -63z m-351 26 c9 -14 24 -37 33
-51 l17 -26 -35 19 c-77 42 -80 45 -62 65 21 24 28 23 47 -7z m178 -47 c-10
-22 -11 -21 -11 12 -1 26 2 31 11 22 8 -8 8 -17 0 -34z m319 -97 c-19 -12 211
-181 247 -181 7 0 10 -4 7 -10 -12 -20 -160 75 -247 158 -57 54 -70 87 -22 55
14 -9 21 -19 15 -22z m-353 10 c3 -8 -1 -12 -9 -9 -7 2 -15 10 -17 17 -3 8 1
12 9 9 7 -2 15 -10 17 -17z m0 -39 c2 -7 -2 -10 -12 -6 -9 3 -16 11 -16 16 0
13 23 5 28 -10z m-8 -45 c0 -5 -4 -5 -10 -2 -5 3 -10 14 -10 23 0 15 2 15 10
2 5 -8 10 -19 10 -23z"/>
<path d="M2362 2383 c7 -16 17 -35 24 -43 7 -8 23 -53 35 -100 13 -47 25 -78
27 -69 6 31 -73 238 -90 239 -4 0 -2 -12 4 -27z"/>
<path d="M2561 1304 c0 -11 3 -14 6 -6 3 7 2 16 -1 19 -3 4 -6 -2 -5 -13z"/>
<path d="M2245 2350 c-4 -12 -5 -24 -2 -27 3 -2 8 5 12 17 4 12 5 24 2 27 -3
2 -8 -5 -12 -17z"/>
<path d="M2264 2246 c-10 -8 -17 -16 -14 -19 3 -2 14 4 24 14 23 22 18 25 -10
5z"/>
<path d="M2240 2170 c8 -5 23 -10 33 -10 10 0 32 -7 48 -16 17 -8 33 -13 36
-10 9 9 -78 46 -107 46 -20 0 -22 -2 -10 -10z"/>
<path d="M2327 2101 c20 -22 38 -45 39 -53 1 -7 13 -47 27 -88 14 -41 27 -84
30 -95 5 -20 5 -20 6 0 1 27 -35 153 -50 171 -6 8 -9 14 -5 14 4 0 -1 11 -10
25 -15 23 -15 25 0 19 31 -12 16 4 -24 25 -55 28 -56 27 -13 -18z"/>
<path d="M2108 1749 c-21 -11 -38 -20 -38 -22 0 -1 57 -2 128 -3 102 -1 139
-5 187 -22 39 -14 53 -17 41 -7 -27 21 -208 75 -248 75 -18 -1 -50 -10 -70
-21z m102 1 c18 -12 2 -12 -25 0 -13 6 -15 9 -5 9 8 0 22 -4 30 -9z"/>
<path d="M2118 1655 c-26 -9 -50 -20 -53 -25 -4 -6 1 -7 12 -3 16 6 16 4 -2
-18 l-20 -24 25 21 c44 38 69 45 141 43 38 -1 72 1 76 4 3 4 -9 7 -28 7 -19 0
-50 2 -69 5 -19 2 -56 -2 -82 -10z"/>
<path d="M2358 1633 c6 -2 18 -2 25 0 6 3 1 5 -13 5 -14 0 -19 -2 -12 -5z"/>
<path d="M2600 1106 c0 -2 11 -11 25 -20 14 -9 25 -13 25 -8 0 5 -11 14 -25
20 -14 6 -25 10 -25 8z"/>
<path d="M2614 1065 c11 -8 24 -15 30 -15 5 0 1 7 -10 15 -10 8 -23 14 -29 14
-5 0 -1 -6 9 -14z"/>
<path d="M2665 1070 c3 -5 8 -10 11 -10 2 0 4 5 4 10 0 6 -5 10 -11 10 -5 0
-7 -4 -4 -10z"/>
<path d="M2698 1053 c7 -3 16 -2 19 1 4 3 -2 6 -13 5 -11 0 -14 -3 -6 -6z"/>
<path d="M1710 521 c0 -5 7 -15 17 -22 15 -13 15 -12 4 9 -12 23 -21 28 -21
13z"/>
<path d="M2200 406 c0 -2 8 -10 18 -17 15 -13 16 -12 3 4 -13 16 -21 21 -21
13z"/>
<path d="M1899 2812 c-85 -55 -172 -182 -182 -268 l-6 -49 15 50 c30 104 93
189 166 226 39 20 83 25 92 10 3 -5 18 -12 33 -16 16 -3 39 -16 53 -28 22 -20
23 -20 10 -2 -29 40 -105 105 -124 105 -7 0 -32 -13 -57 -28z m89 -4 c8 -10 0
-13 -37 -13 -40 0 -45 2 -32 12 21 16 56 16 69 1z"/>
<path d="M1163 2710 c-9 -16 -21 -30 -26 -30 -4 0 -6 -4 -3 -8 3 -5 -13 -42
-35 -83 -36 -67 -47 -64 -12 4 7 15 11 27 8 27 -13 0 -49 -91 -53 -135 -2 -27
-7 -51 -12 -53 -4 -2 -6 -13 -4 -25 2 -12 1 -16 -2 -9 -8 18 -41 -35 -66 -108
-46 -134 -75 -332 -82 -580 -6 -191 7 -179 18 16 13 248 38 434 73 539 10 28
17 53 18 57 0 7 15 24 15 17 0 -2 -7 -40 -15 -84 -19 -97 -36 -213 -36 -240 0
-11 -5 -23 -12 -27 -9 -5 -12 -79 -12 -285 1 -241 4 -295 23 -408 24 -137 40
-202 74 -298 32 -88 31 -62 -2 52 -32 111 -36 131 -21 116 14 -14 63 -213 56
-225 -3 -5 10 -40 29 -77 39 -75 43 -74 21 7 l-14 55 24 -30 c14 -16 25 -35
25 -40 0 -12 172 -191 238 -247 23 -20 52 -40 65 -43 12 -4 37 -15 55 -26 65
-38 29 -1 -50 51 -248 162 -413 423 -465 738 -14 87 -19 100 -23 72 -5 -27 -8
-16 -14 49 -5 56 -4 87 3 94 12 12 15 61 4 54 -9 -6 -8 252 1 338 3 33 9 85
12 115 3 30 9 78 15 105 5 28 11 68 14 89 2 22 18 81 36 133 17 51 28 97 25
102 -4 5 -2 11 3 13 5 1 36 58 69 126 58 118 72 154 35 92z m-146 -342 c-3 -8
-6 -5 -6 6 -1 11 2 17 5 13 3 -3 4 -12 1 -19z m-44 -1073 c4 -39 3 -50 -2 -30
-9 31 -14 102 -7 94 2 -2 6 -31 9 -64z"/>
<path d="M2295 2640 c-10 -11 -13 -20 -8 -20 13 0 38 29 31 35 -3 3 -13 -4
-23 -15z"/>
<path d="M2230 2641 c0 -5 5 -13 10 -16 6 -3 10 -2 10 4 0 5 -4 13 -10 16 -5
3 -10 2 -10 -4z"/>
<path d="M1904 2605 c-24 -18 -51 -19 -57 -2 -2 7 -8 8 -13 3 -5 -5 -4 -11 4
-13 6 -3 10 -9 7 -13 -8 -13 51 6 77 24 12 9 18 16 12 16 -6 0 -19 -7 -30 -15z"/>
<path d="M1976 2599 c-20 -86 -26 -117 -26 -143 0 -16 2 -27 5 -25 7 7 36 182
31 187 -3 2 -7 -6 -10 -19z"/>
<path d="M2220 2604 c0 -8 5 -12 10 -9 6 4 8 11 5 16 -9 14 -15 11 -15 -7z"/>
<path d="M1661 2580 c-13 -11 -19 -20 -13 -20 10 0 42 27 42 36 0 7 -4 5 -29
-16z"/>
<path d="M1787 2544 c-9 -33 -17 -71 -16 -85 0 -13 9 8 20 46 10 39 18 77 16
85 -1 8 -10 -12 -20 -46z"/>
<path d="M1127 2558 c-8 -18 -17 -50 -21 -71 -4 -21 -11 -35 -16 -32 -4 3 -6
-5 -2 -17 3 -13 1 -19 -5 -15 -7 5 -9 -1 -6 -15 3 -17 2 -19 -5 -9 -7 9 -16
-8 -35 -63 -14 -42 -22 -74 -18 -72 4 3 16 32 26 66 11 35 21 56 26 49 4 -7
16 14 29 50 16 43 28 61 40 61 18 0 113 79 95 79 -5 1 -25 -13 -44 -29 -40
-35 -65 -40 -57 -10 3 11 9 29 12 40 9 32 -4 23 -19 -12z"/>
<path d="M1695 2569 c-4 -6 -5 -12 -2 -15 2 -3 7 2 10 11 7 17 1 20 -8 4z"/>
<path d="M1221 2515 c-37 -60 -60 -119 -60 -150 0 -11 10 7 23 40 12 33 33 78
47 100 39 62 41 65 32 65 -5 0 -24 -25 -42 -55z"/>
<path d="M2092 2545 c0 -16 2 -22 5 -12 2 9 2 23 0 30 -3 6 -5 -1 -5 -18z"/>
<path d="M1676 2506 c-4 -21 -5 -40 -2 -43 7 -8 18 42 14 64 -3 11 -7 3 -12
-21z"/>
<path d="M2310 2535 c0 -3 25 -17 56 -32 31 -15 83 -51 116 -81 57 -53 83 -67
50 -27 -33 40 -110 95 -165 120 -31 13 -57 22 -57 20z"/>
<path d="M1320 2491 c0 -14 5 -19 15 -14 17 6 15 25 -3 31 -7 2 -12 -5 -12
-17z"/>
<path d="M1370 2487 c-12 -21 -12 -21 6 -7 10 8 20 15 22 16 2 1 -1 4 -5 7 -5
3 -15 -4 -23 -16z"/>
<path d="M1495 2480 c-3 -5 -1 -10 4 -10 6 0 11 5 11 10 0 6 -2 10 -4 10 -3 0
-8 -4 -11 -10z"/>
<path d="M2501 2475 c0 -11 4 -27 9 -35 9 -13 10 -13 9 0 0 8 -4 24 -9 35 -9
20 -9 20 -9 0z"/>
<path d="M1731 2464 c0 -11 3 -14 6 -6 3 7 2 16 -1 19 -3 4 -6 -2 -5 -13z"/>
<path d="M1602 2440 c-6 -11 -12 -22 -12 -25 0 -11 20 6 30 26 14 25 -2 25
-18 -1z"/>
<path d="M1641 2444 c0 -11 3 -14 6 -6 3 7 2 16 -1 19 -3 4 -6 -2 -5 -13z"/>
<path d="M1870 2450 c0 -5 5 -10 10 -10 6 0 10 5 10 10 0 6 -4 10 -10 10 -5 0
-10 -4 -10 -10z"/>
<path d="M1346 2435 c-3 -9 -6 -22 -5 -28 0 -7 5 -1 10 12 5 13 8 26 5 28 -2
2 -6 -3 -10 -12z"/>
<path d="M2153 2415 c0 -22 2 -30 4 -17 2 12 2 30 0 40 -3 9 -5 -1 -4 -23z"/>
<path d="M1206 2425 c-9 -26 -7 -32 5 -12 6 10 9 21 6 23 -2 3 -7 -2 -11 -11z"/>
<path d="M1907 2410 c3 -11 7 -20 9 -20 2 0 4 9 4 20 0 11 -4 20 -9 20 -5 0
-7 -9 -4 -20z"/>
<path d="M1274 2396 c-29 -22 -13 -26 21 -5 17 11 23 19 14 19 -8 0 -24 -6
-35 -14z"/>
<path d="M2111 2395 c0 -11 4 -29 9 -40 9 -20 9 -20 9 0 0 11 -4 29 -9 40 -9
20 -9 20 -9 0z"/>
<path d="M1471 2368 c-6 -18 -13 -71 -16 -118 l-4 -85 13 100 c8 55 17 108 21
118 4 9 5 17 2 17 -3 0 -10 -14 -16 -32z"/>
<path d="M1083 2361 c-33 -28 -28 -36 7 -11 16 12 35 18 41 14 8 -4 9 -3 5 4
-10 17 -27 14 -53 -7z"/>
<path d="M1652 2340 c0 -14 2 -19 5 -12 2 6 2 18 0 25 -3 6 -5 1 -5 -13z"/>
<path d="M2488 2325 c13 -26 72 -76 72 -62 0 6 -31 39 -59 62 l-24 20 11 -20z"/>
<path d="M2556 2310 c9 -37 56 -139 49 -108 -3 16 -16 52 -30 80 -14 29 -22
42 -19 28z"/>
<path d="M1716 2118 c-8 -149 -2 -282 14 -308 6 -9 7 14 4 60 -3 54 -2 69 6
55 7 -15 8 -11 4 18 -4 21 -9 102 -13 180 l-7 142 -8 -147z"/>
<path d="M1942 2065 c-1 -166 17 -397 32 -412 9 -10 7 74 -5 152 -6 39 -14
153 -18 255 l-8 185 -1 -180z"/>
<path d="M2161 2214 c0 -11 3 -14 6 -6 3 7 2 16 -1 19 -3 4 -6 -2 -5 -13z"/>
<path d="M2130 2139 c-7 -11 -10 -23 -7 -25 2 -2 9 7 15 21 14 30 7 33 -8 4z"/>
<path d="M1380 2073 c0 -16 -7 -108 -15 -206 -7 -98 -11 -186 -7 -195 3 -9 14
-26 25 -37 18 -20 18 -20 11 0 -6 16 -5 18 7 8 19 -19 95 -17 103 2 3 8 -8 35
-25 60 -16 24 -43 72 -59 107 -16 35 -29 55 -30 45 0 -22 54 -130 87 -174 l24
-33 -49 0 c-76 0 -86 17 -78 132 11 159 17 318 11 318 -3 0 -5 -12 -5 -27z"/>
<path d="M2092 2047 c-12 -27 -20 -52 -18 -54 6 -6 47 88 44 98 -2 4 -13 -16
-26 -44z"/>
<path d="M1085 1895 c-4 -48 -5 -89 -2 -91 2 -3 8 34 12 81 4 48 5 89 2 91 -2
3 -8 -34 -12 -81z"/>
<path d="M1207 1930 c-10 -86 -7 -201 7 -240 12 -30 13 -15 9 120 -5 180 -7
194 -16 120z"/>
<path d="M1745 1890 c3 -5 8 -10 11 -10 2 0 4 5 4 10 0 6 -5 10 -11 10 -5 0
-7 -4 -4 -10z"/>
<path d="M1750 1863 c5 -2 10 -15 10 -28 0 -13 4 -34 9 -47 5 -13 19 -57 31
-98 21 -71 109 -265 117 -257 2 2 -12 35 -31 73 -30 62 -110 289 -118 338 -2
11 -9 21 -16 22 -7 1 -8 0 -2 -3z"/>
<path d="M1410 1743 c0 -6 8 -17 18 -24 16 -13 16 -13 2 6 -8 11 -16 22 -17
24 -2 2 -3 0 -3 -6z"/>
<path d="M1420 1690 c-24 -8 -23 -8 8 -9 20 -1 31 3 27 9 -3 6 -7 10 -8 9 -1
-1 -13 -5 -27 -9z"/>
<path d="M1771 1630 c0 -8 8 -31 19 -50 24 -45 24 -28 0 25 -10 22 -19 33 -19
25z"/>
<path d="M1981 1624 c0 -11 3 -14 6 -6 3 7 2 16 -1 19 -3 4 -6 -2 -5 -13z"/>
<path d="M957 1520 c4 -14 7 -36 7 -50 1 -14 5 -28 9 -31 5 -4 15 -44 23 -90
26 -147 131 -415 195 -497 17 -22 18 -22 16 -3 -1 12 -4 21 -8 21 -10 0 -70
130 -64 139 3 5 -2 12 -11 15 -8 3 -12 10 -9 16 3 5 2 10 -4 10 -5 0 -15 26
-21 58 -7 31 -19 68 -27 80 -8 13 -12 26 -9 29 3 3 1 14 -5 25 -6 10 -19 54
-30 96 -11 42 -22 84 -26 92 -3 8 -8 26 -10 39 -2 14 -11 36 -19 50 l-15 26 8
-25z"/>
<path d="M1901 1523 c7 -12 15 -20 18 -17 3 2 -3 12 -13 22 -17 16 -18 16 -5
-5z"/>
<path d="M1445 1510 c-3 -5 -1 -10 4 -10 6 0 11 5 11 10 0 6 -2 10 -4 10 -3 0
-8 -4 -11 -10z"/>
<path d="M1016 1454 c8 -32 17 -71 20 -87 4 -15 10 -30 14 -32 4 -3 4 12 -2
33 -5 20 -14 57 -20 82 -5 25 -14 49 -18 54 -5 5 -2 -18 6 -50z"/>
<path d="M2303 1499 c14 -8 22 -8 30 0 8 8 3 11 -18 11 -26 -1 -28 -2 -12 -11z"/>
<path d="M1140 1484 c0 -6 7 -19 16 -30 14 -18 14 -18 3 6 -14 31 -19 36 -19
24z"/>
<path d="M1423 1443 c15 -2 39 -2 55 0 15 2 2 4 -28 4 -30 0 -43 -2 -27 -4z"/>
<path d="M1196 1385 c9 -14 19 -24 21 -21 6 6 -20 46 -30 46 -4 0 0 -11 9 -25z"/>
<path d="M844 1328 c3 -13 10 -45 15 -73 6 -27 12 -65 13 -82 1 -18 6 -33 10
-33 4 0 8 -9 8 -19 0 -32 49 -178 64 -190 12 -10 12 -5 0 30 -21 58 -11 60 17
2 13 -26 35 -62 49 -80 14 -18 36 -46 49 -63 13 -17 25 -29 28 -27 4 5 -18 46
-82 153 -72 119 -155 324 -155 385 0 10 -5 19 -10 19 -6 0 -8 -10 -6 -22z"/>
<path d="M1280 1296 c19 -21 44 -42 55 -48 11 -6 4 4 -15 23 -52 51 -80 69
-40 25z"/>
<path d="M2678 1290 c13 -6 31 -6 45 0 18 7 14 9 -23 9 -37 0 -41 -2 -22 -9z"/>
<path d="M1953 1235 c-6 -19 -8 -35 -3 -35 4 0 10 8 13 18 2 9 8 25 12 35 4 9
3 17 -2 17 -5 0 -14 -16 -20 -35z"/>
<path d="M1793 983 c-18 -2 -33 -7 -33 -11 0 -7 154 -9 220 -3 l35 3 -30 8
c-32 8 -138 10 -192 3z"/>
<path d="M1250 945 c0 -8 4 -15 10 -15 5 0 7 7 4 15 -4 8 -8 15 -10 15 -2 0
-4 -7 -4 -15z"/>
<path d="M1271 915 c0 -5 6 -21 14 -35 8 -14 14 -20 14 -15 0 6 -6 21 -14 35
-8 14 -14 21 -14 15z"/>
<path d="M1483 832 c22 -24 164 -122 179 -122 5 0 3 7 -6 15 -8 8 -19 15 -24
15 -6 0 -12 3 -14 8 -5 11 -115 92 -135 99 -17 6 -17 5 0 -15z"/>
<path d="M1479 482 c38 -49 136 -134 219 -191 31 -21 66 -48 76 -60 11 -11 23
-21 28 -21 25 0 78 -87 89 -145 6 -33 7 -29 5 22 -2 42 -8 69 -19 81 -10 10
-17 22 -17 25 0 4 -8 15 -17 25 -10 11 -47 49 -82 86 -56 58 -63 70 -53 86 9
15 7 21 -13 34 -14 9 -25 12 -25 7 0 -6 8 -14 17 -20 10 -5 15 -13 11 -17 -4
-4 -14 -1 -23 6 -8 7 -15 8 -15 4 0 -13 77 -104 114 -136 17 -14 29 -29 26
-32 -3 -3 -22 9 -41 27 -19 18 -46 40 -60 50 -13 9 -38 27 -55 40 -62 44 -115
98 -108 109 5 7 3 8 -6 3 -7 -4 -15 -4 -19 1 -3 5 -19 20 -36 34 l-29 25 33
-43z"/>
<path d="M1606 457 c3 -10 9 -15 12 -12 3 3 0 11 -7 18 -10 9 -11 8 -5 -6z"/>
<path d="M430 413 c8 -3 22 -11 30 -17 13 -10 13 -9 1 7 -7 9 -21 17 -30 16
-13 0 -14 -1 -1 -6z"/>
<path d="M484 393 c2 -5 22 -17 43 -28 21 -10 47 -26 58 -35 18 -14 19 -14 6
2 -7 9 -32 29 -56 43 -44 25 -60 31 -51 18z"/>
<path d="M1737 393 c-4 -3 -7 -13 -7 -22 1 -13 3 -13 11 2 11 19 8 33 -4 20z"/>
<path d="M1781 394 c2 -5 17 -44 33 -87 16 -43 31 -75 34 -72 7 7 -48 154 -60
161 -6 4 -9 3 -7 -2z"/>
<path d="M600 379 c26 -18 70 -40 70 -35 0 6 -66 46 -76 46 -5 0 -2 -5 6 -11z"/>
<path d="M1934 265 c0 -60 1 -84 3 -52 2 32 2 81 0 110 -2 29 -3 3 -3 -58z"/>
<path d="M370 356 c0 -2 11 -6 25 -8 13 -3 22 -1 19 3 -5 9 -44 13 -44 5z"/>
<path d="M349 275 c29 -55 91 -139 91 -123 0 7 -106 167 -117 177 -3 3 8 -21
26 -54z"/>
<path d="M458 323 c7 -3 16 -2 19 1 4 3 -2 6 -13 5 -11 0 -14 -3 -6 -6z"/>
<path d="M672 324 c10 -9 191 -13 233 -4 28 5 0 8 -99 9 -77 0 -137 -2 -134
-5z"/>
<path d="M930 309 c-14 -6 -68 -13 -120 -17 -72 -5 -85 -8 -55 -12 22 -3 76 0
120 7 89 14 105 11 48 -7 -21 -7 -42 -17 -48 -22 -12 -12 7 -7 110 28 64 23
66 24 25 19 -32 -4 -41 -2 -30 5 12 8 12 10 -5 9 -11 0 -31 -5 -45 -10z"/>
<path d="M1065 310 c25 -44 101 -133 142 -170 46 -39 47 -41 18 -34 -64 14
-193 58 -254 85 -35 16 -66 27 -69 24 -14 -14 244 -109 331 -121 23 -3 56 -10
72 -14 17 -5 46 -11 66 -14 29 -5 40 -13 49 -36 15 -37 33 -40 20 -4 -6 14
-10 27 -10 29 0 7 87 -17 129 -36 24 -10 46 -18 48 -15 10 9 -112 50 -216 72
-99 21 -121 30 -151 57 -46 43 -105 108 -105 117 0 3 -18 22 -39 41 -22 19
-36 27 -31 19z"/>
<path d="M2369 301 c24 -19 82 -49 181 -95 54 -25 54 -26 17 -20 -26 3 -37 2
-32 -5 3 -6 17 -11 31 -11 13 0 24 -4 24 -8 0 -14 -33 -40 -70 -56 l-35 -15
35 -1 c42 0 128 -22 185 -45 l39 -17 -24 -14 c-17 -9 -20 -13 -9 -14 9 0 59
20 112 45 53 25 104 45 112 45 35 0 2 18 -44 24 -27 4 -98 22 -157 41 -60 19
-110 32 -112 30 -6 -5 104 -44 176 -61 37 -9 74 -18 82 -21 9 -3 -10 -15 -45
-30 -33 -14 -65 -29 -71 -34 -6 -5 -28 0 -53 13 -38 19 -41 22 -25 32 11 6 47
10 82 11 58 0 61 1 35 12 -15 7 -50 13 -78 13 -27 1 -66 7 -85 13 -29 10 -35
16 -32 37 2 22 -6 29 -85 65 -49 21 -105 49 -125 62 -45 27 -63 30 -29 4z
m279 -184 c36 -11 41 -15 29 -25 -21 -17 -123 8 -105 26 15 15 22 15 76 -1z"/>
<path d="M1110 297 c37 -39 147 -91 285 -136 166 -54 223 -76 338 -128 43 -19
80 -33 83 -31 10 11 -208 102 -371 156 -175 58 -257 92 -320 135 -18 12 -24
14 -15 4z"/>
<path d="M2141 274 c0 -11 3 -14 6 -6 3 7 2 16 -1 19 -3 4 -6 -2 -5 -13z"/>
<path d="M2246 271 c-4 -5 3 -7 14 -4 23 6 26 13 6 13 -8 0 -17 -4 -20 -9z"/>
<path d="M620 234 c-64 -50 -73 -62 -19 -26 26 17 49 28 53 25 3 -4 6 -1 6 5
0 7 7 12 15 12 8 0 15 -4 15 -9 0 -5 8 -12 17 -15 13 -5 11 0 -6 18 -14 15
-27 26 -30 25 -3 0 -26 -16 -51 -35z"/>
<path d="M825 259 c33 -54 257 -259 284 -259 10 0 4 10 -19 27 -19 15 -60 51
-90 80 l-55 53 61 -29 c33 -17 83 -35 110 -42 33 -8 62 -24 89 -50 45 -43 72
-54 35 -14 l-24 26 37 -16 c20 -8 50 -15 66 -15 16 0 33 -5 36 -10 3 -6 11
-10 17 -10 26 0 -25 37 -52 38 -16 0 -47 6 -67 13 -21 6 -44 13 -51 15 -7 2
-11 8 -8 12 3 5 -17 14 -44 20 -86 20 -214 74 -243 103 -36 37 -93 77 -82 58z"/>
<path d="M2190 259 c0 -5 5 -7 10 -4 6 3 10 8 10 11 0 2 -4 4 -10 4 -5 0 -10
-5 -10 -11z"/>
<path d="M1140 247 c0 -2 26 -20 58 -39 57 -36 138 -68 170 -68 9 0 29 -7 44
-14 15 -8 30 -11 33 -7 2 5 -23 16 -58 26 -49 13 -147 56 -239 103 -5 2 -8 2
-8 -1z"/>
<path d="M790 236 c0 -4 19 -27 42 -52 40 -43 94 -112 129 -164 9 -14 20 -22
23 -19 7 7 -66 112 -115 165 -45 49 -79 79 -79 70z"/>
<path d="M2161 214 c0 -11 3 -14 6 -6 3 7 2 16 -1 19 -3 4 -6 -2 -5 -13z"/>
<path d="M0 213 c1 -9 68 -83 75 -83 12 0 3 18 -27 53 -31 35 -48 46 -48 30z"/>
<path d="M271 214 c-1 -11 87 -124 96 -124 3 0 -13 22 -34 49 -21 27 -43 57
-50 67 -6 11 -12 14 -12 8z"/>
<path d="M2080 190 c0 -5 5 -10 10 -10 6 0 10 5 10 10 0 6 -4 10 -10 10 -5 0
-10 -4 -10 -10z"/>
<path d="M2627 159 c7 -7 15 -10 18 -7 3 3 -2 9 -12 12 -14 6 -15 5 -6 -5z"/>
<path d="M1570 137 c47 -12 102 -32 123 -44 50 -30 48 -20 -3 12 -22 14 -72
32 -111 40 -102 22 -108 17 -9 -8z"/>
<path d="M0 120 c0 -23 41 -66 88 -94 22 -13 -4 29 -31 51 -12 10 -30 29 -40
43 l-17 24 0 -24z"/>
<path d="M149 123 c-13 -16 -12 -17 4 -4 9 7 17 15 17 17 0 8 -8 3 -21 -13z"/>
<path d="M830 72 c0 -7 -7 -12 -15 -12 -8 0 -38 -11 -66 -24 -45 -22 -60 -24
-132 -20 -45 3 -111 1 -147 -4 -54 -8 -32 -9 125 -10 105 0 182 2 173 5 -30 8
-20 22 22 33 39 10 58 26 46 37 -3 4 -6 1 -6 -5z"/>
<path d="M1218 73 c6 -2 18 -2 25 0 6 3 1 5 -13 5 -14 0 -19 -2 -12 -5z"/>
<path d="M1575 40 c50 -22 101 -39 115 -39 14 0 -19 17 -75 39 -130 51 -156
51 -40 0z"/>
<path d="M1 54 c0 -11 3 -14 6 -6 3 7 2 16 -1 19 -3 4 -6 -2 -5 -13z"/>
<path d="M2375 60 c-4 -6 11 -10 37 -11 24 0 71 -6 106 -12 50 -10 60 -15 50
-25 -6 -6 -7 -12 -2 -12 6 0 15 5 21 11 8 8 17 8 32 -1 12 -6 27 -10 34 -7 19
6 -95 45 -165 57 -79 13 -105 13 -113 0z"/>
<path d="M1160 49 c0 -14 39 -49 53 -49 6 0 -2 13 -18 30 -32 33 -35 35 -35
19z"/>
<path d="M2240 40 l-25 -8 27 -1 c15 -1 30 4 33 9 7 11 0 11 -35 0z"/>
<path d="M1004 15 c11 -8 29 -15 40 -15 19 1 19 2 -4 15 -35 20 -62 19 -36 0z"/>
<path d="M1510 15 c14 -8 32 -14 40 -14 8 0 0 6 -19 14 -42 19 -54 19 -21 0z"/>
<path d="M2022 15 c-11 -13 -10 -15 7 -15 14 0 19 5 15 15 -7 18 -6 18 -22 0z"/>
<path d="M2110 20 c0 -5 7 -7 15 -4 8 4 15 8 15 10 0 2 -7 4 -15 4 -8 0 -15
-4 -15 -10z"/>
<path d="M2228 8 c5 -5 16 -8 23 -6 8 3 3 7 -10 11 -17 4 -21 3 -13 -5z"/>
</g>
</svg>
