<!-- icon666.com - MILLIONS OF FREE VECTOR ICONS --><svg viewBox="0 0 496 496" xmlns="http://www.w3.org/2000/svg" xmlns:xlink="http://www.w3.org/1999/xlink"><linearGradient id="a" gradientUnits="userSpaceOnUse" x1="248" x2="248" y1="496" y2="0"><stop offset="0" stop-color="#9f2fff"/><stop offset="1" stop-color="#0bb1d3"/></linearGradient><path d="m256 272h-16v-16h16zm24-64v-16c0-17.648438-14.351562-32-32-32s-32 14.351562-32 32v32h96v112h-128v-112h16v-32c0-26.472656 21.527344-48 48-48s48 21.527344 48 48v16zm-80 32v80h40v-32h16v32h40v-80zm12.246094-156.34375-15.453125 4.144531 4.144531 15.457031 15.453125-4.144531zm-41.316406 14.847656-13.859376 8 8 13.855469 13.859376-8zm-36.066407 25.039063-11.320312 11.3125 11.3125 11.320312 11.320312-11.3125zm-14.503906 41.527343-13.855469-8-8 13.859376 13.855469 8zm-36.703125 47.167969 15.457031 4.144531 4.144531-15.453124-15.457031-4.144532zm200.097656 200.105469 15.453125-4.144531-4.144531-15.457031-15.453125 4.144531zm41.316406-14.847656 13.859376-8-8-13.855469-13.859376 8zm36.066407-25.039063 11.320312-11.3125-11.3125-11.320312-11.320312 11.3125zm14.503906-41.527343 13.855469 8 8-13.859376-13.855469-8zm36.703125-47.167969-15.457031-4.144531-4.144531 15.453124 15.457031 4.144532zm67.65625-187.761719h16v-16h-16zm-16 24h-16v16h16zm-16 64h16v-16h-16zm32 48h16v-16h-16zm-480 184h16v-16h-16zm32-40h16v-16h-16zm80-128c0 5.238281.335938 10.601562.992188 16h-80.992188v16h99.992188l-1.808594-9.496094c-1.449219-7.632812-2.183594-15.199218-2.183594-22.503906 0-66.167969 53.832031-120 120-120 39.703125 0 76.792969 19.625 99.207031 52.503906l2.386719 3.496094h82.40625v-16h-74.03125c-14.199219-19.496094-33.082031-34.566406-54.503906-44.144531l27.847656-27.855469h17.375l40 40h43.3125v-16h-36.6875l-24-24h92.6875v-16h-139.3125l-37.71875 37.71875c-12.488281-3.734375-25.59375-5.71875-38.96875-5.71875-74.992188 0-136 61.007812-136 136zm272 0c0-5.238281-.335938-10.601562-.992188-16h80.992188v-16h-99.992188l1.808594 9.496094c1.449219 7.632812 2.183594 15.199218 2.183594 22.503906 0 66.167969-53.832031 120-120 120-39.703125 0-76.792969-19.625-99.207031-52.503906l-2.386719-3.496094h-82.40625v16h74.03125c14.199219 19.496094 33.082031 34.566406 54.503906 44.144531l-27.847656 27.855469h-17.375l-40-40h-43.3125v16h36.6875l24 24h-92.6875v16h139.3125l37.71875-37.71875c12.488281 3.734375 25.59375 5.71875 38.96875 5.71875 74.992188 0 136-61.007812 136-136zm-336 64h-16v16h16zm-48-32h16v-16h-16zm101.121094-167.566406c-32.945313 35.671875-53.121094 83.292968-53.121094 135.566406h16c0-101.464844 82.542969-184 184-184v-16c-52.273438 0-99.894531 20.175781-135.566406 53.121094l-16.433594-16.433594v-36.6875h-16v32h-16v-48h-16v48h-16v-80h-16v80h-16v16h84.6875zm378.878906 287.566406h-16v80h-16v-48h-16v48h-16v-32h-16v32h-12.6875l-52.066406-52.0625c66.683594-32.472656 112.753906-100.921875 112.753906-179.9375h-16c0 101.464844-82.542969 184-184 184v16c25.167969 0 49.238281-4.71875 71.449219-13.238281l61.238281 61.238281h115.3125v-16h-16zm0 0" fill="url(#a)"/></svg>