<!-- icon666.com - MILLIONS OF FREE VECTOR ICONS -->
<svg viewBox="0 0 64 64" xmlns="http://www.w3.org/2000/svg" xmlns:xlink="http://www.w3.org/1999/xlink">
<linearGradient id="linear-gradient" gradientUnits="userSpaceOnUse" x1="32" x2="32" y1="8" y2="56">
  <stop offset="0" stop-color="#4800bd"/>
  <stop offset="1" stop-color="#e39f00"/>
  </linearGradient><g id="Layer_32" data-name="Layer 32"><path d="m62 10h-3v-1a1 1 0 0 0 -1-1h-4a1 1 0 0 0 -1 1v1h-18v-1a1 1 0 0 0 -1-1h-4a1 1 0 0 0 -1 1v1h-18v-1a1 1 0 0 0 -1-1h-4a1 1 0 0 0 -1 1v1h-3a1 1 0 0 0 -1 1v4a1 1 0 0 0 1 1h3v39a1 1 0 0 0 1 1h24a1 1 0 0 0 1-1v-35h2v35a1 1 0 0 0 1 1h24a1 1 0 0 0 1-1v-39h3a1 1 0 0 0 1-1v-4a1 1 0 0 0 -1-1zm-51 6h18v2h-18zm18-4v2h-18v-2zm-20-2v9a1 1 0 0 0 1 1h19v2.358a12.991 12.991 0 0 0 0 25.284v2.358h-22v-40zm20 14.42v21.16a11 11 0 0 1 0-21.16zm-26-10.42v-2h2v2zm4 40v-2h22v2zm26-36h-2v-8h2zm22 1v-9h2v40h-22v-2.358a12.991 12.991 0 0 0 0-25.284v-2.358h19a1 1 0 0 0 1-1zm-20-3h18v2h-18zm0 29.58v-21.16a11 11 0 0 1 0 21.16zm18-33.58v2h-18v-2zm-18 42v-2h22v2zm26-40h-2v-2h2z" fill="url(#linear-gradient)"/></g></svg>