<?xml version="1.0" standalone="no"?>
<!DOCTYPE svg PUBLIC "-//W3C//DTD SVG 20010904//EN"
 "http://www.w3.org/TR/2001/REC-SVG-20010904/DTD/svg10.dtd">
<svg version="1.0" xmlns="http://www.w3.org/2000/svg"
 width="512.000000pt" height="512.000000pt" viewBox="0 0 512.000000 512.000000"
 preserveAspectRatio="xMidYMid meet">
<metadata>
Created by potrace 1.10, written by Peter Selinger 2001-2011
</metadata>
<g transform="translate(0.000000,512.000000) scale(0.100000,-0.100000)"
fill="#000000" stroke="none">
<path d="M724 5024 c-54 -19 -118 -75 -152 -132 -24 -41 -27 -57 -27 -132 0
-74 3 -91 27 -131 34 -57 87 -105 144 -130 l44 -18 0 -463 c0 -255 4 -468 8
-474 20 -30 55 -34 326 -34 l276 0 0 -290 0 -290 -365 0 -365 0 0 93 c0 135
17 127 -283 127 -243 0 -246 0 -261 -22 -13 -19 -16 -61 -16 -260 0 -225 1
-239 20 -258 19 -19 33 -20 263 -20 294 0 277 -8 277 128 l0 92 365 0 365 0 0
-290 0 -290 -276 0 c-271 0 -306 -4 -326 -34 -4 -6 -8 -219 -8 -474 l0 -463
-44 -18 c-57 -25 -110 -73 -144 -130 -24 -40 -27 -57 -27 -131 0 -75 3 -91 27
-132 99 -167 310 -198 443 -65 81 82 105 184 68 293 -22 63 -104 147 -161 165
l-42 12 0 424 0 423 245 0 245 0 0 -25 c0 -94 114 -189 292 -243 393 -122
1013 -96 1308 53 99 51 160 123 160 191 l0 24 245 0 245 0 0 -420 0 -419 -55
-26 c-181 -86 -221 -311 -80 -452 79 -78 173 -100 285 -67 72 21 150 98 175
173 21 64 17 159 -9 210 -29 56 -89 113 -143 137 l-53 24 0 462 c0 255 -4 468
-8 474 -20 30 -55 34 -326 34 l-276 0 0 290 0 290 365 0 365 0 0 -93 c0 -135
-17 -127 278 -127 229 0 243 1 262 20 19 19 20 33 20 260 0 227 -1 241 -20
260 -19 19 -33 20 -263 20 -294 0 -277 8 -277 -128 l0 -92 -365 0 -365 0 0
290 0 290 276 0 c271 0 306 4 326 34 4 6 8 219 8 474 l0 462 53 24 c64 28 129
99 151 163 36 106 11 209 -69 290 -113 112 -278 112 -391 -1 -139 -140 -99
-365 81 -451 l55 -26 0 -419 0 -420 -245 0 -245 0 0 24 c0 68 -61 140 -160
191 -343 174 -1097 174 -1440 0 -99 -51 -160 -123 -160 -191 l0 -24 -245 0
-245 0 0 423 0 424 42 12 c57 18 139 102 161 165 37 109 13 211 -68 293 -78
77 -189 103 -291 67z m138 -114 c21 -6 51 -27 72 -50 33 -37 36 -45 36 -100 0
-55 -3 -63 -36 -100 -65 -72 -157 -75 -223 -6 -60 62 -60 150 0 213 29 29 69
49 104 52 6 1 26 -4 47 -9z m2858 0 c46 -13 99 -68 110 -114 25 -111 -81 -216
-187 -186 -76 21 -113 72 -113 152 0 53 3 62 36 98 31 34 71 56 109 59 6 1 26
-4 45 -9z m-1100 -1075 c184 -33 351 -100 379 -153 37 -70 -207 -172 -481
-202 -54 -5 -174 -10 -268 -10 -94 0 -214 5 -268 10 -202 22 -414 91 -471 153
-23 25 -23 27 -7 51 45 69 250 139 482 166 126 14 523 5 634 -15z m-1031 -389
c349 -140 1019 -136 1345 8 32 14 62 26 67 26 5 0 9 -78 9 -174 0 -161 -2
-175 -21 -200 -41 -53 -171 -103 -359 -139 -159 -30 -578 -32 -740 -3 -187 33
-338 89 -379 142 -19 25 -21 39 -21 200 0 96 3 174 6 174 4 0 45 -16 93 -34z
m-1069 -576 l0 -161 -157 3 -158 3 -3 145 c-1 79 0 150 2 157 4 10 43 13 161
13 l155 0 0 -160z m3775 0 l0 -155 -157 -3 -158 -3 0 161 0 161 158 -3 157 -3
0 -155z m-2729 54 c78 -35 255 -79 379 -95 55 -7 192 -13 305 -13 113 0 250 6
305 13 125 16 308 62 381 95 31 14 61 26 66 26 6 0 8 -71 6 -179 -3 -207 -2
-202 -102 -251 -248 -121 -790 -147 -1149 -56 -115 29 -218 77 -246 113 -19
24 -21 39 -21 199 0 96 4 174 9 174 5 0 35 -12 67 -26z m-5 -528 c165 -76 382
-110 689 -110 307 0 524 34 689 110 29 13 55 24 57 24 2 0 4 -80 4 -178 0
-191 0 -192 -55 -229 -42 -29 -189 -79 -282 -97 -203 -38 -495 -44 -728 -15
-157 19 -301 64 -388 119 l-47 30 0 185 c0 102 2 185 4 185 2 0 28 -11 57 -24z
m-654 -1289 c46 -31 63 -67 63 -131 0 -52 -3 -60 -37 -97 -66 -70 -157 -72
-222 -5 -60 62 -60 150 0 213 56 57 130 64 196 20z m2813 23 c20 -5 51 -25 69
-44 60 -62 60 -151 0 -212 -66 -69 -158 -66 -223 6 -33 36 -36 46 -36 98 0 77
37 130 105 151 40 12 45 12 85 1z"/>
<path d="M1650 3250 c-62 -62 17 -118 191 -137 51 -5 58 -3 73 18 40 58 14 85
-113 115 -124 29 -126 29 -151 4z"/>
<path d="M1646 2718 c-21 -30 -20 -61 2 -81 20 -18 169 -57 218 -57 35 0 64
26 64 57 0 40 -31 60 -130 82 -119 26 -135 26 -154 -1z"/>
<path d="M1647 2192 c-22 -24 -22 -65 1 -85 20 -18 165 -57 215 -57 40 0 67
25 67 62 0 40 -32 59 -132 79 -116 23 -131 23 -151 1z"/>
</g>
</svg>
