<!-- icon666.com - MILLIONS OF FREE VECTOR ICONS --><svg id="_x33_0" enable-background="new 0 0 64 64" viewBox="0 0 64 64" xmlns="http://www.w3.org/2000/svg" xmlns:xlink="http://www.w3.org/1999/xlink"><linearGradient id="SVGID_1_" gradientUnits="userSpaceOnUse" x1="32" x2="32" y1="63" y2="1"><stop offset="0" stop-color="#9f2fff"/><stop offset="1" stop-color="#0bb1d3"/></linearGradient><path d="m39 19h-6v-6h4v-2h-4v-2h6v6h-4v2h4zm12-10h-6v2h4v2h-4v2h4v2h-4v2h6zm-24 0h-2v10h2zm36 34c0 2.206-1.794 4-4 4h-12.196l10.001 16h-8.359l-3.75-6h-17.392l-3.75 6h-8.359l10.001-16h-10.196v3.2l-4.692 11.262c-.391.934-1.296 1.538-2.308 1.538s-1.917-.604-2.308-1.537l-4.692-11.263v-42.2c0-3.86 3.141-7 7-7 2.785 0 5.188 1.639 6.315 4h46.685v34.556c1.19.694 2 1.97 2 3.444zm-48.08-36c.047.328.08.66.08 1v31h44v-32zm-9.753 48h5.667l1.667-4h-9zm7.833-42h-10v2h10zm-10 4v32h4v-32zm10 32v-32h-4v32zm-10-41v3h10v-3c0-2.757-2.243-5-5-5s-5 2.243-5 5zm7 49h-4l1.538 3.692c.156.373.768.374.924-.001zm21.196-10h-3.642l-8.749 14h3.641zm2.358 0-2.5 4h9.892l-2.5-4zm9.892 8-1.25-2h-12.392l-1.25 2zm1-8h-3.642l8.751 14h3.641zm16.554-4c0-1.103-.897-2-2-2h-44v4h44c1.103 0 2-.897 2-2zm-4-8h-2v2h2zm-4 2h-36v-24h2v14l7-5.25 8.134 6.1 16.866-7.379v14.529h2zm-4-13.471-6 2.625v8.846h6zm-22 11.471h6v-5.5l-6-4.5zm8 0h6v-7.971l-6 2.625zm-16 0h6v-10l-6 4.5zm0-26h-2v2h2z" fill="url(#SVGID_1_)"/>
  </svg>