<!-- icon666.com - MILLIONS OF FREE VECTOR ICONS --><svg viewBox="-40 0 480 480.01571" xmlns="http://www.w3.org/2000/svg" xmlns:xlink="http://www.w3.org/1999/xlink"><linearGradient id="linear0" gradientUnits="userSpaceOnUse" x1="200.007855" x2="200.007855" y1="480" y2="0"><stop offset="0" stop-color="#12c2e9"></stop><stop offset=".056" stop-color="#19bfe9"></stop><stop offset=".137" stop-color="#2db6ea"></stop><stop offset=".235" stop-color="#4da7ea"></stop><stop offset=".344" stop-color="#7993eb"></stop><stop offset=".462" stop-color="#b279ed"></stop><stop offset=".497" stop-color="#c471ed"></stop><stop offset="1" stop-color="#f64f59"></stop></linearGradient><path d="m201.953125 288.238281c4.28125 1.074219 6.882813 5.414063 5.816406 9.699219l-12.761719 51.070312 19.054688-4.800781c4.273438-1.035156 8.582031 1.566407 9.648438 5.832031 1.070312 4.261719-1.503907 8.589844-5.757813 9.6875l-32 8c-2.726563.683594-5.613281-.113281-7.601563-2.101562-1.984374-1.988281-2.785156-4.867188-2.105468-7.59375l16-64c1.085937-4.273438 5.425781-6.867188 9.707031-5.792969zm-40-16c-4.28125-1.082031-8.632813 1.503907-9.722656 5.785157-.046875.273437-6.816407 25.976562-24.222657 25.976562s-24.175781-25.703125-24.238281-25.960938c-1.078125-4.285156-5.425781-6.886718-9.710937-5.8125-4.285156 1.078126-6.886719 5.421876-5.8125 9.710938.394531 1.558594 9.859375 38.0625 39.761718 38.0625 29.902344 0 39.367188-36.503906 39.761719-38.0625 1.058594-4.273438-1.535156-8.601562-5.800781-9.679688zm110.054687 47.761719c29.902344 0 39.367188-36.503906 39.761719-38.0625 1.074219-4.289062-1.527343-8.632812-5.8125-9.710938-4.285156-1.074218-8.632812 1.527344-9.710937 5.8125-.0625.257813-6.832032 25.960938-24.238282 25.960938s-24.175781-25.703125-24.238281-25.960938c-1.078125-4.285156-5.425781-6.886718-9.710937-5.8125-4.285156 1.078126-6.886719 5.421876-5.8125 9.710938.394531 1.558594 9.859375 38.0625 39.761718 38.0625zm-72-232c-13.253906 0-24-10.746094-24-24s10.746094-24 24-24c13.253907 0 24 10.746094 24 24s-10.746093 24-24 24zm0-16c4.417969 0 8-3.582031 8-8s-3.582031-8-8-8c-4.417968 0-8 3.582031-8 8s3.582032 8 8 8zm200 208c0 23.503906-14.160156 43.070312-32.800781 47.199219-7.8125 86.535156-80.347656 152.816406-167.230469 152.816406-86.886718 0-159.421874-66.28125-167.234374-152.816406-18.574219-4.128907-32.7343755-23.695313-32.7343755-47.199219 0-23.199219 13.7695315-42.566406 31.9999995-47.03125v-48.96875c0-22.175781 50.566407-32.136719 96-36.617188v-123.382812c0-13.253906 10.746094-24 24-24h96c13.253907 0 24 10.746094 24 24v123.382812c45.433594 4.480469 96 14.441407 96 36.617188v48.96875c18.230469 4.464844 32 23.832031 32 47.03125zm-368-30.03125c-10.535156 6.226562-16.710937 17.816406-16 30.03125-.710937 12.214844 5.464844 23.804688 16 30.03125zm112-78.914062 52.425782-26.214844c2.25-1.125 4.898437-1.125 7.148437 0l52.425781 26.214844v-147.054688c0-4.417969-3.582031-8-8-8h-96c-4.417968 0-8 3.582031-8 8zm208 31.839843c-40.871093 20.792969-146.472656 21.105469-152 21.105469-5.527343 0-111.128906-.3125-152-21.105469v109.105469c0 83.949219 68.054688 152 152 152 83.949219 0 152-68.050781 152-152zm.054688-19.277343c-1.816406-3.777344-23.910156-14.402344-80.054688-20.144532v20.527344c0 2.773438-1.433593 5.347656-3.792968 6.808594-2.355469 1.457031-5.300782 1.589844-7.78125.351562l-60.425782-30.214844-60.425781 30.253907c-2.484375 1.242187-5.4375 1.105469-7.800781-.363281-2.359375-1.46875-3.789062-4.054688-3.773438-6.835938v-20.527344c-55.792968 5.703125-77.945312 16.261719-80 20.800782v.167968c3.816407 8 57.601563 23.542969 152 23.542969 94.6875.015625 148.519532-15.617187 152.054688-24.367187zm31.945312 96.382812c.710938-12.214844-5.464843-23.804688-16-30.03125v60.0625c10.535157-6.226562 16.710938-17.816406 16-30.03125zm0 0" fill="url(#linear0)"></path></svg>