<svg class="svg-icon" style="width: 1.23046875em;height: 1em;vertical-align: middle;fill: currentColor;overflow: hidden;" viewBox="0 0 1260 1024" version="1.1" xmlns="http://www.w3.org/2000/svg"><path d="M512 185.6a38.4 38.4 0 0 1 38.336 36.1472L550.4 224v153.6h281.6a102.4 102.4 0 0 1 102.3488 99.2l0.0512 3.2V576a38.4 38.4 0 0 1-76.736 2.2528L857.6 576v-96a25.6 25.6 0 0 0-23.68-25.536L832 454.4H550.4V576a38.4 38.4 0 0 1-76.736 2.2528L473.6 576v-121.6H192a25.6 25.6 0 0 0-25.536 23.68L166.4 480V576a38.4 38.4 0 0 1-76.736 2.2528L89.6 576v-96a102.4 102.4 0 0 1 99.2-102.3488L192 377.6h281.6v-153.6a38.4 38.4 0 0 1 38.4-38.4z" fill="#FF6F26" /><path d="M192 576a64 64 0 0 1 64 64v128a64 64 0 0 1-64 64H64a64 64 0 0 1-64-64V640a64 64 0 0 1 64-64z m384 0a64 64 0 0 1 64 64v128a64 64 0 0 1-64 64H448a64 64 0 0 1-64-64V640a64 64 0 0 1 64-64z m384 0a64 64 0 0 1 64 64v128a64 64 0 0 1-64 64H832a64 64 0 0 1-64-64V640a64 64 0 0 1 64-64z m-780.8 76.8H76.8v102.4h102.4v-102.4z m384 0h-102.4v102.4h102.4v-102.4z m384 0h-102.4v102.4h102.4v-102.4zM640 0a64 64 0 0 1 64 64v128a64 64 0 0 1-64 64H384a64 64 0 0 1-64-64V64a64 64 0 0 1 64-64z m-12.8 76.8H396.8v102.4h230.4v-102.4z" fill="#303133" /></svg>