<?xml version="1.0" standalone="no"?>
<!DOCTYPE svg PUBLIC "-//W3C//DTD SVG 20010904//EN"
 "http://www.w3.org/TR/2001/REC-SVG-20010904/DTD/svg10.dtd">
<svg version="1.0" xmlns="http://www.w3.org/2000/svg"
 width="300.000000pt" height="300.000000pt" viewBox="0 0 300.000000 300.000000"
 preserveAspectRatio="xMidYMid meet">
<metadata>
Created by potrace 1.10, written by Peter Selinger 2001-2011
</metadata>
<linearGradient id="gradient1" x1="0%" y1="0%" x2="100%" y2="100%">
    <stop offset="0" style="stop-color:#9f2fff;stop-opacity:1" />
    <stop offset="1" style="stop-color:#0bb1d3;stop-opacity:1" />
  </linearGradient>
<g transform="translate(0.000000,300.000000) scale(0.100000,-0.100000)"
fill="#000000" stroke="none">
<path fill="url(#gradient1)" d="M30 2988 c0 -27 13 -58 21 -52 5 3 5 14 -1 25 -7 13 -7 19 0 19 5 0
10 5 10 10 0 6 -7 10 -15 10 -8 0 -15 -6 -15 -12z  M435 2990 c3 -5 8 -10 11 -10 2 0 4 5 4 10 0 6 -5 10 -11 10 -5 0 -7
-4 -4 -10z  M691 2991 c-8 -5 -9 -11 -3 -15 5 -3 12 1 16 9 6 17 6 18 -13 6z  M731 2955 c-33 -46 -57 -52 -46 -12 6 21 6 21 -6 2 -7 -11 -22 -29
-34 -41 -12 -11 -25 -32 -28 -46 -4 -15 -16 -30 -27 -33 -11 -3 -20 -15 -20
-25 0 -11 -15 -35 -32 -53 -18 -19 -53 -56 -77 -83 -77 -88 -145 -154 -156
-154 -5 0 -16 -10 -23 -21 -23 -36 -35 -8 -17 37 38 89 89 183 116 212 16 17
29 35 29 40 0 4 21 18 48 30 32 14 40 21 25 21 -12 1 -25 -3 -28 -9 -9 -15
-25 -12 -25 5 0 8 -4 15 -10 15 -5 0 -10 -4 -10 -10 0 -5 -9 -10 -21 -10 -15
0 -19 4 -15 16 3 9 6 17 6 20 0 2 7 1 15 -2 11 -5 13 -2 9 10 -4 9 4 28 20 47
14 17 26 38 25 47 0 15 -2 14 -12 -2 -7 -10 -24 -32 -39 -47 -15 -16 -35 -53
-44 -84 -11 -35 -23 -55 -33 -56 -9 0 -11 -3 -5 -5 8 -3 9 -16 4 -39 -10 -44
-74 -200 -126 -305 l-42 -85 -7 37 c-4 20 -4 41 0 47 3 6 1 11 -4 11 -15 0
-14 27 2 34 6 4 2 4 -10 2 -24 -4 -32 9 -10 17 8 3 6 13 -11 35 -12 17 -22 36
-22 41 0 6 -9 15 -21 21 -19 11 -20 10 -5 -12 28 -44 53 -142 63 -248 7 -73
-18 -107 -79 -112 -23 -2 -43 -9 -46 -16 -3 -10 4 -12 32 -7 20 4 36 4 36 1 0
-4 -16 -22 -35 -42 -29 -29 -35 -42 -35 -79 l0 -43 68 -7 c37 -3 78 -8 90 -11
14 -3 21 -1 18 5 -4 5 -37 12 -74 16 -100 10 -99 9 -53 64 36 43 51 52 123 75
44 15 101 40 125 56 36 25 48 28 64 19 11 -5 25 -8 32 -5 7 2 2 8 -10 11 -26
8 -29 18 -10 34 10 8 17 7 27 -2 12 -10 12 -9 2 5 -11 14 -6 21 32 53 l46 37
48 -17 c27 -10 57 -24 66 -31 18 -13 18 -15 -2 -53 -34 -64 -47 -86 -55 -92
-4 -3 -9 -16 -10 -29 -1 -13 -8 -25 -17 -27 -8 -3 -23 -22 -34 -44 -18 -40
-135 -208 -165 -238 -9 -9 -61 -32 -116 -50 -155 -54 -189 -68 -193 -80 -6
-17 27 -13 88 10 30 11 66 24 80 29 69 23 190 70 211 81 13 7 30 14 36 15 7 1
89 32 183 69 94 37 174 64 177 61 3 -3 11 0 17 8 11 12 109 56 127 56 5 0 9
-5 9 -11 0 -6 -7 -9 -15 -5 -8 3 -15 2 -15 -3 0 -11 -70 -45 -77 -37 -3 3 -12
-2 -20 -10 -9 -8 -21 -13 -29 -10 -7 3 -14 0 -16 -6 -2 -6 -15 -13 -28 -15
-13 -2 -27 -7 -30 -11 -3 -5 -54 -25 -115 -46 -60 -22 -112 -42 -115 -46 -3
-4 -18 -11 -34 -17 -30 -9 -48 -33 -26 -33 6 0 42 13 81 30 38 16 69 26 69 21
0 -4 -35 -22 -77 -38 l-78 -31 0 -83 c0 -84 0 -84 25 -82 24 3 24 3 3 -7 -28
-11 -30 -24 -38 -186 -5 -88 -3 -134 4 -138 7 -4 4 -13 -6 -26 -16 -19 -17
-19 -45 2 -34 24 -31 37 4 14 l23 -15 2 62 c0 34 4 160 8 279 l7 216 -113 -40
c-63 -23 -117 -46 -121 -52 -4 -6 -8 -7 -8 -2 0 5 -7 3 -15 -4 -8 -7 -15 -9
-15 -5 0 4 -6 2 -13 -4 -8 -6 -17 -8 -20 -4 -4 3 -7 2 -7 -4 0 -5 -18 -16 -40
-23 -22 -7 -40 -19 -40 -27 0 -14 -4 -15 248 82 68 26 125 45 128 43 2 -3 -51
-26 -118 -52 -68 -26 -153 -59 -191 -73 l-67 -26 0 -74 c0 -58 3 -73 15 -73 8
0 15 -5 15 -11 0 -6 8 -8 19 -4 11 3 22 1 26 -5 4 -6 15 -8 25 -5 10 3 21 1
25 -5 4 -6 15 -8 26 -5 11 4 19 2 19 -5 0 -8 10 -9 30 -5 23 5 30 3 28 -7 -2
-8 5 -12 20 -10 21 3 23 1 17 -20 -11 -36 -25 -45 -38 -27 -11 14 -15 13 -37
-12 -26 -31 -50 -38 -50 -14 0 8 -7 15 -16 15 -14 0 -16 -8 -12 -52 3 -29 3
-45 1 -35 -2 9 -11 17 -19 17 -8 0 -17 6 -20 14 -8 21 -36 29 -46 14 -6 -10
-8 -9 -8 3 0 9 7 20 16 23 20 8 12 19 -16 23 -31 4 -29 -70 2 -91 12 -9 19
-16 14 -16 -5 0 -3 -6 3 -13 6 -8 7 -18 3 -22 -4 -5 -2 -6 3 -2 10 5 41 -12
43 -23 1 -11 82 -93 82 -84 0 6 -6 16 -13 24 -6 8 2 4 18 -10 43 -35 55 -52
48 -63 -3 -6 -2 -7 4 -4 5 3 27 -12 48 -33 55 -57 68 -50 15 7 -25 26 -33 37
-18 24 14 -13 31 -20 37 -16 15 9 14 25 -2 19 -7 -2 -27 9 -44 27 -18 17 -39
32 -47 33 -9 1 -27 13 -41 26 -15 14 -25 18 -25 11 0 -11 -3 -11 -15 -1 -12
10 -13 15 -4 20 8 5 6 15 -6 34 -15 23 -15 26 -2 26 21 0 32 19 18 33 -14 14
-14 40 0 31 6 -3 15 0 20 7 6 9 7 0 4 -25 -2 -22 -10 -43 -16 -47 -18 -11 18
-82 37 -75 8 3 30 -8 49 -25 19 -17 35 -26 35 -20 0 5 -9 15 -20 21 -11 6 -20
16 -20 22 0 6 12 1 27 -13 23 -21 25 -22 19 -4 -5 13 6 7 33 -20 44 -42 56
-39 19 4 l-23 26 27 -24 c15 -13 26 -32 25 -42 -2 -23 -10 -24 -27 -4 -7 8
-18 15 -25 15 -8 0 -15 8 -17 18 -3 16 -4 16 -10 0 -8 -20 21 -56 31 -39 10
16 42 -26 34 -45 -4 -12 -8 -13 -14 -3 -4 8 -11 10 -15 6 -4 -4 1 -16 10 -26
11 -12 15 -25 10 -33 -4 -7 -7 -26 -6 -42 3 -28 2 -29 -15 -14 -10 9 -45 42
-77 72 -33 31 -62 54 -64 52 -3 -4 -56 52 -104 109 -56 66 -68 77 -68 62 0
-10 9 -25 20 -34 11 -10 20 -20 20 -23 0 -8 124 -134 134 -137 16 -4 114 -103
106 -108 -11 -7 -40 5 -40 16 0 5 -9 18 -20 29 -11 11 -20 17 -20 13 0 -4 -19
13 -43 38 -24 24 -61 61 -84 81 -23 20 -39 38 -37 41 2 2 -5 12 -16 22 -19 18
-20 17 -20 -4 0 -14 26 -49 69 -94 38 -39 67 -76 64 -81 -4 -5 -35 21 -70 57
l-63 67 0 -35 c0 -21 5 -35 13 -35 8 0 7 -4 -3 -10 -13 -8 -12 -10 3 -10 9 0
17 -5 17 -11 0 -6 -7 -8 -16 -5 -14 5 -15 4 -4 -9 7 -8 17 -12 22 -9 6 4 5 -3
-1 -14 -6 -12 -16 -24 -21 -27 -6 -3 -10 -13 -10 -22 0 -11 5 -9 19 8 16 19
22 22 32 12 7 -7 37 -13 68 -13 53 0 54 0 36 20 -11 12 -15 26 -11 37 7 17 8
17 19 -2 16 -30 34 -45 52 -45 11 0 15 -5 11 -15 -3 -8 -1 -15 4 -15 6 0 10
-8 10 -17 0 -11 3 -14 8 -7 11 17 51 36 62 29 20 -12 9 -25 -22 -25 l-31 0 23
-25 c14 -14 30 -38 36 -53 12 -26 12 -26 13 -4 1 23 2 23 26 -6 30 -36 33 -52
5 -27 -16 15 -20 15 -20 3 0 -15 30 -48 43 -48 4 0 7 7 7 15 0 8 3 15 6 15 6
0 80 -58 118 -92 10 -10 23 -15 28 -12 16 10 7 -6 -17 -31 -27 -26 -45 -32
-45 -15 0 6 -8 10 -17 10 -15 0 -15 2 -4 9 9 6 22 6 32 1 16 -9 29 -4 29 10 0
4 -25 26 -55 49 -38 29 -55 37 -55 26 0 -8 5 -15 11 -15 6 0 7 -5 2 -12 -17
-28 -9 -61 20 -78 l29 -18 -27 -18 c-19 -13 -23 -19 -13 -25 10 -7 11 -12 1
-28 -12 -19 -11 -19 17 -10 26 10 28 14 23 41 -6 29 -5 31 20 24 20 -5 27 -3
27 9 0 8 7 15 15 15 11 0 14 -7 10 -27 -5 -26 -5 -26 4 -5 12 26 17 27 37 8
19 -20 19 -43 0 -27 -10 8 -16 9 -21 1 -3 -5 -1 -10 5 -10 7 0 10 -7 7 -15
-10 -25 8 -25 49 0 l39 24 -25 11 -25 11 24 -5 c14 -3 31 0 38 6 9 7 13 7 13
-1 0 -6 -4 -11 -10 -11 -5 0 -10 -5 -10 -11 0 -5 4 -8 10 -4 5 3 18 -2 29 -12
39 -35 50 -43 66 -43 8 0 15 -5 15 -11 0 -6 -7 -9 -15 -5 -17 6 -21 -9 -5 -19
15 -9 1 -26 -18 -24 -10 1 -25 -1 -35 -6 -9 -4 -23 -2 -30 4 -10 8 -18 7 -32
-2 -15 -11 -16 -17 -6 -36 7 -13 17 -19 24 -14 7 4 6 0 -2 -10 -8 -10 -17 -15
-20 -11 -6 5 -7 9 -10 35 0 5 -5 7 -11 4 -5 -3 -10 4 -10 16 0 18 -2 19 -15 9
-8 -7 -15 -9 -16 -4 0 5 -4 -2 -10 -14 -5 -13 -14 -22 -21 -20 -7 3 -21 -13
-31 -34 -22 -43 -29 -43 -33 1 -3 20 4 39 20 58 20 24 22 31 11 46 -14 20 -36
22 -53 5 -8 -8 -12 -9 -12 -1 0 6 12 16 28 21 l27 10 -28 1 c-50 2 -89 -32
-49 -42 16 -4 16 -5 0 -6 -10 0 -18 -8 -18 -16 0 -20 8 -19 54 6 21 11 40 19
41 17 8 -7 -23 -34 -57 -50 -39 -18 -50 -35 -23 -35 8 0 12 4 9 9 -3 4 1 8 9
8 8 0 17 -9 20 -20 4 -15 1 -21 -11 -19 -52 5 -56 -10 -9 -35 29 -15 20 -15
-18 0 -11 5 -13 2 -9 -10 4 -9 1 -16 -6 -16 -9 0 -10 -3 -1 -14 8 -10 8 -16
-3 -25 -17 -14 -29 0 -20 23 4 10 -2 19 -20 27 -16 8 -25 19 -23 32 1 11 -5
22 -13 25 -12 4 -13 3 -2 -10 10 -13 10 -17 -3 -22 -9 -3 -13 -11 -9 -17 4 -7
3 -9 -4 -5 -6 3 -13 -2 -15 -11 -3 -10 -5 0 -6 22 -1 41 13 75 25 62 4 -4 15
0 25 9 10 9 25 14 34 11 9 -4 15 -1 15 10 0 12 -7 14 -30 9 -28 -5 -30 -4 -24
19 4 15 2 25 -5 25 -6 0 -8 6 -5 14 4 10 0 14 -13 12 -10 -2 -12 -1 -5 1 8 3
11 11 8 18 -3 9 0 12 10 8 7 -3 14 -13 14 -23 0 -15 29 -50 42 -50 3 0 8 8 10
18 4 15 1 18 -18 14 -28 -5 -33 13 -5 21 12 3 20 16 23 36 4 28 2 32 -14 28
-10 -3 -18 0 -19 6 0 7 -4 2 -9 -10 -13 -32 -40 -19 -40 19 0 26 -2 29 -15 18
-20 -16 -19 -36 1 -44 25 -10 -3 -38 -30 -31 -16 5 -17 4 -7 -3 10 -7 4 -10
-23 -9 -37 1 -61 -17 -49 -37 3 -5 1 -6 -5 -2 -7 4 -12 2 -12 -5 0 -6 -9 -1
-21 12 -14 17 -19 19 -15 7 3 -10 1 -20 -4 -23 -6 -4 -10 -1 -10 5 0 6 -4 9
-9 6 -4 -3 -17 4 -26 15 -17 18 -17 21 -2 36 15 15 17 15 23 -1 4 -11 1 -22
-7 -28 -12 -8 -11 -9 1 -5 62 20 100 43 99 62 0 11 -3 14 -6 8 -2 -7 -11 -13
-19 -13 -8 0 -14 -5 -14 -10 0 -19 -29 -22 -46 -6 -8 9 -20 14 -25 11 -5 -4
-9 -1 -9 4 0 6 -10 11 -22 10 -13 0 -17 -3 -11 -6 9 -3 7 -15 -7 -44 -26 -50
-44 -51 -36 -2 3 21 6 46 7 56 0 11 5 15 12 10 7 -3 4 3 -6 14 -9 11 -14 23
-10 28 5 4 3 5 -4 1 -7 -4 -12 -36 -12 -87 0 -49 3 -78 9 -74 6 3 10 2 10 -4
0 -5 -4 -12 -9 -16 -14 -8 -9 -44 7 -50 11 -4 13 1 7 22 -7 31 -7 30 17 -8 14
-21 14 -26 3 -25 -8 0 -14 -3 -14 -8 1 -5 -5 -12 -13 -17 -10 -6 -14 -47 -16
-159 l-3 -150 30 0 c22 0 29 4 25 14 -3 9 3 20 15 28 12 7 21 16 21 21 0 4 -4
6 -8 3 -4 -2 -8 11 -8 30 0 19 4 34 10 34 5 0 1 10 -10 22 -17 20 -17 21 -1 9
29 -23 47 -64 36 -84 -6 -10 -9 -25 -8 -35 3 -30 -1 -35 -16 -22 -12 10 -15
10 -15 -3 0 -13 14 -16 73 -15 56 0 74 3 74 14 0 8 -4 14 -9 14 -4 0 -8 5 -8
11 0 6 7 9 15 5 9 -3 15 0 15 9 0 8 -4 15 -10 15 -5 0 -10 9 -10 20 0 14 -7
20 -22 21 -19 1 -20 2 -4 6 10 3 23 0 29 -6 6 -6 19 -11 29 -11 20 0 38 -28
38 -59 0 -12 5 -21 11 -21 5 0 8 -4 5 -8 -2 -4 31 -9 75 -11 75 -2 80 -1 88
21 5 15 5 26 -3 30 -11 7 -1 12 18 9 5 -1 6 5 3 13 -5 12 1 12 40 -2 26 -10
38 -18 29 -20 -9 -2 -24 2 -33 10 -14 11 -16 11 -10 -4 3 -9 1 -19 -6 -22 -7
-2 -1 -5 13 -6 14 -1 19 -4 13 -7 -20 -8 -15 -23 7 -23 11 0 20 5 20 10 0 6 7
10 16 10 9 0 13 -5 9 -12 -4 -7 1 -4 9 6 9 11 16 25 15 30 0 6 -3 5 -6 -1 -2
-7 -11 -13 -19 -13 -10 0 -12 5 -7 13 16 26 11 37 -18 37 -16 0 -29 3 -29 8 0
4 17 7 37 6 26 -1 39 -7 44 -20 4 -10 8 -15 8 -11 1 4 11 3 22 -4 17 -9 19
-13 8 -20 -10 -6 -10 -9 -2 -9 7 0 17 9 23 20 8 15 7 18 -2 15 -7 -3 -19 -1
-27 4 -12 8 -12 12 -2 24 7 9 8 18 3 21 -6 3 -13 -1 -16 -10 -9 -23 -36 1 -36
32 0 28 34 34 48 8 13 -23 65 2 56 28 -4 14 0 18 17 18 22 0 22 0 3 15 -11 8
-14 15 -6 15 6 0 12 6 12 14 0 7 7 19 15 26 8 7 12 16 9 21 -3 5 3 6 12 2 12
-4 15 -3 10 5 -4 7 -2 12 5 12 6 0 9 -8 6 -20 -3 -13 0 -20 9 -20 10 0 14 13
15 43 0 23 3 56 5 72 5 28 4 29 -9 11 -8 -10 -19 -16 -25 -12 -8 4 -5 13 8 26
11 11 20 27 20 35 0 8 9 19 21 25 15 8 17 15 10 24 -7 9 -7 16 1 24 16 16 39
15 32 -2 -3 -7 2 -16 12 -20 14 -5 16 -1 11 28 -4 28 -3 34 9 29 9 -3 14 2 14
16 0 12 5 21 11 21 6 0 9 -7 6 -14 -4 -10 -1 -13 9 -9 8 3 22 -1 31 -8 9 -8
14 -9 10 -3 -4 7 0 15 9 18 9 3 12 2 9 -5 -8 -13 23 -38 48 -39 9 0 17 -4 17
-10 0 -6 23 -9 54 -7 30 2 53 0 50 -5 -3 -4 0 -8 6 -8 8 0 10 -10 6 -27 -5
-28 -5 -28 9 2 8 17 15 37 15 45 1 8 6 3 12 -12 12 -35 21 -35 36 0 9 20 11
21 8 5 -2 -12 2 -24 10 -27 19 -7 18 -26 -5 -79 -16 -38 -17 -46 -6 -51 17 -6
30 10 15 19 -6 4 -2 20 10 43 11 20 20 43 20 51 0 10 3 11 13 3 7 -6 28 -13
47 -15 19 -2 46 -9 60 -15 14 -5 29 -8 33 -5 4 3 14 0 22 -7 10 -8 15 -8 20 0
5 8 12 7 23 -2 10 -7 31 -13 47 -13 17 0 35 -7 42 -15 7 -8 13 -10 13 -5 0 6
14 10 30 10 25 0 28 -2 15 -11 -12 -9 -13 -17 -6 -35 l10 -24 0 23 c1 18 7 22
34 22 17 0 44 -6 59 -14 33 -18 43 -9 21 18 -11 13 -6 10 15 -6 18 -15 48 -30
67 -34 19 -3 33 -10 30 -14 -3 -5 -1 -11 4 -14 5 -4 13 -2 16 4 7 12 74 3 90
-11 12 -12 28 -11 20 1 -4 6 2 7 15 2 12 -4 21 -12 20 -17 -2 -13 34 -24 41
-12 9 14 29 -1 23 -17 -9 -22 24 -27 39 -6 8 11 16 18 19 15 3 -3 11 1 18 10
7 8 18 15 24 15 6 0 22 9 36 20 14 11 30 20 35 19 6 0 3 -5 -6 -12 -8 -7 -18
-20 -22 -29 -3 -10 -13 -18 -22 -18 -8 0 -15 -4 -15 -8 0 -5 -16 -16 -35 -25
-19 -9 -35 -23 -35 -32 0 -18 -9 -19 -45 -5 -17 6 -23 14 -19 22 4 7 -7 1 -26
-12 l-33 -24 7 27 c4 16 2 27 -4 27 -5 0 -10 -5 -10 -10 0 -7 -7 -7 -22 0 -21
10 -21 10 -6 -3 20 -16 23 -27 9 -27 -18 0 -42 33 -36 48 5 13 3 13 -13 -1
-23 -21 -31 -21 -49 1 -13 15 -14 15 -9 0 2 -9 -2 -19 -10 -22 -9 -3 -14 1
-15 12 0 9 -3 12 -5 5 -4 -9 -13 -9 -31 -2 -19 7 -28 6 -34 -3 -6 -9 -10 -8
-15 5 -4 11 -13 16 -22 12 -8 -3 -20 -1 -26 4 -6 5 -22 11 -36 13 -16 2 -27
12 -31 28 l-7 25 -1 -24 c-1 -22 -4 -23 -41 -17 -23 4 -40 2 -40 -3 0 -11 34
-23 65 -25 11 -1 21 -8 21 -16 1 -8 3 -17 4 -20 1 -3 3 -18 5 -35 2 -16 1 -22
-2 -12 -3 12 -10 16 -20 13 -9 -4 -21 1 -29 11 -12 16 -15 16 -23 3 -9 -12
-11 -12 -17 3 -7 20 -34 23 -34 5 0 -7 -8 -4 -16 7 -16 20 -16 20 -31 -2 -20
-30 -31 -29 -27 3 2 23 0 25 -28 19 -23 -6 -29 -4 -23 5 6 10 1 11 -19 6 -15
-4 -26 -2 -26 4 0 19 -31 10 -39 -12 -7 -19 -8 -19 -14 -4 -4 10 -4 23 0 29 4
6 0 8 -10 4 -11 -4 -17 -1 -17 9 0 11 6 13 20 9 15 -5 18 -3 14 9 -14 35 9 38
86 9 8 -3 26 -7 40 -9 14 -1 45 -6 69 -10 33 -5 43 -4 39 6 -4 12 -54 22 -105
22 -13 0 -23 5 -23 10 0 6 -12 8 -30 4 -22 -4 -29 -2 -24 6 5 7 0 9 -14 6 -13
-4 -22 -1 -24 8 -4 19 -28 2 -32 -22 -2 -10 -9 -18 -15 -16 -6 1 -11 -9 -11
-21 0 -13 -10 -32 -22 -43 l-22 -19 17 27 c24 38 21 57 -9 68 -33 13 -34 13
-34 -7 0 -10 -5 -25 -10 -33 -9 -13 -12 -13 -24 3 -12 15 -17 16 -34 6 -22
-14 -19 -39 5 -39 13 0 13 3 3 18 -7 9 -1 5 12 -9 24 -26 26 -26 48 -9 14 10
18 19 11 21 -9 3 -8 9 2 23 20 27 41 12 24 -17 -6 -12 -16 -25 -21 -28 -5 -4
-6 -11 -3 -15 7 -11 -46 -12 -54 -2 -3 5 -18 -1 -32 -12 -15 -12 -27 -17 -27
-12 0 6 6 13 13 15 8 4 8 8 2 14 -5 4 -11 15 -13 23 -2 8 -11 23 -20 34 -16
18 -16 18 8 11 20 -6 23 -5 13 6 -19 20 -16 30 10 26 12 -2 16 -2 9 0 -8 3
-11 11 -8 20 3 8 6 17 6 19 0 2 11 -3 25 -12 22 -14 25 -15 25 -1 0 9 -9 18
-19 22 -13 4 -18 12 -15 23 5 14 2 13 -13 -3 -10 -11 -27 -19 -38 -17 -19 3
-19 2 -2 -12 21 -16 8 -29 -20 -20 -17 5 -17 5 0 -9 16 -14 16 -15 0 -28 -14
-12 -16 -12 -8 0 6 11 4 13 -10 8 -14 -6 -17 -3 -13 21 4 26 2 28 -26 24 -29
-5 -29 -5 -8 -13 31 -12 28 -27 -5 -21 -24 4 -25 3 -19 -19 4 -13 10 -35 13
-49 l5 -25 -17 23 c-9 13 -18 34 -20 48 -3 27 -25 58 -25 36 0 -18 -21 -15
-35 5 -11 15 -15 15 -29 4 -14 -11 -16 -11 -16 3 0 18 -25 22 -35 6 -4 -6 -11
-7 -17 -4 -6 4 -8 2 -4 -4 3 -6 1 -14 -5 -17 -5 -4 -10 -21 -9 -39 3 -55 -19
-98 -33 -63 -4 9 -6 9 -6 -1 -1 -8 -6 -10 -13 -6 -8 5 -8 1 1 -10 13 -16 11
-21 -24 -52 -21 -19 -42 -34 -47 -34 -4 0 -8 -4 -8 -9 0 -6 12 -4 27 4 15 8
31 11 36 8 6 -3 7 -1 3 5 -3 6 -2 13 4 17 6 4 10 -5 10 -19 0 -14 5 -26 10
-26 15 0 12 -19 -5 -36 -8 -8 -12 -21 -8 -30 4 -12 -1 -14 -26 -9 -18 3 -31 1
-31 -5 0 -5 -7 -10 -16 -10 -14 0 -14 -2 0 -15 9 -9 27 -13 48 -11 18 2 39 4
47 5 8 1 11 7 7 17 -5 12 1 15 27 12 17 -2 31 -7 29 -13 -2 -5 -12 -9 -22 -7
-11 2 -20 -2 -20 -7 0 -15 45 -14 57 2 6 6 13 21 17 31 6 17 2 18 -51 12 -40
-4 -53 -3 -43 4 12 8 12 10 1 10 -11 0 -10 4 3 19 16 18 16 22 2 50 -20 37
-20 41 -1 41 14 0 17 5 19 40 1 16 54 46 63 36 3 -3 -5 -15 -18 -26 -21 -17
-21 -19 -4 -13 11 4 25 14 32 22 9 12 16 13 28 6 9 -5 16 -14 15 -19 -1 -5 4
-12 10 -16 8 -5 7 -12 -5 -23 -8 -9 -15 -20 -15 -24 0 -4 -8 -9 -20 -11 -11
-2 -20 -7 -20 -12 0 -5 7 -7 15 -4 8 4 15 1 15 -5 0 -20 18 -12 26 11 l7 23 9
-24 c5 -16 4 -29 -4 -39 -7 -9 -8 -13 -3 -10 6 4 17 2 25 -3 11 -8 12 -12 3
-16 -9 -3 -10 -10 -3 -24 11 -19 -3 -29 -14 -10 -8 13 -57 1 -63 -16 -9 -23 6
-28 22 -7 12 16 17 17 32 6 33 -23 45 -25 54 -11 5 8 9 9 9 3 0 -6 23 -12 56
-13 38 -1 53 2 49 9 -4 6 -13 9 -21 6 -8 -3 -11 0 -7 10 4 11 -2 14 -27 12
-21 -2 -35 2 -38 10 -3 11 0 12 15 4 22 -12 39 2 60 50 7 16 17 28 23 28 14 0
8 -20 -12 -44 -10 -11 -18 -24 -18 -28 0 -15 26 -19 53 -9 25 10 26 9 17 -14
-11 -30 -8 -32 58 -34 39 -1 54 2 57 14 3 8 8 23 12 33 10 27 10 36 0 50 -6 8
-5 12 4 12 10 0 11 3 3 8 -9 5 -8 11 2 20 12 11 14 9 14 -10 0 -16 3 -19 11
-11 18 18 1 55 -22 48 -11 -4 -19 -2 -19 4 0 23 40 10 60 -20 12 -16 21 -31
19 -33 -2 -2 -13 -9 -24 -15 -18 -11 -18 -12 -1 -7 11 4 23 0 32 -11 12 -17
14 -17 33 3 11 12 17 26 13 30 -4 5 1 2 11 -5 15 -12 17 -12 11 5 -4 13 2 10
19 -9 17 -20 31 -28 48 -25 13 2 23 8 22 13 0 6 5 16 12 22 17 16 31 -2 17
-20 -10 -12 10 -52 26 -52 4 0 6 -3 4 -7 -1 -5 4 -8 10 -9 7 0 2 -5 -11 -10
-18 -7 -27 -6 -33 3 -6 10 -8 8 -8 -4 0 -15 10 -18 69 -18 63 0 69 2 64 19 -3
12 -11 17 -20 14 -12 -5 -12 -7 -1 -14 9 -6 7 -9 -9 -9 -16 0 -21 4 -17 15 4
9 0 15 -10 15 -10 0 -16 9 -16 24 0 13 -3 32 -6 41 -5 11 2 9 20 -8 30 -28 33
-37 9 -37 -15 0 -16 -2 -3 -10 10 -6 16 -6 18 0 2 6 8 8 13 4 5 -3 9 5 9 18 1
19 3 17 17 -12 9 -19 15 -41 14 -47 -1 -7 5 -13 14 -13 8 0 16 6 17 13 0 6 2
17 3 22 2 6 3 16 4 24 1 11 5 10 15 -4 12 -17 12 -21 -2 -31 -8 -6 -11 -14 -6
-17 6 -3 22 14 38 39 27 42 46 56 46 33 0 -5 -4 -8 -9 -5 -5 4 -13 -8 -16 -26
-4 -18 -13 -36 -19 -41 -6 -4 0 -5 14 -4 14 2 25 10 26 18 2 28 4 31 17 21 16
-14 121 43 111 60 -4 6 -1 9 7 6 8 -3 42 14 77 38 68 48 121 62 87 24 -12 -14
-25 -18 -39 -14 -12 4 -18 3 -14 -1 6 -6 -6 -19 -77 -80 -22 -18 -24 -23 -10
-18 11 3 25 9 30 13 15 11 65 18 59 9 -3 -5 -17 -9 -32 -9 -21 0 -24 -2 -12
-10 13 -9 13 -12 -3 -21 -9 -6 -15 -15 -12 -20 4 -5 11 -7 16 -4 5 4 9 2 9 -3
0 -5 33 -10 74 -11 58 -2 77 2 88 14 7 9 21 25 30 35 10 11 15 26 12 34 -3 8
0 17 5 21 6 3 9 10 7 14 -3 4 5 8 16 8 20 2 20 1 2 -19 -12 -14 -1 -9 29 12
29 21 44 37 38 43 -11 11 -34 -1 -26 -14 4 -5 -3 -9 -14 -9 l-21 0 21 21 c14
14 29 19 45 16 14 -2 27 0 30 4 3 5 -3 9 -13 9 -15 0 -15 2 -3 10 9 5 19 5 26
-1 7 -6 15 -4 23 5 10 12 9 15 -6 19 -10 2 -6 3 10 1 31 -4 34 3 10 23 -16 13
-15 14 15 10 18 -2 35 0 38 5 3 4 0 8 -6 8 -6 0 -8 5 -5 10 5 8 11 8 19 1 7
-6 16 -8 19 -4 12 11 8 21 -10 27 -12 3 -9 5 7 4 41 -1 43 1 29 19 -13 15 -12
16 8 11 13 -4 26 -2 29 3 13 22 37 5 82 -58 26 -36 75 -104 110 -151 34 -46
65 -94 68 -107 4 -15 11 -22 19 -18 10 3 11 11 4 30 -13 35 -11 40 6 17 8 -10
15 -27 15 -36 0 -16 10 -18 77 -18 78 0 94 7 32 14 -19 2 -37 4 -41 5 -5 0 -8
9 -9 19 0 15 -1 15 -8 -2 -7 -18 -11 -16 -49 19 -23 20 -42 44 -42 52 0 8 -5
11 -11 7 -6 -3 -15 0 -20 7 -12 19 -11 32 1 24 12 -8 148 -41 198 -48 l32 -5
0 67 c0 53 -4 72 -18 84 -23 21 -32 21 -32 2 0 -8 -2 -15 -5 -15 -13 0 -291
63 -295 67 -3 3 3 9 13 14 13 8 17 23 17 67 0 32 5 63 12 70 16 16 65 15 170
-5 76 -15 88 -20 88 -37 0 -12 12 -29 25 -39 l25 -18 0 78 c0 90 -8 108 -40
98 -17 -5 -21 -4 -15 5 6 10 0 12 -24 7 -23 -5 -30 -3 -25 5 5 7 -1 9 -20 4
-16 -4 -26 -2 -26 5 0 7 -9 9 -25 5 -16 -4 -25 -2 -25 5 0 7 -9 9 -26 5 -18
-5 -24 -3 -18 5 5 8 -1 10 -20 7 -14 -3 -26 -1 -26 4 0 6 -11 7 -25 4 -16 -4
-25 -2 -25 5 0 7 -9 9 -25 5 -14 -4 -25 -2 -25 4 0 16 -22 12 -36 -8 -19 -24
-17 -49 4 -54 18 -5 32 -49 32 -106 0 -21 -3 -23 -32 -16 -18 4 -42 7 -53 8
-18 1 -20 9 -21 69 -1 37 -7 73 -13 80 -6 8 -7 18 -3 23 5 5 3 29 -3 53 -7 27
-14 40 -19 33 -4 -7 -12 -10 -17 -7 -5 3 -7 0 -5 -7 3 -7 -11 -26 -30 -41 -37
-32 -47 -30 -12 3 25 23 19 36 -11 20 -16 -8 -21 -20 -21 -50 0 -22 -3 -40 -7
-40 -15 0 -8 75 9 106 10 17 14 34 11 38 -4 3 -1 6 5 6 7 0 12 -7 12 -15 0 -8
5 -15 10 -15 6 0 9 6 8 13 -2 8 7 11 25 9 32 -3 36 14 6 23 -13 4 -25 2 -29
-5 -6 -9 -12 -10 -26 -1 -18 10 -18 10 -1 11 15 0 15 2 5 14 -9 9 -21 11 -40
5 -17 -5 -28 -4 -28 2 0 6 -9 7 -20 4 -12 -4 -20 -2 -20 5 0 7 -8 9 -20 5 -11
-4 -20 -2 -20 4 0 6 -12 11 -27 11 -16 0 -66 9 -111 20 -46 11 -87 18 -92 15
-5 -3 -10 -1 -12 4 -1 5 -21 11 -43 13 -22 2 -43 7 -46 11 -3 5 -22 9 -42 10
-20 1 -37 6 -37 11 0 4 -9 6 -20 3 -11 -3 -20 -1 -20 5 0 6 -11 7 -25 4 -14
-4 -25 -3 -25 2 0 5 -12 9 -27 9 -27 1 -393 87 -423 100 -8 4 -19 7 -25 8 -20
3 -95 40 -95 47 0 5 -9 8 -20 8 -11 0 -20 3 -20 8 0 4 -19 16 -43 26 -23 10
-36 21 -30 23 22 8 14 21 -12 21 -13 0 -26 -6 -28 -12 -2 -6 -2 0 0 14 3 14 9
30 15 35 7 7 9 6 5 -1 -4 -7 0 -15 9 -18 12 -4 14 -1 9 14 -5 15 -3 18 9 14 9
-3 16 -10 16 -16 0 -12 42 1 52 16 4 6 8 23 8 39 0 27 13 36 25 17 3 -5 12 -7
20 -3 10 3 15 -2 15 -16 0 -12 7 -24 15 -27 8 -4 15 -15 15 -26 0 -17 -5 -19
-30 -13 -26 6 -30 4 -30 -15 0 -11 -7 -23 -15 -26 -25 -10 -17 -25 10 -18 14
3 31 1 38 -4 7 -6 24 -13 37 -16 14 -3 40 -9 59 -15 19 -6 38 -8 44 -4 6 3 7
1 3 -5 -5 -8 5 -12 34 -12 28 0 39 -4 34 -11 -10 -17 32 -1 73 27 20 13 39 24
43 24 8 0 269 149 340 195 68 44 158 85 183 85 32 -1 56 -24 125 -125 82 -119
152 -208 213 -273 42 -43 53 -50 69 -42 13 7 21 7 25 0 3 -5 -1 -10 -9 -10
-28 0 -18 -16 45 -74 34 -31 53 -56 45 -56 -9 0 -16 4 -16 9 0 9 -39 23 -72
26 -34 4 -20 -32 15 -39 l32 -7 -27 -24 -27 -23 23 -15 c19 -13 452 -117 485
-117 6 0 11 6 11 14 0 12 -23 20 -95 32 -5 1 -14 3 -20 4 -5 1 -18 2 -27 1
-10 -1 -18 2 -18 6 0 5 -18 8 -40 8 -22 0 -40 3 -40 8 0 5 -8 6 -17 3 -9 -4
-19 -2 -23 4 -3 5 -22 12 -41 14 -18 3 -36 5 -39 6 -3 1 -9 3 -15 5 -5 1 -14
3 -20 5 -21 5 -31 7 -50 9 -11 1 -26 5 -34 10 -12 8 -12 12 -2 25 16 20 98 17
110 -3 5 -8 14 -11 20 -7 6 4 19 2 30 -4 13 -7 22 -7 26 0 4 6 11 7 17 4 6 -4
25 -8 42 -10 28 -3 175 -43 219 -59 13 -6 17 -2 17 17 0 20 -8 26 -47 37 -27
6 -66 21 -88 31 -71 34 -120 53 -139 54 -22 1 -29 28 -15 63 7 19 12 23 23 14
21 -17 26 -2 26 77 0 69 -1 74 -20 69 -15 -4 -20 0 -20 15 0 18 2 19 16 7 14
-12 19 -10 38 14 14 18 31 27 49 27 26 0 28 2 25 38 -3 32 -7 38 -38 48 -28 9
-31 13 -15 17 14 3 15 5 4 6 -9 0 -19 12 -21 26 -5 22 -2 25 15 19 13 -4 17
-2 13 5 -4 6 -2 11 5 11 6 0 9 8 6 20 -3 10 0 21 7 24 6 2 1 5 -12 5 -13 1
-20 -3 -17 -9 3 -5 -2 -10 -12 -10 -14 1 -10 8 17 32 21 18 27 28 15 23 -71
-27 -90 -32 -93 -24 -2 5 -13 9 -25 9 -12 0 -29 5 -37 11 -11 8 -7 9 18 4 32
-7 38 -1 26 29 -8 20 -34 21 -34 1 0 -8 -12 -18 -26 -21 -17 -4 -22 -9 -14
-14 9 -6 9 -9 -1 -16 -10 -6 -7 -10 11 -16 21 -6 20 -7 -5 -2 -16 2 -35 5 -42
6 -13 1 -5 29 11 40 6 4 1 8 -11 8 -13 0 -23 4 -23 8 0 5 -13 8 -30 7 -16 -1
-31 4 -34 12 -3 8 2 13 14 13 11 0 20 5 20 11 0 5 5 7 10 4 6 -4 17 -1 25 5 8
6 19 9 25 5 5 -3 10 -1 10 4 0 6 8 11 18 11 9 0 30 7 46 15 15 8 32 13 36 10
5 -3 11 -1 14 4 3 5 22 12 41 15 19 4 35 11 35 16 0 4 18 11 40 15 22 4 40 11
40 16 0 5 9 9 20 9 11 0 20 5 20 10 0 6 18 10 40 10 40 0 40 0 40 40 l0 40
-72 0 c-84 0 -207 24 -393 77 -136 38 -163 56 -218 137 -27 39 -56 55 -154 82
-113 31 -172 31 -226 0 -73 -41 -94 -40 -301 13 -265 69 -392 116 -473 177
l-31 24 -55 -53 c-58 -58 -215 -144 -277 -152 -19 -3 -28 -2 -20 1 8 3 34 14
57 25 24 10 45 19 48 19 18 0 169 107 199 141 20 21 41 39 48 39 6 0 26 -11
44 -25 53 -41 183 -102 264 -125 160 -46 290 -79 349 -90 58 -10 64 -9 130 20
82 35 115 37 223 9 112 -28 152 -51 201 -114 23 -30 57 -62 75 -71 102 -48
522 -138 567 -120 32 12 12 21 -53 24 -97 5 -112 6 -112 12 0 3 -15 6 -33 8
-17 1 -43 4 -57 5 -14 1 -27 4 -30 7 -10 11 -91 31 -100 25 -6 -3 -10 -2 -10
4 0 5 -20 13 -45 17 -25 3 -45 10 -45 14 0 5 -9 6 -20 3 -11 -3 -20 0 -20 6 0
6 -9 11 -20 11 -11 0 -20 5 -20 10 0 6 -7 10 -15 10 -8 0 -15 7 -15 15 0 8 -7
15 -15 15 -8 0 -15 9 -15 20 0 11 -7 20 -15 20 -8 0 -15 6 -15 14 0 8 -9 18
-20 21 -11 3 -20 11 -20 16 0 5 -9 9 -20 9 -11 0 -20 4 -20 9 0 5 -17 12 -39
16 -35 6 -39 10 -45 43 -12 74 -2 79 54 32 19 -17 37 -30 41 -30 4 0 29 -20
55 -45 47 -43 110 -82 127 -77 4 1 7 -4 7 -12 0 -8 7 -17 16 -20 15 -6 15 -4
3 11 -13 17 -13 17 14 0 15 -10 27 -13 27 -8 0 5 -26 24 -57 41 -63 36 -138
90 -193 139 -19 18 -71 64 -115 104 -82 73 -158 157 -150 166 3 2 15 -4 27
-15 13 -10 17 -12 11 -4 -21 23 -15 35 7 15 13 -12 18 -26 15 -39 -3 -12 -2
-15 1 -8 5 10 10 9 26 -4 16 -16 21 -16 28 -4 9 15 -7 33 -21 24 -4 -2 -9 6
-11 18 -2 19 -15 26 -73 41 -68 17 -626 167 -850 228 -192 52 -215 60 -209 70
3 5 10 6 16 3 6 -4 8 -3 5 2 -3 6 12 21 33 34 36 22 88 95 77 107 -3 3 -12
-10 -20 -29 -11 -27 -32 -45 -87 -77 -40 -23 -75 -39 -79 -36 -3 3 1 10 9 15
13 8 12 10 -2 10 -9 0 -22 8 -28 18 -10 15 -11 14 -6 -6 4 -21 2 -23 -18 -18
-28 7 -40 -3 -25 -21 9 -10 6 -13 -13 -13 -13 0 -34 -7 -46 -16 -13 -9 -29
-13 -37 -10 -8 3 -16 -3 -20 -12 -3 -10 -29 -29 -58 -44 -44 -22 -133 -87
-212 -156 -101 -89 -123 -103 -149 -96 -31 7 -30 3 -9 99 12 55 20 75 32 75
12 0 13 2 3 8 -8 6 7 26 52 70 35 33 79 79 97 101 19 24 41 41 53 41 15 0 17
3 8 8 -9 6 -2 20 26 50 22 23 37 42 34 42 -3 0 4 10 15 23 11 12 22 27 24 33
2 7 24 27 48 45 25 19 53 48 62 64 10 17 23 38 29 48 21 33 3 17 -29 -28z
m-58 -67 c-13 -12 -26 -18 -30 -14 -4 4 1 14 11 22 31 22 43 17 19 -8z m-253
-77 c0 -10 -73 -91 -82 -91 -4 0 0 20 8 44 12 36 21 46 42 49 15 2 28 5 30 6
1 0 2 -3 2 -8z m457 -198 c-4 -3 -10 -3 -14 0 -3 4 0 7 7 7 7 0 10 -3 7 -7z
m113 -40 c19 -3 40 -8 45 -12 6 -5 31 -14 58 -21 48 -13 72 -30 42 -30 -14 0
-159 34 -194 46 -10 3 -9 -2 4 -16 13 -15 26 -19 42 -15 22 5 34 -10 13 -17
-6 -2 -6 -8 0 -18 8 -13 10 -13 10 1 0 19 33 36 38 20 2 -5 9 -8 17 -5 7 3 16
1 19 -5 4 -6 13 -8 21 -4 17 6 21 -12 5 -22 -16 -10 -12 -25 5 -19 8 4 13 10
10 14 -14 22 81 9 96 -13 3 -5 26 -10 50 -12 91 -5 87 -4 60 -19 -15 -8 -20
-16 -12 -20 6 -4 11 -3 11 2 0 21 38 23 102 6 38 -10 68 -22 68 -26 0 -5 12
-5 26 -2 18 5 25 3 20 -4 -4 -6 2 -8 16 -4 13 3 19 1 15 -5 -5 -7 1 -9 14 -6
29 8 10 18 -61 32 -59 12 -88 26 -78 36 3 4 30 0 60 -9 176 -51 208 -61 208
-69 0 -5 -8 -6 -17 -3 -10 3 -31 8 -48 11 -28 5 -28 4 4 -8 22 -9 31 -16 23
-21 -15 -9 -16 -26 -2 -26 6 0 9 6 8 12 -2 7 8 14 22 15 14 1 19 0 13 -3 -16
-7 -17 -34 -2 -34 5 0 8 4 4 9 -8 14 14 24 28 13 7 -5 28 -9 47 -9 32 0 31 1
-17 15 -29 8 -53 21 -53 28 0 13 55 2 160 -32 25 -8 55 -14 68 -14 13 0 22 -6
22 -15 0 -16 -4 -16 -94 7 -21 5 -41 7 -44 4 -3 -3 2 -6 12 -6 9 0 14 -5 11
-10 -4 -7 3 -8 21 -4 21 5 25 4 19 -6 -5 -9 -4 -11 4 -6 20 13 71 -4 71 -23 0
-9 21 -35 48 -58 26 -23 62 -55 79 -72 33 -31 33 -31 13 -51 -11 -11 -20 -24
-20 -29 0 -14 -32 -23 -44 -11 -7 7 -5 10 7 10 37 0 14 16 -25 18 -105 6 -295
49 -325 73 -7 7 -16 10 -18 7 -3 -2 9 -15 26 -27 18 -14 67 -30 127 -42 53
-11 105 -25 116 -30 13 -7 16 -7 11 0 -3 6 -1 11 4 11 6 0 11 -5 11 -11 0 -7
10 -9 28 -5 20 5 23 4 12 -4 -12 -8 -11 -10 6 -10 12 0 24 -6 27 -14 4 -10 -5
-13 -31 -13 -21 -1 -63 -12 -94 -27 -60 -27 -148 -42 -148 -25 0 6 -9 8 -19 4
-11 -3 -22 -1 -26 5 -4 6 -15 8 -26 5 -11 -4 -19 -2 -19 5 0 7 -8 9 -20 5 -11
-3 -20 -2 -20 3 0 5 -20 13 -45 16 -25 4 -45 12 -45 17 0 5 -11 7 -25 3 -16
-4 -25 -2 -25 6 0 7 -7 10 -15 7 -8 -4 -17 -2 -20 3 -3 4 -23 11 -45 15 -22 4
-42 11 -46 16 -3 5 -9 7 -14 4 -5 -3 -11 -1 -15 5 -3 5 -15 10 -26 10 -10 0
-19 5 -19 10 0 6 -9 10 -20 10 -11 0 -20 3 -20 8 0 4 -15 14 -32 22 -18 7 -37
18 -43 22 -5 5 -22 18 -37 31 -20 16 -26 28 -22 45 7 25 24 30 24 7 0 -16 23
-19 51 -7 13 5 -6 26 -84 92 -97 82 -136 126 -89 101 18 -9 23 -8 32 8 12 24
13 41 0 21 -14 -22 -75 -22 -95 0 -10 11 -22 17 -28 13 -5 -3 -8 0 -6 6 3 7
-15 33 -38 58 -46 49 -52 63 -28 63 8 0 15 4 15 10 0 6 10 5 28 -1 15 -6 43
-13 62 -16z m-286 -70 c-4 -16 -11 -29 -16 -31 -4 -2 -8 -9 -8 -16 0 -15 -49
-114 -60 -121 -4 -2 -25 4 -46 15 -22 10 -48 22 -59 25 -17 5 -14 11 28 51 48
45 61 51 72 34 3 -5 11 -10 18 -10 6 0 2 7 -9 15 -19 15 -19 15 1 27 75 47 88
48 79 11z m156 -14 c12 -16 35 -44 51 -62 16 -17 29 -36 29 -42 -1 -11 -94 89
-111 118 -17 30 8 19 31 -14z m410 4 c130 -35 154 -43 164 -54 13 -14 -47 -5
-112 18 -25 8 -55 12 -68 9 -13 -4 -24 -2 -24 2 0 5 -14 13 -32 18 -17 5 -33
15 -36 22 -4 14 5 13 108 -15z m-501 -27 c0 -7 -2 -6 -6 2 -2 6 -8 10 -12 8
-4 -3 -8 1 -8 9 0 11 4 12 14 4 7 -6 13 -17 12 -23z m44 7 c-7 -2 -19 -2 -25
0 -7 3 -2 5 12 5 14 0 19 -2 13 -5z m22 -23 c3 -5 -3 -10 -15 -10 -12 0 -18 5
-15 10 3 6 10 10 15 10 5 0 12 -4 15 -10z m442 3 c-4 -3 -10 -3 -14 0 -3 4 0
7 7 7 7 0 10 -3 7 -7z m-1003 -29 c-6 -48 -28 -133 -38 -146 -7 -9 -25 -20
-40 -24 -28 -7 -28 -6 -21 27 10 45 43 120 62 142 16 17 39 18 37 1z m496 9
c0 -5 -5 -15 -10 -23 -8 -12 -10 -11 -10 8 0 12 5 22 10 22 6 0 10 -3 10 -7z
m64 -65 c-4 -6 -10 -5 -16 3 -8 11 -9 11 -5 -1 3 -11 17 -15 53 -14 27 1 39
-1 27 -3 -13 -2 -23 -9 -23 -14 0 -9 7 -11 45 -12 17 0 17 -1 2 -4 -10 -3 -17
-8 -15 -12 5 -14 103 -96 141 -120 35 -22 48 -41 27 -41 -5 0 -10 -7 -10 -15
0 -8 -6 -14 -12 -12 -7 1 -12 -4 -11 -10 2 -8 -7 -13 -22 -13 -34 0 -31 12 6
29 16 7 28 16 25 19 -3 2 -12 -1 -20 -7 -8 -7 -20 -10 -26 -6 -11 7 -85 -16
-132 -42 -31 -16 -30 -16 -32 42 -1 34 -4 40 -21 37 -29 -5 -32 -12 -12 -27
12 -8 14 -14 6 -17 -6 -2 -13 -17 -13 -33 -1 -19 -9 -31 -24 -36 -12 -5 -22
-5 -22 -1 0 12 14 29 30 35 12 4 11 6 -3 6 -13 1 -16 7 -11 26 7 28 -5 32 -35
13 -15 -9 -17 -16 -10 -30 5 -10 7 -18 3 -18 -3 0 -1 -7 6 -15 9 -10 9 -15 1
-15 -6 0 -11 -9 -11 -21 0 -11 -5 -17 -10 -14 -6 4 -35 -5 -66 -19 -65 -30
-74 -31 -74 -12 0 8 -7 16 -15 20 -13 4 -13 2 -5 -14 13 -25 13 -30 -2 -25 -7
3 -26 -15 -41 -40 -16 -25 -36 -45 -45 -45 -11 0 -13 3 -6 8 12 7 54 89 54
104 0 4 -8 8 -17 7 -10 0 -13 -3 -6 -5 8 -4 7 -11 -4 -24 -9 -10 -21 -16 -26
-13 -6 4 -8 -1 -4 -11 4 -9 3 -14 -2 -11 -12 7 -41 -34 -41 -59 0 -11 -3 -16
-7 -13 -3 4 -15 0 -25 -10 -28 -25 -30 -10 -3 20 14 14 25 36 25 47 0 12 4 19
9 16 5 -3 27 23 50 58 37 56 45 63 69 59 24 -4 25 -3 10 9 -19 16 -19 35 3 69
9 13 31 51 49 84 38 71 50 85 50 62 0 -9 6 -14 13 -11 13 5 53 -56 67 -104 7
-22 8 -23 9 -7 1 12 7 27 14 34 10 10 8 11 -6 5 -15 -5 -17 -2 -14 17 2 13 2
18 0 12 -3 -8 -21 8 -43 36 -35 45 -38 52 -27 75 16 34 39 43 33 13 -2 -12 -7
-31 -11 -42 -4 -13 7 -5 31 20 20 22 34 32 31 22 -5 -13 -3 -17 5 -14 7 2 12
12 11 22 0 9 6 25 15 34 16 17 18 17 45 -1 15 -11 24 -24 21 -30z m-7 46 c-3
-3 -12 -4 -19 -1 -8 3 -5 6 6 6 11 1 17 -2 13 -5z m-122 -22 c-3 -3 -11 0 -18
7 -9 10 -8 11 6 5 10 -3 15 -9 12 -12z m162 2 c-3 -3 -12 -4 -19 -1 -8 3 -5 6
6 6 11 1 17 -2 13 -5z m16 -21 c-7 -2 -19 -2 -25 0 -7 3 -2 5 12 5 14 0 19 -2
13 -5z m103 -21 c10 -9 47 -40 81 -68 34 -29 60 -54 57 -57 -6 -6 -8 -5 -106
78 -38 32 -68 59 -68 61 0 9 18 3 36 -14z m69 8 c3 -5 1 -10 -4 -10 -6 0 -11
5 -11 10 0 6 2 10 4 10 3 0 8 -4 11 -10z m-108 -56 c-3 -3 -12 -4 -19 -1 -8 3
-5 6 6 6 11 1 17 -2 13 -5z m30 -20 c-3 -3 -12 -4 -19 -1 -8 3 -5 6 6 6 11 1
17 -2 13 -5z m24 -23 c-11 -7 -9 -10 10 -14 21 -4 22 -4 3 -6 -12 0 -27 6 -34
14 -10 13 -9 15 11 15 18 0 20 -3 10 -9z m-721 -10 c0 -8 -69 -41 -117 -56
-17 -5 -23 -2 -23 9 0 9 5 16 11 16 5 0 8 4 4 9 -3 5 -1 12 5 16 5 3 10 2 10
-4 0 -6 13 -4 33 4 36 16 77 19 77 6z m905 -1 c3 -5 4 -10 1 -10 -3 0 -8 5
-11 10 -3 6 -4 10 -1 10 3 0 8 -4 11 -10z m-114 -37 c21 -10 39 -21 39 -25 0
-15 -21 -8 -58 17 -43 29 -35 32 19 8z m-64 -130 c-4 -3 -10 -3 -14 0 -3 4 0
7 7 7 7 0 10 -3 7 -7z m-20 -20 c-4 -3 -10 -3 -14 0 -3 4 0 7 7 7 7 0 10 -3 7
-7z m-27 -13 c0 -5 -4 -10 -10 -10 -5 0 -10 5 -10 10 0 6 5 10 10 10 6 0 10
-4 10 -10z m-181 -41 c-8 -5 -17 -3 -21 4 -6 9 -8 9 -8 0 0 -7 -4 -13 -10 -13
-21 0 -9 19 18 28 29 10 45 -4 21 -19z m1355 25 c24 -9 20 -33 -4 -27 -11 3
-20 12 -20 19 0 16 2 16 24 8z m-29 -44 c3 -5 2 -10 -4 -10 -5 0 -13 5 -16 10
-3 6 -2 10 4 10 5 0 13 -4 16 -10z m42 -17 c-4 -3 -10 -3 -14 0 -3 4 0 7 7 7
7 0 10 -3 7 -7z m-1617 -53 c0 -5 -5 -10 -11 -10 -5 0 -7 5 -4 10 3 6 8 10 11
10 2 0 4 -4 4 -10z m215 -8 c-16 -14 -168 -72 -173 -67 -3 3 8 10 24 16 16 5
54 21 84 34 59 25 80 31 65 17z m1322 -9 c-4 -3 -10 -3 -14 0 -3 4 0 7 7 7 7
0 10 -3 7 -7z m60 -10 c-4 -3 -10 -3 -14 0 -3 4 0 7 7 7 7 0 10 -3 7 -7z
m-590 -222 c-4 -33 -1 -51 6 -55 7 -2 6 -5 -3 -5 -17 -1 -42 13 -41 23 5 32
-1 46 -19 46 -11 0 -20 -4 -20 -10 0 -5 -7 -10 -15 -10 -8 0 -15 -4 -15 -10 0
-5 -7 -10 -15 -10 -8 0 -15 6 -15 14 0 16 27 29 41 20 5 -3 8 0 7 8 -3 13 16
15 57 7 14 -3 20 1 19 14 -1 9 3 17 8 17 6 0 8 -20 5 -49z m-310 23 c-3 -3
-12 -4 -19 -1 -8 3 -5 6 6 6 11 1 17 -2 13 -5z m89 -9 c4 -8 15 -15 26 -15 10
0 16 5 13 10 -3 6 0 10 8 10 8 0 17 -9 20 -20 3 -11 2 -20 -1 -20 -18 1 -105
28 -92 29 13 1 13 2 0 11 -13 8 -12 10 3 10 10 0 20 -7 23 -15z m-766 1 c0 -3
-5 -8 -12 -12 -7 -4 -8 -3 -4 4 7 12 16 16 16 8z m717 -2 c-3 -3 -12 -4 -19
-1 -8 3 -5 6 6 6 11 1 17 -2 13 -5z m1240 -11 c-4 -3 -10 -3 -14 0 -3 4 0 7 7
7 7 0 10 -3 7 -7z m-1992 -23 c-3 -5 -12 -10 -18 -10 -7 0 -6 4 3 10 19 12 23
12 15 0z m795 -19 c57 -13 63 -13 55 -1 -3 6 -1 10 4 10 6 0 11 -4 11 -9 0
-10 34 -25 60 -26 8 -1 28 -7 43 -15 25 -12 30 -12 38 1 7 12 9 11 9 -3 0 -17
62 -34 107 -29 13 1 30 -5 39 -14 10 -9 26 -14 37 -11 11 2 26 -2 34 -10 21
-20 7 -18 -123 16 -62 16 -127 32 -146 35 -18 3 -62 15 -97 25 -35 11 -71 20
-80 20 -9 1 -29 7 -46 15 -16 8 -21 13 -10 10 11 -2 40 -9 65 -14z m157 -8
c-3 -3 -11 -2 -17 2 -9 6 -9 10 1 16 14 8 27 -7 16 -18z m203 18 c0 -4 -11 -6
-25 -3 -14 2 -25 6 -25 8 0 2 11 4 25 4 14 0 25 -4 25 -9z m-1190 -21 c0 -5
-4 -10 -10 -10 -5 0 -10 5 -10 10 0 6 5 10 10 10 6 0 10 -4 10 -10z m728 -10
c25 -23 27 -35 10 -46 -7 -4 -8 -3 -4 5 4 6 0 14 -8 17 -9 3 -16 12 -16 19 0
7 -6 16 -12 18 -7 3 -8 6 -2 6 5 1 20 -8 32 -19z m519 13 c-4 -3 -10 -3 -14 0
-3 4 0 7 7 7 7 0 10 -3 7 -7z m-140 -19 c-3 -3 -12 -4 -19 -1 -8 3 -5 6 6 6
11 1 17 -2 13 -5z m81 -14 c8 0 13 -2 10 -5 -3 -3 -20 -2 -38 2 -28 5 -31 8
-15 13 11 4 22 3 23 -1 2 -5 11 -9 20 -9z m62 -10 c-13 -8 -12 -10 4 -10 11 0
17 -2 14 -5 -3 -4 -18 -3 -34 1 -25 6 -26 8 -9 15 28 11 43 10 25 -1z m-395
-20 c3 -5 -1 -10 -9 -10 -9 0 -16 5 -16 10 0 6 4 10 9 10 6 0 13 -4 16 -10z
m-155 -30 c0 -16 -5 -30 -12 -30 -6 0 -8 3 -5 7 4 3 -1 12 -11 19 -16 13 -16
13 1 14 10 0 15 5 12 10 -3 6 -1 10 4 10 6 0 11 -13 11 -30z m276 21 c-4 -5
11 -15 32 -23 39 -13 39 -13 20 -33 -19 -20 -19 -20 -12 0 6 16 5 18 -7 8 -20
-19 -43 -16 -57 8 -11 18 -11 23 5 35 21 16 26 17 19 5z m331 2 c-4 -3 -10 -3
-14 0 -3 4 0 7 7 7 7 0 10 -3 7 -7z m46 -10 c-7 -2 -19 -2 -25 0 -7 3 -2 5 12
5 14 0 19 -2 13 -5z m-233 -22 c0 -32 119 -60 121 -28 0 6 4 2 9 -10 5 -13 17
-23 26 -23 13 0 14 -3 4 -14 -10 -13 -16 -12 -46 4 -30 17 -55 24 -126 34 -10
1 -20 5 -24 8 -3 4 -13 4 -22 1 -10 -4 -13 -2 -8 5 4 7 16 12 27 12 10 0 19 7
19 15 0 8 5 15 10 15 6 0 10 -9 10 -19z m267 12 c-4 -3 -10 -3 -14 0 -3 4 0 7
7 7 7 0 10 -3 7 -7z m-637 -49 c0 -8 6 -17 14 -20 8 -3 12 -13 9 -25 -5 -17
-11 -19 -37 -13 -17 3 -40 11 -51 18 -18 10 -16 11 18 14 20 2 37 7 37 13 0 5
-4 9 -10 9 -5 0 -10 7 -10 15 0 9 6 12 15 9 8 -4 15 -13 15 -20z m567 19 c-4
-3 -10 -3 -14 0 -3 4 0 7 7 7 7 0 10 -3 7 -7z m-667 -18 c0 -8 -4 -15 -10 -15
-5 0 -10 7 -10 15 0 8 5 15 10 15 6 0 10 -7 10 -15z m717 9 c-3 -3 -12 -4 -19
-1 -8 3 -5 6 6 6 11 1 17 -2 13 -5z m273 -10 c0 -8 -4 -12 -10 -9 -5 3 -10 10
-10 16 0 5 5 9 10 9 6 0 10 -7 10 -16z m-243 -1 c-4 -3 -10 -3 -14 0 -3 4 0 7
7 7 7 0 10 -3 7 -7z m40 -9 c-3 -3 -12 -4 -19 -1 -8 3 -5 6 6 6 11 1 17 -2 13
-5z m-881 -31 c-10 -10 -19 5 -10 18 6 11 8 11 12 0 2 -7 1 -15 -2 -18z m315
14 c-1 -12 -15 -9 -19 4 -3 6 1 10 8 8 6 -3 11 -8 11 -12z m522 -17 c3 -12 0
-20 -8 -20 -7 0 -12 11 -12 25 0 28 12 25 20 -5z m147 8 c0 -6 -7 -7 -16 -4
-9 3 -20 6 -25 6 -5 0 -9 4 -9 9 0 4 11 6 25 3 14 -2 25 -9 25 -14z m108 -5
c12 -17 16 -55 6 -65 -3 -3 -21 -1 -40 5 -30 9 -34 14 -34 44 0 20 -4 32 -10
28 -5 -3 -10 -1 -10 4 0 17 73 4 88 -16z m19 20 c-4 -3 -10 -3 -14 0 -3 4 0 7
7 7 7 0 10 -3 7 -7z m-1019 -20 c-2 -9 -8 -18 -15 -20 -7 -3 -9 3 -6 16 6 25
26 28 21 4z m1059 10 c-4 -3 -10 -3 -14 0 -3 4 0 7 7 7 7 0 10 -3 7 -7z m40
-10 c-4 -3 -10 -3 -14 0 -3 4 0 7 7 7 7 0 10 -3 7 -7z m-747 -18 c0 -8 -7 -15
-15 -15 -8 0 -15 7 -15 15 0 8 7 15 15 15 8 0 15 -7 15 -15z m787 8 c-4 -3
-10 -3 -14 0 -3 4 0 7 7 7 7 0 10 -3 7 -7z m133 -3 c0 -5 -4 -10 -9 -10 -6 0
-13 5 -16 10 -3 6 1 10 9 10 9 0 16 -4 16 -10z m-1450 -10 c0 -5 -4 -10 -10
-10 -5 0 -10 5 -10 10 0 6 5 10 10 10 6 0 10 -4 10 -10z m827 3 c-4 -3 -10 -3
-14 0 -3 4 0 7 7 7 7 0 10 -3 7 -7z m-576 -13 c5 0 9 -8 9 -17 0 -13 -3 -14
-12 -5 -8 8 -15 9 -25 1 -10 -9 -13 -7 -13 11 0 16 4 20 16 16 9 -3 20 -6 25
-6z m999 0 c12 -8 12 -10 -5 -10 -11 0 -27 5 -35 10 -12 8 -12 10 5 10 11 0
27 -5 35 -10z m147 3 c-4 -3 -10 -3 -14 0 -3 4 0 7 7 7 7 0 10 -3 7 -7z m-853
-24 c17 -15 0 -20 -39 -11 -53 11 -61 36 -9 26 22 -3 43 -10 48 -15z m114 9
c-3 -7 -11 -13 -18 -13 -7 0 -15 6 -17 13 -3 7 4 12 17 12 13 0 20 -5 18 -12z
m719 -22 c12 -4 24 -2 28 4 9 15 25 12 25 -5 0 -17 -18 -19 -69 -5 -20 5 -49
12 -66 16 -26 5 -27 7 -11 13 11 4 31 2 45 -5 14 -6 36 -15 48 -18z m60 27
c-4 -3 -10 -3 -14 0 -3 4 0 7 7 7 7 0 10 -3 7 -7z m-1535 -25 c-7 -7 -12 -8
-12 -2 0 14 12 26 19 19 2 -3 -1 -11 -7 -17z m125 5 c-4 -3 -7 0 -7 7 0 7 3
10 7 7 3 -4 3 -10 0 -14z m1460 11 c-3 -3 -12 -4 -19 -1 -8 3 -5 6 6 6 11 1
17 -2 13 -5z m30 -11 c-4 -3 -10 -3 -14 0 -3 4 0 7 7 7 7 0 10 -3 7 -7z m-742
-13 c-3 -5 -10 -10 -16 -10 -5 0 -9 5 -9 10 0 6 7 10 16 10 8 0 12 -4 9 -10z
m-625 -27 c0 -9 -7 -25 -17 -35 -15 -17 -15 -19 0 -36 23 -25 21 -59 -2 -72
-28 -15 -39 -12 -17 5 24 19 14 47 -16 43 -13 -2 -29 -11 -37 -21 -9 -13 -22
-18 -42 -15 -28 4 -41 -6 -18 -14 13 -4 -9 -48 -25 -48 -4 0 -3 7 4 15 7 8 9
15 4 16 -5 0 -17 2 -26 4 -12 2 -15 -3 -13 -16 5 -23 -1 -24 -21 -5 -17 17
-19 30 -3 20 7 -4 9 0 5 14 -5 15 3 31 33 61 22 23 48 41 58 41 10 0 28 11 41
25 20 21 39 29 80 34 6 0 12 -7 12 -16z m576 8 c5 -5 24 -11 41 -13 25 -2 30
-6 24 -17 -6 -9 -15 -11 -27 -6 -11 4 -26 7 -35 6 -9 -1 -19 7 -22 19 -5 21 3
26 19 11z m451 2 c-4 -3 -10 -3 -14 0 -3 4 0 7 7 7 7 0 10 -3 7 -7z m318 -3
c8 -13 -25 -13 -45 0 -12 8 -9 10 12 10 15 0 30 -4 33 -10z m104 1 c11 -7 11
-10 0 -16 -9 -6 -8 -10 7 -16 18 -7 18 -8 -1 -8 -22 0 -67 17 -47 18 6 1 12 8
12 16 0 17 9 19 29 6z m-1989 -5 c0 -2 -7 -7 -16 -10 -8 -3 -12 -2 -9 4 6 10
25 14 25 6z m806 -16 c8 -8 19 -7 37 1 19 8 34 9 54 2 15 -6 41 -11 58 -12 46
-2 62 -23 47 -64 -16 -44 -15 -47 8 -47 14 0 20 -7 20 -22 0 -17 -3 -19 -12
-10 -17 17 -26 15 -24 -5 0 -12 -7 -19 -22 -21 -20 -3 -22 0 -17 21 7 27 4 31
-38 41 -33 8 -51 -20 -23 -36 9 -5 14 -13 11 -18 -7 -11 -34 -2 -58 18 -16 14
-50 21 -102 22 -11 0 -35 2 -52 5 -40 7 -45 35 -8 35 24 0 25 3 20 33 -6 34 1
51 25 60 25 9 65 8 76 -3z m504 0 c0 -5 -4 -10 -9 -10 -6 0 -13 5 -16 10 -3 6
1 10 9 10 9 0 16 -4 16 -10z m414 4 c9 -3 13 -11 10 -16 -4 -6 0 -15 7 -20 11
-8 10 -8 -4 -4 -10 3 -26 6 -35 6 -10 0 -23 9 -30 20 -11 18 -10 20 12 20 13
0 31 -3 40 -6z m203 0 c-3 -3 -12 -4 -19 -1 -8 3 -5 6 6 6 11 1 17 -2 13 -5z
m-2260 -46 c-3 -8 -6 -5 -6 6 -1 11 2 17 5 13 3 -3 4 -12 1 -19z m2183 12 c12
-8 11 -10 -7 -10 -13 0 -23 5 -23 10 0 13 11 13 30 0z m-700 -22 c0 -16 -3
-19 -11 -11 -6 6 -18 9 -25 6 -8 -3 -14 1 -14 11 0 10 9 16 25 16 19 0 25 -5
25 -22z m-1150 2 c0 -5 -5 -10 -11 -10 -5 0 -7 5 -4 10 3 6 8 10 11 10 2 0 4
-4 4 -10z m2137 3 c-4 -3 -10 -3 -14 0 -3 4 0 7 7 7 7 0 10 -3 7 -7z m48 -3
c-3 -5 -10 -10 -16 -10 -5 0 -9 5 -9 10 0 6 7 10 16 10 8 0 12 -4 9 -10z
m-2672 -20 c3 -11 1 -18 -4 -14 -5 3 -9 12 -9 20 0 20 7 17 13 -6z m732 10 c3
-5 1 -10 -4 -10 -6 0 -11 5 -11 10 0 6 2 10 4 10 3 0 8 -4 11 -10z m1729 4 c9
-3 16 -12 16 -20 0 -8 5 -14 11 -14 5 0 7 -5 3 -11 -4 -8 -9 -7 -14 2 -5 7
-17 13 -27 14 -23 1 -43 13 -43 26 0 10 30 12 54 3z m126 -40 c0 -8 -4 -12
-10 -9 -5 3 -10 10 -10 16 0 5 5 9 10 9 6 0 10 -7 10 -16z m-2443 -1 c-4 -3
-10 -3 -14 0 -3 4 0 7 7 7 7 0 10 -3 7 -7z m2093 -13 c0 -11 4 -20 8 -20 4 0
8 -9 8 -20 0 -24 -9 -25 -31 -4 -11 11 -20 13 -26 7 -7 -7 -5 -15 8 -24 11 -8
22 -23 26 -34 4 -11 -8 -3 -27 20 -20 22 -35 46 -36 53 0 7 -4 10 -10 7 -5 -3
-10 -1 -10 6 0 6 8 9 18 6 59 -19 67 -20 55 -6 -17 18 -16 29 2 29 8 0 15 -9
15 -20z m-2050 0 c0 -5 -7 -7 -15 -4 -8 4 -15 8 -15 10 0 2 7 4 15 4 8 0 15
-4 15 -10z m50 -36 c0 -2 -9 0 -20 6 -11 6 -20 13 -20 16 0 2 9 0 20 -6 11 -6
20 -13 20 -16z m110 11 c0 -2 -7 -5 -15 -9 -9 -3 -15 0 -15 9 0 9 6 12 15 9 8
-4 15 -7 15 -9z m2010 -1 c0 -17 -22 -14 -28 4 -2 7 3 12 12 12 9 0 16 -7 16
-16z m-2312 -19 c-3 -3 -9 2 -12 12 -6 14 -5 15 5 6 7 -7 10 -15 7 -18z m2430
-7 c-5 -15 -23 -11 -26 6 -2 11 2 14 13 10 9 -4 14 -11 13 -16z m-2148 -20 c0
-15 23 -46 63 -85 101 -100 146 -149 114 -125 -32 23 -66 20 -46 -5 10 -11 14
-11 20 -1 8 12 13 4 10 -14 0 -5 4 -8 11 -8 6 0 8 -3 4 -7 -4 -5 -23 -8 -41
-8 -27 0 -32 3 -24 16 6 12 2 22 -11 34 -11 10 -20 15 -20 10 0 -4 6 -13 14
-19 13 -9 13 -13 1 -23 -9 -8 -16 -9 -20 -3 -3 6 -1 10 6 10 6 0 0 12 -14 26
-19 18 -30 23 -42 17 -13 -8 -11 -13 16 -37 17 -15 28 -31 24 -34 -3 -4 -10 0
-15 8 -6 8 -10 10 -10 5 0 -6 6 -17 13 -24 10 -10 9 -11 -3 -6 -11 4 -16 -1
-16 -13 0 -19 1 -19 43 -1 41 18 73 17 73 -2 0 -5 -4 -9 -10 -9 -5 0 -10 5
-10 10 0 6 -5 10 -11 10 -8 0 -8 -5 1 -15 7 -8 20 -15 29 -15 10 0 28 -12 42
-27 13 -14 19 -23 13 -20 -7 4 -14 1 -17 -7 -4 -10 1 -13 18 -12 29 4 50 -8
41 -23 -4 -6 -12 -9 -17 -6 -5 3 -7 0 -4 -7 3 -7 -8 -28 -24 -45 -16 -18 -31
-38 -34 -45 -4 -9 -6 -7 -6 4 -1 24 -19 32 -37 17 -12 -9 -13 -9 -10 2 6 15
-36 69 -53 69 -19 0 -19 16 0 17 10 1 35 -13 54 -31 19 -18 36 -28 38 -22 4
12 -132 120 -141 112 -3 -4 3 -13 14 -20 21 -16 19 -20 -13 -30 -19 -6 -23 -3
-23 13 0 11 -8 25 -17 30 -16 10 -17 12 -2 23 19 15 14 39 -7 31 -7 -3 -11 -9
-8 -14 3 -5 -1 -9 -8 -9 -9 0 -13 16 -13 54 0 55 0 55 23 40 19 -13 22 -13 22
1 0 8 -7 15 -16 15 -11 0 -14 5 -10 16 3 9 6 20 6 25 0 6 5 7 10 4 6 -4 10 6
10 22 0 22 -2 25 -10 13 -6 -9 -10 -10 -10 -3 0 6 5 15 11 18 6 4 10 19 9 33
-4 55 0 92 10 92 6 0 10 -10 10 -22z m2132 -8 c18 0 28 -5 28 -15 0 -17 -18
-19 -54 -5 -14 5 -26 17 -26 27 0 13 3 14 12 5 7 -7 25 -12 40 -12z m131 -1
c4 -15 2 -19 -10 -15 -8 3 -17 6 -19 6 -2 0 -4 7 -4 15 0 23 27 18 33 -6z
m-1806 -11 c-3 -8 -6 -5 -6 6 -1 11 2 17 5 13 3 -3 4 -12 1 -19z m601 -4 c12
-4 22 -12 22 -19 0 -16 -72 -5 -78 13 -4 13 19 15 56 6z m1320 -12 c2 -7 -3
-12 -12 -12 -9 0 -16 7 -16 16 0 17 22 14 28 -4z m-2321 1 c-4 -3 -10 -3 -14
0 -3 4 0 7 7 7 7 0 10 -3 7 -7z m1958 -13 c9 -15 48 -13 39 3 -6 10 -4 10 7 0
7 -7 21 -13 32 -13 10 0 25 -7 34 -15 8 -9 28 -19 44 -22 40 -8 82 -65 77
-105 -4 -24 -1 -32 14 -36 19 -5 26 -32 8 -32 -6 0 -24 7 -39 15 -26 13 -30
13 -41 -1 -11 -13 -15 -13 -31 2 -11 10 -19 23 -19 29 0 7 -8 12 -17 11 -10 0
-22 9 -28 22 -11 24 -25 30 -25 10 0 -22 -17 -41 -29 -34 -7 5 -4 14 9 28 25
27 26 45 3 45 -54 -1 -73 4 -73 18 0 9 -9 15 -22 15 -12 0 -18 3 -15 7 4 3 0
15 -10 25 -15 17 -15 18 5 18 13 0 22 -6 22 -16 0 -8 5 -12 10 -9 6 3 10 15
10 26 0 20 24 26 35 9z m232 3 c-4 -3 -10 -3 -14 0 -3 4 0 7 7 7 7 0 10 -3 7
-7z m101 -32 c8 -24 -31 -6 -40 18 -8 23 -7 23 14 9 12 -8 24 -20 26 -27z
m-1648 -11 c50 -34 116 -67 168 -84 37 -13 52 -22 48 -32 -3 -8 -1 -14 4 -14
6 0 10 6 10 14 0 12 7 12 49 -1 47 -13 439 -102 791 -179 91 -20 171 -38 178
-40 16 -5 15 -26 -3 -50 -12 -15 -16 -16 -24 -5 -5 8 -16 11 -30 6 -13 -4 -21
-2 -21 5 0 8 -9 10 -26 6 -19 -5 -24 -3 -18 5 5 9 -1 10 -25 6 -18 -4 -30 -3
-27 2 3 5 -1 11 -8 14 -8 3 -17 1 -19 -6 -3 -8 -10 -5 -21 8 -13 17 -17 18
-25 5 -9 -13 -12 -12 -25 5 -13 17 -17 18 -25 5 -9 -13 -12 -12 -25 5 -12 16
-16 17 -30 6 -14 -11 -16 -11 -16 3 0 9 -7 16 -15 16 -8 0 -15 -4 -15 -10 0
-5 -4 -10 -10 -10 -5 0 -10 7 -10 15 0 18 -30 20 -30 3 -1 -8 -6 -6 -14 5 -10
13 -21 16 -41 11 -22 -5 -26 -4 -20 6 6 10 2 11 -19 6 -15 -4 -26 -2 -26 4 0
5 -7 10 -15 10 -8 0 -15 -4 -15 -10 0 -5 -7 -7 -15 -4 -8 4 -12 11 -8 17 4 6
-2 8 -17 4 -16 -4 -28 0 -37 11 -11 15 -14 15 -22 2 -9 -13 -12 -12 -25 5 -12
16 -17 17 -27 8 -10 -10 -15 -9 -25 4 -10 15 -14 15 -28 4 -13 -11 -17 -11
-22 3 -4 11 -13 14 -30 10 -15 -4 -24 -2 -24 6 0 8 -9 10 -24 6 -17 -4 -26 -1
-30 10 -5 13 -9 14 -21 4 -13 -11 -18 -10 -31 6 -11 14 -17 15 -20 7 -8 -18
-27 -16 -20 2 4 10 -1 15 -14 15 -11 0 -20 -4 -20 -10 0 -5 -4 -10 -10 -10 -5
0 -10 6 -10 14 0 8 -7 16 -15 20 -8 3 -15 1 -15 -4 0 -6 -4 -10 -10 -10 -5 0
-10 7 -10 16 0 12 -7 14 -30 9 -23 -5 -30 -3 -28 7 2 9 -6 12 -24 11 -19 -1
-28 3 -28 13 0 8 -9 14 -20 14 -21 0 -25 7 -12 28 5 7 17 10 28 6 10 -3 2 5
-18 20 l-37 26 -37 -34 c-20 -18 -32 -36 -26 -40 5 -3 12 4 15 15 4 14 11 20
21 16 8 -3 17 1 20 9 3 9 10 13 15 10 5 -3 -4 -20 -20 -38 -23 -24 -27 -33
-17 -40 9 -5 5 -7 -12 -6 -16 2 -24 -2 -22 -10 2 -9 -4 -11 -18 -7 -15 5 -20
2 -20 -11 0 -13 -3 -14 -15 -4 -8 7 -16 10 -16 6 -1 -3 -3 -10 -4 -16 -1 -5
-3 -13 -4 -17 -1 -5 -5 -2 -10 6 -5 7 -14 10 -20 7 -6 -4 -8 -12 -5 -18 4 -6
-1 -8 -15 -3 -16 5 -20 3 -15 -9 5 -12 -2 -14 -35 -11 -33 3 -41 0 -41 -13 0
-13 -6 -10 -25 12 -14 16 -28 26 -33 22 -4 -4 2 -14 12 -22 11 -8 17 -14 14
-14 -4 0 -13 -3 -21 -6 -10 -4 -15 1 -14 13 1 12 -4 17 -17 16 -26 -2 -7 14
27 22 17 5 27 3 27 -4 0 -6 6 -11 13 -11 16 0 157 67 157 75 0 5 -20 -2 -93
-34 -47 -20 -74 -20 -61 0 3 5 9 7 14 4 16 -10 178 75 227 119 49 45 58 46
103 16z m-143 -27 c-4 -3 -10 -3 -14 0 -3 4 0 7 7 7 7 0 10 -3 7 -7z m-27 -13
c0 -5 -5 -10 -11 -10 -5 0 -7 5 -4 10 3 6 8 10 11 10 2 0 4 -4 4 -10z m-30
-21 c0 -6 -7 -9 -15 -5 -8 3 -15 2 -15 -3 0 -5 -12 -12 -27 -16 -15 -3 -31
-11 -34 -17 -4 -5 -18 -11 -33 -11 -14 -1 -26 -5 -26 -9 0 -4 -7 -5 -15 -2 -8
4 -15 1 -15 -5 0 -6 -7 -8 -15 -5 -8 4 -15 1 -15 -6 0 -6 -4 -8 -10 -5 -5 3
-10 1 -10 -5 0 -7 -7 -10 -15 -7 -8 4 -17 2 -20 -4 -4 -5 -10 -7 -15 -4 -5 3
-11 1 -15 -5 -3 -5 -12 -10 -18 -10 -29 1 63 46 165 81 61 21 113 41 116 44
10 9 32 5 32 -6z m1527 -25 c-3 -3 -12 -4 -19 -1 -8 3 -5 6 6 6 11 1 17 -2 13
-5z m-1982 -24 c3 -5 4 -10 1 -10 -3 0 -8 5 -11 10 -3 6 -4 10 -1 10 3 0 8 -4
11 -10z m-352 -7 c-7 -2 -21 -2 -30 0 -10 3 -4 5 12 5 17 0 24 -2 18 -5z m24
-19 c-3 -3 -12 -4 -19 -1 -8 3 -5 6 6 6 11 1 17 -2 13 -5z m964 -61 c13 -16
12 -17 -3 -4 -10 7 -18 15 -18 17 0 8 8 3 21 -13z m1436 10 c-4 -3 -10 -3 -14
0 -3 4 0 7 7 7 7 0 10 -3 7 -7z m33 -19 c0 -8 -4 -12 -10 -9 -5 3 -10 10 -10
16 0 5 5 9 10 9 6 0 10 -7 10 -16z m27 -11 c-4 -3 -7 0 -7 7 0 7 3 10 7 7 3
-4 3 -10 0 -14z m-1448 -3 c10 -5 33 -12 51 -15 29 -5 32 -4 20 10 -11 13 -10
14 4 9 10 -4 15 -12 12 -20 -3 -7 2 -18 9 -24 10 -9 12 -17 5 -30 -7 -13 -4
-22 9 -34 16 -15 19 -15 24 -2 4 10 1 13 -9 9 -9 -3 -14 2 -14 16 0 22 10 27
26 11 6 -6 15 -6 24 0 13 8 12 10 -3 10 -27 0 -59 19 -51 31 4 6 12 4 23 -5
10 -9 20 -13 23 -10 4 3 20 -2 37 -11 17 -8 31 -12 31 -8 0 4 4 3 10 -3 5 -5
11 -29 12 -53 1 -26 7 -45 15 -48 11 -4 10 -8 -3 -17 -20 -15 -15 -58 9 -62
16 -2 21 7 18 34 -1 6 3 12 9 12 5 0 10 -4 10 -10 0 -5 8 -10 18 -11 13 0 14
-2 2 -6 -29 -11 -30 -28 -3 -35 15 -4 29 -6 31 -3 2 2 7 36 10 76 4 44 12 74
20 77 7 2 13 -7 14 -25 0 -15 2 -50 3 -78 4 -70 4 -72 15 -55 7 12 10 12 10 1
0 -8 6 -11 16 -7 8 3 22 -1 30 -9 26 -26 33 -17 40 54 3 38 10 74 14 81 6 9
26 8 91 -5 46 -10 88 -22 93 -26 6 -5 18 -9 28 -9 10 0 21 -7 24 -15 4 -8 10
-12 15 -9 5 3 9 -28 9 -70 0 -76 10 -97 35 -76 12 10 15 9 15 -4 0 -9 6 -16
14 -16 8 0 21 -3 30 -6 13 -5 16 3 16 49 0 31 5 59 10 62 16 10 12 21 -12 34
-14 7 -16 9 -5 6 10 -3 25 -5 33 -5 9 0 14 -11 14 -35 0 -21 5 -35 13 -36 10
0 10 -2 0 -6 -7 -2 -13 -20 -13 -39 0 -21 4 -33 10 -29 6 3 10 0 10 -7 0 -10
2 -10 9 1 5 8 7 21 3 29 -3 10 -1 13 6 8 7 -4 10 -17 6 -33 -7 -25 -5 -26 25
-20 33 7 42 -6 15 -21 -10 -5 -28 -6 -43 -1 -14 5 -91 23 -171 39 -80 17 -185
40 -234 51 -48 11 -91 18 -93 15 -3 -3 -15 0 -26 6 -24 13 -240 60 -282 61
-31 2 -56 17 -48 30 2 4 0 7 -6 7 -5 0 -11 -4 -13 -9 -2 -6 -24 -4 -53 4 -65
17 -69 18 -75 15 -22 -8 -42 -6 -47 6 -3 8 -9 14 -15 14 -16 0 -88 62 -82 71
9 15 24 10 18 -6 -5 -13 -2 -13 27 -1 26 11 35 21 37 43 2 18 14 36 35 51 l32
22 -30 1 -30 1 30 8 c17 4 31 8 33 9 2 0 11 -3 21 -9z m-112 -16 c-3 -3 -12
-4 -19 -1 -8 3 -5 6 6 6 11 1 17 -2 13 -5z m1560 -1 c-4 -3 -10 -3 -14 0 -3 4
0 7 7 7 7 0 10 -3 7 -7z m-1600 -9 c-3 -3 -12 -4 -19 -1 -8 3 -5 6 6 6 11 1
17 -2 13 -5z m-297 -29 c-7 -9 -15 -13 -18 -10 -3 2 1 11 8 20 7 9 15 13 18
10 3 -2 -1 -11 -8 -20z m1937 -2 c-4 -3 -10 -3 -14 0 -3 4 0 7 7 7 7 0 10 -3
7 -7z m53 -23 c0 -5 -7 -10 -16 -10 -8 0 -12 5 -9 10 3 6 10 10 16 10 5 0 9
-4 9 -10z m-1989 -27 c12 -14 12 -16 0 -8 -9 5 -12 4 -7 -3 4 -6 13 -9 21 -6
9 4 18 -2 22 -12 7 -19 32 -43 45 -44 3 0 9 8 11 18 3 10 5 6 6 -10 1 -17 7
-28 15 -28 11 0 57 -20 85 -38 3 -1 -1 -8 -9 -15 -10 -9 -11 -9 -6 1 4 6 3 12
-3 12 -5 0 -12 -9 -16 -20 -6 -19 -8 -19 -47 6 -28 18 -39 21 -35 11 3 -8 3
-18 -1 -22 -11 -11 -9 -29 5 -43 7 -7 13 -18 13 -23 0 -14 -16 -11 -30 5 -6 8
-18 12 -25 9 -9 -3 -17 5 -21 21 -6 26 -43 44 -63 31 -13 -7 -81 15 -81 27 0
12 14 10 36 -7 26 -20 44 -19 44 3 0 10 -14 26 -31 36 -21 12 -28 21 -21 28
16 16 75 -30 69 -53 -3 -12 0 -19 10 -19 10 0 13 6 9 16 -5 13 -1 15 19 12 33
-7 33 10 0 18 -14 3 -25 13 -25 21 0 9 -6 13 -15 9 -21 -8 -43 3 -41 20 2 13
41 64 50 64 2 0 10 -8 17 -17z m1140 -10 c13 -16 12 -17 -3 -4 -17 13 -22 21
-14 21 2 0 10 -8 17 -17z m56 -30 c-4 -3 -10 -3 -14 0 -3 4 0 7 7 7 7 0 10 -3
7 -7z m62 -23 c12 -18 13 -22 2 -19 -8 3 -21 16 -30 29 -12 18 -13 22 -2 19 8
-3 21 -16 30 -29z m-1485 -25 c16 -12 17 -15 4 -15 -9 0 -18 -6 -21 -12 -2 -7
-6 -1 -9 15 -6 31 -1 33 26 12z m1128 -30 c2 -19 0 -35 -4 -35 -4 0 -8 16 -8
35 0 19 2 35 4 35 2 0 6 -16 8 -35z m-185 8 c-4 -3 -7 0 -7 7 0 7 3 10 7 7 3
-4 3 -10 0 -14z m1066 -5 c-18 -20 -29 -17 -20 5 3 7 12 14 21 14 15 0 14 -2
-1 -19z m-254 -70 c-40 -35 -30 -36 21 -2 35 23 42 25 74 14 37 -12 51 -36 16
-27 -11 3 -20 1 -20 -4 0 -5 -6 -9 -12 -9 -7 0 -24 -10 -38 -21 l-25 -21 25
14 c40 24 82 31 91 16 7 -10 9 -10 9 2 0 30 21 40 51 25 43 -23 43 -33 -1 -45
-28 -8 -40 -16 -40 -29 0 -10 -7 -35 -16 -56 -8 -20 -13 -40 -10 -43 3 -3 2
-10 -3 -16 -5 -6 -23 -39 -41 -74 -38 -76 -50 -77 -17 -1 13 30 22 60 19 68
-2 8 0 11 5 8 5 -3 15 -1 23 5 13 8 12 9 -2 5 -9 -3 -24 3 -34 14 -10 11 -12
19 -6 19 7 0 12 -4 12 -10 0 -17 20 -11 26 8 3 9 12 30 19 47 8 16 12 31 10
33 -1 2 -29 -4 -61 -14 -33 -9 -61 -17 -64 -16 -3 0 -13 -4 -24 -10 -20 -11
-36 3 -36 31 0 11 4 11 18 -2 23 -21 32 -21 32 -1 0 8 -4 13 -9 10 -5 -3 -14
1 -21 9 -16 19 -23 85 -10 85 6 0 9 3 9 8 -4 26 2 30 31 19 l31 -12 -32 -27z
m-602 25 c-4 -3 -7 0 -7 7 0 7 3 10 7 7 3 -4 3 -10 0 -14z m493 -9 c0 -8 -8
-14 -17 -13 -10 0 -13 3 -6 5 7 3 9 12 6 21 -4 11 -2 14 5 9 7 -4 12 -14 12
-22z m-1281 -11 c10 -17 12 -17 26 1 15 20 15 19 15 -1 0 -23 -30 -36 -46 -19
-19 20 -25 36 -15 36 5 0 15 -8 20 -17z m428 -15 c-3 -8 -6 -5 -6 6 -1 11 2
17 5 13 3 -3 4 -12 1 -19z m40 0 c-3 -8 -6 -5 -6 6 -1 11 2 17 5 13 3 -3 4
-12 1 -19z m-829 -29 c-3 -8 -7 -3 -11 10 -4 17 -3 21 5 13 5 -5 8 -16 6 -23z
m1657 21 c3 -5 -1 -10 -10 -10 -9 0 -13 5 -10 10 3 6 8 10 10 10 2 0 7 -4 10
-10z m-155 -15 c0 -8 -4 -15 -10 -15 -5 0 -7 7 -4 15 4 8 8 15 10 15 2 0 4 -7
4 -15z m517 8 c-4 -3 -10 -3 -14 0 -3 4 0 7 7 7 7 0 10 -3 7 -7z m-2087 -34
c0 -5 -7 -9 -15 -9 -15 0 -20 12 -9 23 8 8 24 -1 24 -14z m1687 -11 c-3 -8 -6
-5 -6 6 -1 11 2 17 5 13 3 -3 4 -12 1 -19z m383 12 c0 -5 -5 -10 -11 -10 -5 0
-7 5 -4 10 3 6 8 10 11 10 2 0 4 -4 4 -10z m-1663 -7 c-4 -3 -10 -3 -14 0 -3
4 0 7 7 7 7 0 10 -3 7 -7z m760 -20 c-4 -3 -7 0 -7 7 0 7 3 10 7 7 3 -4 3 -10
0 -14z m60 0 c-4 -3 -7 0 -7 7 0 7 3 10 7 7 3 -4 3 -10 0 -14z m520 0 c-4 -3
-10 -3 -14 0 -3 4 0 7 7 7 7 0 10 -3 7 -7z m-500 -20 c-4 -3 -10 -3 -14 0 -3
4 0 7 7 7 7 0 10 -3 7 -7z m90 -20 c-4 -3 -7 0 -7 7 0 7 3 10 7 7 3 -4 3 -10
0 -14z m713 13 c0 -11 -19 -15 -25 -6 -3 5 1 10 9 10 9 0 16 -2 16 -4z m-2119
-69 c-4 -4 -8 9 -8 30 -1 38 -1 38 8 8 5 -16 5 -33 0 -38z m-108 28 c-7 -21
-13 -19 -13 6 0 11 4 18 10 14 5 -3 7 -12 3 -20z m1424 8 c-4 -3 -7 0 -7 7 0
7 3 10 7 7 3 -4 3 -10 0 -14z m-1567 -3 c0 -5 -7 -10 -15 -10 -8 0 -15 5 -15
10 0 6 7 10 15 10 8 0 15 -4 15 -10z m2310 0 c0 -5 -5 -10 -11 -10 -5 0 -7 5
-4 10 3 6 8 10 11 10 2 0 4 -4 4 -10z m197 -16 c-3 -3 -12 -4 -19 -1 -8 3 -5
6 6 6 11 1 17 -2 13 -5z m-2287 -14 c0 -5 -4 -10 -9 -10 -5 0 -24 -2 -42 -5
l-34 -5 35 14 c43 18 50 19 50 6z m2257 -7 c-4 -3 -10 -3 -14 0 -3 4 0 7 7 7
7 0 10 -3 7 -7z m-2382 -33 c-3 -5 -14 -10 -23 -10 -15 0 -15 2 -2 10 20 13
33 13 25 0z m125 0 c0 -5 -4 -10 -10 -10 -5 0 -10 5 -10 10 0 6 5 10 10 10 6
0 10 -4 10 -10z m304 1 c3 -5 -3 -11 -14 -14 -20 -5 -26 3 -13 16 9 10 21 9
27 -2z m1646 5 c0 -3 -4 -8 -10 -11 -5 -3 -10 -1 -10 4 0 6 5 11 10 11 6 0 10
-2 10 -4z m-1972 -29 c6 -5 12 -15 12 -21 0 -6 -7 -3 -14 7 -13 17 -46 14 -46
-4 0 -5 -4 -9 -10 -9 -12 0 -9 19 5 36 10 12 30 8 53 -9z m509 6 c-4 -3 -7 0
-7 7 0 7 3 10 7 7 3 -4 3 -10 0 -14z m1651 8 c-3 -9 -107 -96 -148 -124 -29
-20 -40 -21 -40 -5 0 6 3 9 6 5 3 -3 45 25 92 64 86 69 97 76 90 60z m-2298
-22 c0 -6 -4 -7 -10 -4 -5 3 -10 11 -10 16 0 6 5 7 10 4 6 -3 10 -11 10 -16z
m510 11 c0 -5 -8 -10 -17 -10 -15 0 -16 2 -3 10 19 12 20 12 20 0z m-87 -6 c3
-3 -10 -20 -28 -37 -31 -28 -32 -32 -17 -43 9 -7 13 -16 9 -20 -4 -4 -15 -1
-23 8 -13 13 -14 22 -6 45 6 15 11 22 11 16 1 -9 7 -7 19 5 11 9 17 20 15 25
-5 8 11 10 20 1z m-391 -26 c-7 -7 -12 -8 -12 -2 0 6 3 14 7 17 3 4 9 5 12 2
2 -3 -1 -11 -7 -17z m102 -47 c-7 -7 -12 3 -19 34 l-6 30 14 -30 c8 -16 13
-32 11 -34z m434 16 c-11 -22 -13 -21 -22 16 -6 25 -5 27 13 15 15 -9 17 -16
9 -31z m-133 23 c3 -5 4 -10 1 -10 -3 0 -8 5 -11 10 -3 6 -4 10 -1 10 3 0 8
-4 11 -10z m482 3 c-4 -3 -10 -3 -14 0 -3 4 0 7 7 7 7 0 10 -3 7 -7z m-873
-21 c-13 -13 -17 -13 -29 -1 -12 12 -10 14 15 15 25 1 27 -1 14 -14z m48 -3
c-5 -11 -11 -20 -15 -20 -4 1 -11 1 -17 1 -5 0 -10 5 -10 11 0 5 4 8 9 5 5 -3
11 1 15 9 3 8 10 15 15 15 6 0 7 -8 3 -21z m438 11 c0 -5 -5 -9 -12 -7 -6 1
-13 -7 -15 -18 -1 -11 0 -14 3 -7 8 17 25 15 18 -2 -3 -8 -1 -17 5 -21 6 -3
11 -12 11 -18 0 -7 -5 -4 -11 6 -12 21 -57 23 -65 2 -4 -8 -12 -15 -20 -15
-21 0 -17 18 6 25 11 4 18 11 15 16 -4 5 -1 9 5 9 6 0 8 5 5 10 -3 6 4 14 17
19 31 13 38 13 38 1z m437 3 c-4 -3 -10 -3 -14 0 -3 4 0 7 7 7 7 0 10 -3 7 -7z
m-1008 -17 c7 -8 19 -12 29 -10 11 3 23 -5 34 -23 10 -15 18 -22 18 -14 0 11
3 11 15 1 23 -19 18 -27 -15 -22 -18 3 -30 0 -30 -7 0 -8 -6 -7 -20 1 -11 7
-20 18 -20 25 0 7 -4 13 -10 13 -5 0 -10 7 -10 15 0 10 -11 15 -37 16 -38 1
-38 1 -8 9 17 4 33 8 36 9 4 0 12 -5 18 -13z m471 -13 c0 -5 -5 -15 -10 -23
-7 -12 -9 -10 -7 8 1 19 17 33 17 15z m420 -3 c-8 -5 -19 -10 -25 -10 -5 0 -3
5 5 10 8 5 20 10 25 10 6 0 3 -5 -5 -10z m80 -6 c0 -7 12 -16 27 -21 28 -10
28 -10 6 -21 -19 -10 -23 -9 -28 8 -8 24 -45 48 -45 29 0 -7 -3 -10 -6 -6 -3
3 -3 10 0 16 9 14 46 9 46 -5z m753 3 c24 1 37 -3 37 -12 0 -7 6 -16 13 -18 6
-3 -8 -3 -32 0 -30 4 -41 2 -37 -6 4 -6 1 -11 -7 -11 -8 0 -26 -11 -42 -26
-30 -28 -48 -25 -22 4 21 23 21 32 2 32 -8 0 -15 -4 -15 -10 0 -5 -4 -10 -10
-10 -5 0 -10 9 -10 20 0 22 12 25 38 11 9 -5 26 -5 37 -1 15 6 9 9 -27 15 -27
4 -48 12 -48 17 0 7 15 8 43 2 23 -4 59 -7 80 -7z m144 -19 c2 -17 0 -19 -7
-8 -5 8 -6 18 -4 22 8 12 10 10 11 -14z m-1656 -28 c12 -32 27 -38 47 -18 7 7
12 9 12 4 0 -4 -6 -14 -14 -22 -12 -12 -17 -11 -35 4 -12 9 -23 27 -26 40 -6
32 4 27 16 -8z m489 26 c0 -3 -5 -8 -12 -12 -7 -4 -8 -3 -4 4 7 12 16 16 16 8z
m186 -5 c-4 -5 0 -11 6 -14 7 -2 10 -8 6 -12 -4 -4 -15 -2 -23 5 -13 11 -13
15 -3 21 17 11 20 11 14 0z m394 -16 c0 -8 8 -18 17 -23 15 -9 15 -11 -4 -22
-13 -8 -18 -20 -15 -32 2 -10 0 -18 -6 -18 -19 0 -21 16 -7 44 11 20 12 33 5
46 -13 24 -13 33 0 25 6 -3 10 -12 10 -20z m-1023 8 c-4 -3 -10 -3 -14 0 -3 4
0 7 7 7 7 0 10 -3 7 -7z m43 -3 c0 -5 -5 -10 -11 -10 -5 0 -7 5 -4 10 3 6 8
10 11 10 2 0 4 -4 4 -10z m648 -2 c-3 -7 -12 -14 -21 -16 -12 -2 -15 1 -11 12
7 19 38 22 32 4z m923 -16 c-14 -2 -21 -11 -21 -25 0 -18 -2 -19 -10 -7 -9 13
-11 13 -21 0 -8 -11 -12 -12 -16 -2 -2 7 -13 17 -24 22 -15 8 -17 7 -13 -5 4
-8 1 -15 -4 -15 -15 0 -22 14 -13 28 6 9 15 10 39 1 17 -6 37 -8 44 -6 8 4 4
8 -10 13 -15 4 -19 9 -12 14 6 4 27 2 46 -4 28 -9 31 -12 15 -14z m-1544 7
c-15 -9 -16 -13 -5 -27 12 -15 11 -16 -4 -4 -20 16 -13 42 11 42 14 -1 14 -2
-2 -11z m110 5 c-3 -3 -12 -4 -19 -1 -8 3 -5 6 6 6 11 1 17 -2 13 -5z m108 -4
c-3 -5 -14 -10 -23 -9 -14 0 -13 2 3 9 27 11 27 11 20 0z m568 4 c9 -3 13 -15
10 -32 -3 -26 -3 -26 8 -4 7 12 16 22 21 22 14 0 9 -16 -12 -35 -16 -14 -24
-16 -42 -7 -18 8 -19 11 -5 11 20 1 23 21 5 39 -13 13 -8 15 15 6z m-736 -11
c-4 -3 -10 -3 -14 0 -3 4 0 7 7 7 7 0 10 -3 7 -7z m970 -10 c-4 -3 -7 0 -7 7
0 7 3 10 7 7 3 -4 3 -10 0 -14z m-473 -25 c7 -5 4 -8 -6 -8 -12 0 -18 7 -17
23 0 15 2 17 6 7 3 -8 11 -18 17 -22z m846 22 c0 -5 -5 -10 -11 -10 -5 0 -7 5
-4 10 3 6 8 10 11 10 2 0 4 -4 4 -10z m-1640 -10 c0 -5 -2 -10 -4 -10 -3 0 -8
5 -11 10 -3 6 -1 10 4 10 6 0 11 -4 11 -10z m90 -7 c0 -7 5 -13 11 -13 5 0 8
-4 4 -9 -3 -5 5 -17 17 -25 12 -9 17 -16 10 -16 -7 0 -27 10 -45 22 -18 13
-34 24 -36 25 -2 1 -1 8 2 16 7 18 37 18 37 0z m278 -4 c3 -11 2 -11 -7 1 -8
12 -13 12 -23 2 -15 -15 -28 -16 -28 -1 0 5 4 8 9 4 5 -3 13 -1 16 5 9 14 28
8 33 -11z m27 11 c3 -5 4 -10 1 -10 -3 0 -8 5 -11 10 -3 6 -4 10 -1 10 3 0 8
-4 11 -10z m459 -11 c-6 -11 -24 -2 -24 11 0 5 7 7 15 4 8 -4 12 -10 9 -15z
m1146 -29 c-12 -12 -24 -19 -27 -16 -10 10 -46 -33 -40 -48 3 -9 2 -18 -3 -21
-6 -4 -10 1 -10 9 0 20 -19 21 -26 1 -4 -8 -15 -15 -27 -15 -19 0 -19 1 -2 20
10 11 26 22 36 25 11 4 19 16 19 28 0 16 3 19 9 8 5 -8 14 -10 21 -6 10 6 9
11 -5 22 -11 7 -14 13 -9 13 6 0 15 -5 20 -10 8 -8 18 -5 35 9 30 25 37 9 9
-19z m-1700 20 c0 -6 -7 -13 -15 -16 -8 -4 -12 -10 -9 -15 3 -5 -2 -9 -11 -9
-9 0 -13 5 -10 10 3 6 1 10 -4 10 -16 0 -13 -16 5 -34 8 -9 12 -16 8 -16 -3 0
-1 -7 6 -15 7 -9 10 -18 7 -21 -3 -3 -10 4 -17 15 -6 12 -20 21 -31 21 -11 0
-18 4 -15 9 4 5 0 12 -6 14 -8 3 -5 6 6 6 15 1 16 4 6 16 -7 9 -10 18 -6 22 3
3 6 1 6 -5 0 -7 10 -7 33 3 39 17 47 18 47 5z m675 0 c-3 -5 -11 -10 -16 -10
-6 0 -7 5 -4 10 3 6 11 10 16 10 6 0 7 -4 4 -10z m352 -7 c-4 -3 -7 0 -7 7 0
7 3 10 7 7 3 -4 3 -10 0 -14z m206 -15 c6 -22 5 -22 -8 -4 -17 22 -20 40 -6
32 5 -3 11 -16 14 -28z m-1203 0 c0 6 5 12 11 12 8 0 8 -5 -1 -15 -13 -16 -30
-11 -30 8 0 7 4 6 10 -3 6 -10 10 -11 10 -2z m512 -3 c11 -15 10 -35 -2 -35
-5 0 -10 7 -10 15 0 8 -4 15 -10 15 -5 0 -10 5 -10 10 0 12 22 9 32 -5z m638
11 c0 -3 -4 -8 -10 -11 -5 -3 -10 -1 -10 4 0 6 5 11 10 11 6 0 10 -2 10 -4z
m425 -6 c3 -5 4 -10 1 -10 -3 0 -8 5 -11 10 -3 6 -4 10 -1 10 3 0 8 -4 11 -10z
m-1025 -20 c0 -11 -4 -20 -10 -20 -5 0 -10 9 -10 20 0 11 5 20 10 20 6 0 10
-9 10 -20z m205 -28 c-9 -9 -25 11 -25 31 1 21 1 21 15 -3 7 -14 12 -27 10
-28z m-1085 20 c0 -2 -7 -10 -15 -18 -8 -9 -15 -13 -15 -11 0 3 -3 12 -6 21
-4 11 0 14 15 13 12 -1 21 -3 21 -5z m1570 -2 c0 -5 -2 -10 -4 -10 -3 0 -8 5
-11 10 -3 6 -1 10 4 10 6 0 11 -4 11 -10z m-634 -27 c-10 -10 -19 5 -10 18 6
11 8 11 12 0 2 -7 1 -15 -2 -18z m111 10 c-4 -3 -7 0 -7 7 0 7 3 10 7 7 3 -4
3 -10 0 -14z m340 10 c-4 -3 -10 -3 -14 0 -3 4 0 7 7 7 7 0 10 -3 7 -7z m-307
-28 c0 -7 -30 -13 -34 -7 -3 4 4 9 15 9 10 1 19 0 19 -2z m-825 -25 c3 -5 4
-10 1 -10 -3 0 -8 5 -11 10 -3 6 -4 10 -1 10 3 0 8 -4 11 -10z  M935 2520 c27 -27 51 -50 54 -50 8 0 -84 98 -94 99 -5 1 13 -21 40
-49z  M1035 2490 c3 -5 8 -10 11 -10 3 0 2 5 -1 10 -3 6 -8 10 -11 10 -3 0
-2 -4 1 -10z  M1005 2450 c3 -5 8 -10 11 -10 3 0 2 5 -1 10 -3 6 -8 10 -11 10 -3 0
-2 -4 1 -10z  M1153 2453 c4 -3 10 -3 14 0 3 4 0 7 -7 7 -7 0 -10 -3 -7 -7z  M1193 2443 c4 -3 10 -3 14 0 3 4 0 7 -7 7 -7 0 -10 -3 -7 -7z  M1235 2430 c3 -5 8 -10 11 -10 2 0 4 5 4 10 0 6 -5 10 -11 10 -5 0
-7 -4 -4 -10z  M1273 2423 c4 -3 10 -3 14 0 3 4 0 7 -7 7 -7 0 -10 -3 -7 -7z  M1124 2408 c-4 -7 -3 -8 4 -4 12 7 16 16 8 16 -3 0 -8 -5 -12 -12z  M1178 2413 c6 -2 18 -2 25 0 6 3 1 5 -13 5 -14 0 -19 -2 -12 -5z  M1355 2400 c3 -5 8 -10 11 -10 2 0 4 5 4 10 0 6 -5 10 -11 10 -5 0
-7 -4 -4 -10z  M1395 2390 c3 -5 8 -10 11 -10 2 0 4 5 4 10 0 6 -5 10 -11 10 -5 0
-7 -4 -4 -10z  M1435 2380 c3 -5 8 -10 11 -10 2 0 4 5 4 10 0 6 -5 10 -11 10 -5 0
-7 -4 -4 -10z  M1475 2381 c-3 -5 -1 -12 5 -16 5 -3 10 1 10 9 0 18 -6 21 -15 7z  M1515 2360 c3 -5 8 -10 11 -10 3 0 2 5 -1 10 -3 6 -8 10 -11 10 -3 0
-2 -4 1 -10z  M1555 2350 c3 -5 8 -10 11 -10 3 0 2 5 -1 10 -3 6 -8 10 -11 10 -3 0
-2 -4 1 -10z  M1597 2353 c-10 -9 -9 -23 1 -23 5 0 9 7 9 15 0 17 -1 18 -10 8z  M1637 2343 c-10 -9 -9 -23 1 -23 5 0 9 7 9 15 0 17 -1 18 -10 8z  M1753 2293 c4 -3 10 -3 14 0 3 4 0 7 -7 7 -7 0 -10 -3 -7 -7z  M1793 2283 c4 -3 10 -3 14 0 3 4 0 7 -7 7 -7 0 -10 -3 -7 -7z  M1903 2253 c4 -3 10 -3 14 0 3 4 0 7 -7 7 -7 0 -10 -3 -7 -7z  M1943 2243 c4 -3 10 -3 14 0 3 4 0 7 -7 7 -7 0 -10 -3 -7 -7z  M1266 2191 c-10 -15 18 -41 52 -47 45 -9 43 17 -3 39 -41 20 -42 20
-49 8z  M1397 2189 c-9 -5 -24 -23 -32 -39 -10 -20 -21 -28 -33 -25 -9 3 -3
-1 13 -9 17 -8 39 -15 50 -15 16 1 15 3 -8 13 -15 7 -25 15 -21 19 4 3 15 2
25 -4 19 -10 23 -2 22 39 -1 6 3 12 8 12 5 0 9 5 9 10 0 13 -10 12 -33 -1z  M1680 2161 c8 -5 26 -12 40 -15 l25 -7 -25 15 c-14 9 -32 15 -40 15
-13 0 -13 -1 0 -8z  M1930 1990 c8 -5 20 -10 25 -10 6 0 3 5 -5 10 -8 5 -19 10 -25 10 -5
0 -3 -5 5 -10z  M1833 1983 c4 -3 10 -3 14 0 3 4 0 7 -7 7 -7 0 -10 -3 -7 -7z  M1868 1973 c6 -2 18 -2 25 0 6 3 1 5 -13 5 -14 0 -19 -2 -12 -5z  M600 2370 c0 -7 3 -10 7 -7 3 4 3 10 0 14 -4 3 -7 0 -7 -7z  M210 2326 c0 -2 8 -10 18 -17 15 -13 16 -12 3 4 -13 16 -21 21 -21
13z  M773 2373 c4 -3 10 -3 14 0 3 4 0 7 -7 7 -7 0 -10 -3 -7 -7z  M770 2330 c0 -7 3 -10 7 -7 3 4 3 10 0 14 -4 3 -7 0 -7 -7z  M820 2325 c0 -8 4 -15 9 -15 5 0 11 7 15 15 3 9 0 15 -9 15 -8 0 -15
-7 -15 -15z  M745 2320 c-4 -6 -3 -16 3 -22 13 -13 23 4 13 21 -7 10 -10 10 -16 1z  M833 2285 c-12 -14 -16 -25 -9 -25 11 0 46 34 46 45 0 12 -17 3 -37
-20z  M790 2270 c0 -7 3 -10 7 -7 3 4 3 10 0 14 -4 3 -7 0 -7 -7z  M820 2230 c-9 -6 -10 -10 -3 -10 6 0 15 5 18 10 8 12 4 12 -15 0z  M853 2233 c4 -3 10 -3 14 0 3 4 0 7 -7 7 -7 0 -10 -3 -7 -7z  M607 2100 c-9 -11 -13 -20 -7 -20 5 0 14 9 20 20 6 11 9 20 8 20 -2
0 -11 -9 -21 -20z  M572 2061 c-11 -6 -9 -9 6 -13 15 -4 19 -2 15 8 -6 16 -4 16 -21 5z  M624 2038 c-4 -7 -3 -8 4 -4 12 7 16 16 8 16 -3 0 -8 -5 -12 -12z  M495 2030 c3 -5 8 -10 11 -10 2 0 4 5 4 10 0 6 -5 10 -11 10 -5 0 -7
-4 -4 -10z  M1453 1503 c4 -3 10 -3 14 0 3 4 0 7 -7 7 -7 0 -10 -3 -7 -7z  M1062 1341 c-11 -7 -11 -9 1 -14 16 -6 27 0 27 15 0 10 -11 10 -28
-1z  M1505 1301 c-3 -6 1 -25 8 -43 l14 -33 13 27 c7 15 10 34 7 42 -7 18
-32 21 -42 7z  M1315 1240 c3 -5 8 -10 11 -10 3 0 2 5 -1 10 -3 6 -8 10 -11 10 -3 0
-2 -4 1 -10z  M1345 1230 c3 -5 11 -10 16 -10 6 0 7 5 4 10 -3 6 -11 10 -16 10 -6
0 -7 -4 -4 -10z  M408 1088 c14 -14 16 -32 2 -23 -6 3 -7 -1 -4 -9 3 -9 1 -16 -5 -16
-6 0 -3 -9 6 -20 10 -11 22 -20 27 -20 5 0 1 10 -10 23 -11 13 -6 10 13 -7 19
-17 29 -34 26 -43 -5 -12 -1 -14 15 -9 11 4 23 2 26 -3 4 -6 13 -8 22 -4 11 4
12 9 3 19 -6 8 -15 11 -20 9 -10 -7 -82 55 -74 64 3 3 9 1 13 -4 4 -6 18 -19
31 -30 14 -11 5 4 -20 32 -24 29 -48 53 -53 53 -6 0 -5 -5 2 -12z  M440 990 c0 -5 5 -10 11 -10 5 0 7 5 4 10 -3 6 -8 10 -11 10 -2 0 -4
-4 -4 -10z  M370 970 c0 -7 3 -10 7 -7 3 4 3 10 0 14 -4 3 -7 0 -7 -7z  M485 840 c-6 -10 -4 -11 25 -14 8 0 14 -9 14 -18 -2 -18 7 -23 19
-11 8 7 -31 53 -44 53 -4 0 -11 -4 -14 -10z  M560 821 c0 -6 4 -13 10 -16 6 -3 7 1 4 9 -7 18 -14 21 -14 7z  M493 793 c4 -3 10 -3 14 0 3 4 0 7 -7 7 -7 0 -10 -3 -7 -7z  M565 690 c3 -5 10 -10 16 -10 5 0 9 5 9 10 0 6 -7 10 -16 10 -8 0
-12 -4 -9 -10z  M2390 1065 c0 -17 5 -25 13 -22 6 2 12 12 12 22 0 10 -6 20 -12 23
-8 2 -13 -6 -13 -23z  M1130 1004 c0 -8 92 -45 98 -39 3 2 -4 8 -14 11 -10 4 -34 13 -51 20
-18 7 -33 11 -33 8z  M920 961 c0 -6 4 -13 10 -16 6 -3 7 1 4 9 -7 18 -14 21 -14 7z  M1260 950 c8 -5 22 -9 30 -9 10 0 8 3 -5 9 -27 12 -43 12 -25 0z  M1355 920 c11 -5 29 -8 40 -8 16 0 15 2 -5 8 -34 11 -60 11 -35 0z  M1440 900 c34 -11 60 -11 35 0 -11 5 -29 8 -40 8 -16 0 -15 -2 5 -8z  M1508 883 c6 -2 18 -2 25 0 6 3 1 5 -13 5 -14 0 -19 -2 -12 -5z  M1558 873 c7 -3 16 -2 19 1 4 3 -2 6 -13 5 -11 0 -14 -3 -6 -6z  M1598 863 c6 -2 18 -2 25 0 6 3 1 5 -13 5 -14 0 -19 -2 -12 -5z  M1665 850 c11 -5 27 -9 35 -9 9 0 8 4 -5 9 -11 5 -27 9 -35 9 -9 0
-8 -4 5 -9z  M1855 805 c137 -33 173 -40 164 -30 -7 7 -268 65 -288 64 -9 0 47
-16 124 -34z  M2080 754 c30 -7 73 -15 95 -18 22 -3 6 3 -35 14 -41 11 -84 19 -95
18 -11 0 5 -6 35 -14z  M2228 723 c7 -3 16 -2 19 1 4 3 -2 6 -13 5 -11 0 -14 -3 -6 -6z  M2299 704 c18 -8 36 -13 39 -10 8 9 0 13 -38 19 l-35 6 34 -15z  M734 608 c-4 -7 -3 -8 4 -4 7 4 12 9 12 12 0 8 -9 4 -16 -8z  M2193 573 c4 -3 10 -3 14 0 3 4 0 7 -7 7 -7 0 -10 -3 -7 -7z  M336 2931 c-3 -5 1 -11 9 -14 9 -4 12 -1 8 9 -6 16 -10 17 -17 5z  M1015 2930 c3 -5 8 -10 11 -10 2 0 4 5 4 10 0 6 -5 10 -11 10 -5 0
-7 -4 -4 -10z  M233 2923 c4 -3 10 -3 14 0 3 4 0 7 -7 7 -7 0 -10 -3 -7 -7z  M50 2911 c0 -5 9 -7 20 -4 11 3 20 7 20 9 0 2 -9 4 -20 4 -11 0 -20
-4 -20 -9z  M605 2910 c-3 -5 -1 -10 4 -10 6 0 11 5 11 10 0 6 -2 10 -4 10 -3 0
-8 -4 -11 -10z  M832 2892 c11 -28 9 -32 -20 -57 -18 -15 -32 -32 -32 -38 0 -7 7 -3
15 7 15 19 15 19 15 -2 0 -25 15 -30 23 -8 3 8 -1 17 -10 21 -13 4 -14 8 -5
17 9 9 15 9 24 0 7 -7 17 -12 22 -12 6 0 4 5 -4 10 -9 5 -14 21 -12 38 2 16
-3 34 -12 41 -13 11 -13 9 -4 -17z  M468 2863 c7 -3 16 -2 19 1 4 3 -2 6 -13 5 -11 0 -14 -3 -6 -6z  M514 2855 c-18 -14 -18 -14 4 -8 12 3 22 9 22 14 0 12 -3 11 -26 -6z  M223 2833 c4 -3 10 -3 14 0 3 4 0 7 -7 7 -7 0 -10 -3 -7 -7z  M630 2809 c0 -5 5 -7 10 -4 6 3 10 8 10 11 0 2 -4 4 -10 4 -5 0 -10
-5 -10 -11z  M24 2788 c-4 -7 -3 -8 4 -4 7 4 12 9 12 12 0 8 -9 4 -16 -8z  M270 2780 c0 -7 3 -10 7 -7 3 4 3 10 0 14 -4 3 -7 0 -7 -7z  M785 2761 c-3 -5 -1 -12 5 -16 17 -10 12 -45 -5 -39 -8 4 -15 1 -15
-5 0 -6 9 -11 19 -11 10 0 21 -7 25 -15 3 -8 12 -15 21 -15 13 0 17 11 14 38
-1 4 -5 6 -10 5 -5 -2 -9 8 -9 22 0 19 -5 25 -21 25 -11 0 -17 5 -14 10 3 6 4
10 1 10 -3 0 -7 -4 -11 -9z  M470 2740 c0 -7 3 -10 7 -7 3 4 3 10 0 14 -4 3 -7 0 -7 -7z  M762 2736 c7 -8 15 -12 17 -11 5 6 -10 25 -20 25 -5 0 -4 -6 3 -14z  M6 2646 c-6 -21 9 -46 28 -46 6 0 2 7 -9 16 -20 15 -20 15 5 34 24
18 24 19 3 17 -12 0 -24 -10 -27 -21z  M752 2658 c6 -18 28 -21 28 -4 0 9 -7 16 -16 16 -9 0 -14 -5 -12 -12z  M333 2573 c4 -3 10 -3 14 0 3 4 0 7 -7 7 -7 0 -10 -3 -7 -7z  M1123 2573 c4 -3 10 -3 14 0 3 4 0 7 -7 7 -7 0 -10 -3 -7 -7z  M300 2539 c0 -5 5 -7 10 -4 6 3 10 8 10 11 0 2 -4 4 -10 4 -5 0 -10
-5 -10 -11z  M1990 2510 c0 -5 4 -10 9 -10 5 0 12 -13 16 -30 4 -16 11 -30 16 -30
6 0 7 4 4 10 -3 6 1 7 9 4 9 -3 16 -1 16 5 0 6 -6 11 -14 11 -16 0 -29 27 -20
41 3 5 -4 9 -15 9 -12 0 -21 -4 -21 -10z  M180 2490 c0 -5 5 -10 10 -10 6 0 10 5 10 10 0 6 -4 10 -10 10 -5 0
-10 -4 -10 -10z  M81 2464 c0 -11 3 -14 6 -6 3 7 2 16 -1 19 -3 4 -6 -2 -5 -13z  M60 2420 c0 -7 3 -10 7 -7 3 4 3 10 0 14 -4 3 -7 0 -7 -7z  M2040 2400 c9 -16 8 -22 -5 -26 -8 -3 -13 -9 -11 -13 3 -4 -4 -8 -15
-8 -23 -2 -25 13 -3 25 31 18 -1 18 -36 1 l-35 -17 25 -10 c14 -5 44 -13 68
-17 l42 -7 0 32 c0 17 -6 38 -14 46 -21 20 -28 17 -16 -6z m-63 -37 c-4 -3
-10 -3 -14 0 -3 4 0 7 7 7 7 0 10 -3 7 -7z  M1913 2363 c4 -3 10 -3 14 0 3 4 0 7 -7 7 -7 0 -10 -3 -7 -7z  M525 2290 c-3 -6 1 -7 9 -4 18 7 21 14 7 14 -6 0 -13 -4 -16 -10z  M477 2250 c-14 -11 -30 -20 -36 -20 -15 0 -14 -17 2 -22 6 -3 25 10
40 29 33 38 31 42 -6 13z  M415 2250 c3 -5 8 -10 11 -10 3 0 2 5 -1 10 -3 6 -8 10 -11 10 -3 0
-2 -4 1 -10z  M467 2183 c-5 -10 18 -54 25 -48 8 8 -3 55 -13 55 -4 0 -10 -3 -12
-7z  M2565 1887 c-11 -7 -21 -12 -21 -12 -1 0 -5 -10 -8 -22 -6 -19 -4
-23 15 -23 12 0 27 -6 33 -13 6 -8 45 -24 86 -36 41 -13 84 -27 95 -31 33 -12
87 -28 145 -44 30 -8 63 -17 73 -21 14 -6 17 -2 17 22 0 29 -1 30 -82 42 -46
7 -90 17 -99 21 -9 5 -31 12 -50 15 -19 3 -69 17 -113 31 -77 26 -78 27 -72
55 3 16 4 29 3 28 -1 0 -11 -6 -22 -12z  M2497 1819 c10 -10 81 -25 71 -15 -3 4 -23 12 -43 16 -22 5 -34 5
-28 -1z  M2873 1683 c4 -3 10 -3 14 0 3 4 0 7 -7 7 -7 0 -10 -3 -7 -7z  M20 1390 c0 -5 5 -10 11 -10 5 0 7 5 4 10 -3 6 -8 10 -11 10 -2 0 -4
-4 -4 -10z  M70 1320 c6 -11 14 -20 17 -20 3 0 3 3 0 7 -4 3 -2 12 4 20 9 10 7
13 -10 13 -19 0 -20 -3 -11 -20z  M1995 1305 c-33 -29 -37 -35 -20 -36 11 -1 24 -1 28 0 5 1 6 -3 2 -8
-4 -7 -15 -7 -31 -1 -21 8 -32 6 -57 -12 l-32 -23 28 -3 c15 -2 25 -7 22 -12
-3 -5 -17 -5 -32 1 -21 8 -34 5 -70 -17 -35 -20 -42 -29 -32 -36 10 -7 9 -8
-6 -4 -13 4 -61 -16 -135 -55 -63 -33 -104 -58 -90 -55 14 3 31 6 38 6 7 0 10
5 7 10 -3 6 3 10 14 10 12 0 21 4 21 10 0 5 7 7 15 4 8 -4 15 -1 15 5 0 6 9
11 20 11 11 0 20 -4 20 -10 0 -5 -7 -6 -17 -3 -11 4 -14 3 -9 -5 5 -8 -2 -12
-19 -12 -14 0 -24 -4 -21 -9 4 -5 -12 -12 -34 -16 -22 -4 -42 -11 -46 -16 -3
-5 -10 -7 -15 -4 -5 4 -9 -1 -9 -9 0 -9 -4 -16 -10 -16 -5 0 -10 5 -10 10 0
19 -16 10 -17 -9 -1 -13 3 -18 12 -15 7 3 16 0 20 -6 6 -9 9 -9 15 0 5 9 19 8
55 -4 25 -9 60 -18 76 -20 16 -1 32 -5 35 -9 3 -3 12 -3 19 -1 7 3 16 0 20 -5
3 -6 10 -9 14 -6 5 2 117 -22 250 -55 134 -33 252 -60 262 -60 11 0 38 -9 59
-19 27 -13 40 -15 41 -8 1 7 5 1 9 -13 6 -19 8 -20 9 -6 1 14 6 17 26 12 18
-5 25 -2 25 9 0 10 -10 15 -30 15 -33 0 -38 11 -15 30 12 10 20 8 41 -9 14
-11 31 -18 37 -14 6 4 1 10 -12 15 -12 4 -19 12 -16 18 3 5 -1 10 -10 10 -11
0 -15 5 -12 15 4 8 2 17 -4 20 -5 4 -9 3 -8 -2 4 -17 -13 -42 -26 -37 -7 3
-15 -2 -18 -10 -7 -18 -47 -22 -47 -5 0 6 9 9 20 6 11 -3 20 -1 20 3 0 14 -31
41 -40 35 -5 -3 -47 4 -92 15 -46 11 -155 36 -243 56 -88 19 -177 40 -198 46
-28 9 -41 8 -49 0 -9 -9 -8 -12 5 -12 9 0 17 -7 17 -16 0 -11 -5 -14 -16 -10
-33 13 -147 36 -175 36 -18 0 -28 4 -24 10 3 6 14 10 23 10 9 0 61 21 115 47
88 42 96 48 75 56 -14 6 -18 11 -10 14 7 3 19 2 27 -1 19 -7 31 -4 27 7 -1 5
6 6 16 3 28 -9 264 166 247 183 -18 17 -54 7 -90 -24z m71 6 c-3 -5 -15 -7
-26 -4 -28 7 -25 13 6 13 14 0 23 -4 20 -9z m-33 -28 c-7 -2 -21 -2 -30 0 -10
3 -4 5 12 5 17 0 24 -2 18 -5z m-70 -50 c-7 -2 -19 -2 -25 0 -7 3 -2 5 12 5
14 0 19 -2 13 -5z m-86 -40 c-4 -3 -10 -3 -14 0 -3 4 0 7 7 7 7 0 10 -3 7 -7z
m-11 -26 c4 -4 -2 -7 -14 -7 -11 0 -24 5 -27 10 -7 11 30 8 41 -3z m-109 -58
c-14 -8 -22 -8 -30 0 -8 8 -3 11 19 11 25 -1 27 -2 11 -11z m337 -200 c16 -14
1 -20 -32 -13 -18 4 -32 13 -32 20 0 11 8 13 28 8 15 -4 31 -10 36 -15z  M2085 1290 c-3 -5 1 -17 10 -27 9 -10 31 -38 50 -61 45 -56 45 -46 0
21 -19 28 -35 57 -35 64 0 15 -16 17 -25 3z  M55 1190 c3 -5 8 -10 11 -10 3 0 2 5 -1 10 -3 6 -8 10 -11 10 -3 0
-2 -4 1 -10z  M190 1141 c0 -5 5 -13 10 -16 6 -3 10 -2 10 4 0 5 -4 13 -10 16 -5 3
-10 2 -10 -4z  M1523 1033 c4 -3 10 -3 14 0 3 4 0 7 -7 7 -7 0 -10 -3 -7 -7z  M1461 1011 c-9 -6 -7 -10 8 -14 12 -3 21 -1 21 3 0 14 -15 19 -29 11z  M2400 900 c0 -7 3 -10 7 -7 3 4 3 10 0 14 -4 3 -7 0 -7 -7z  M123 851 c64 -67 110 -106 121 -104 6 1 22 4 36 7 23 5 23 5 -3 -6
-30 -13 -31 -30 -1 -38 22 -6 27 -20 26 -73 -1 -34 1 -37 14 -26 9 7 14 23 11
35 -3 18 2 23 22 27 14 3 29 0 33 -6 5 -8 8 -6 8 5 0 9 -13 27 -29 40 -16 14
-34 35 -40 47 -7 12 -37 48 -67 81 l-56 59 -58 -2 -59 -2 42 -44z m42 29 c4
-6 -7 -10 -27 -9 -31 1 -32 1 -8 9 14 4 26 8 27 9 1 1 5 -3 8 -9z m35 -35 c8
-9 8 -15 2 -15 -6 0 -17 -3 -26 -6 -9 -3 -16 -1 -16 5 0 6 8 12 18 12 9 1 1 5
-18 9 l-35 7 31 2 c17 0 37 -6 44 -14z m15 -35 c-3 -5 -10 -10 -16 -10 -5 0
-9 5 -9 10 0 6 7 10 16 10 8 0 12 -4 9 -10z m42 -17 c-4 -3 -10 -3 -14 0 -3 4
0 7 7 7 7 0 10 -3 7 -7z m-40 -10 c-4 -3 -10 -3 -14 0 -3 4 0 7 7 7 7 0 10 -3
7 -7z m43 -13 c0 -5 -8 -10 -17 -10 -15 0 -16 2 -3 10 19 12 20 12 20 0z m27
-47 c-4 -3 -10 -3 -14 0 -3 4 0 7 7 7 7 0 10 -3 7 -7z m50 -40 c-4 -3 -7 0 -7
7 0 7 3 10 7 7 3 -4 3 -10 0 -14z  M70 840 c0 -7 3 -10 7 -7 3 4 3 10 0 14 -4 3 -7 0 -7 -7z  M23 783 c4 -3 10 -3 14 0 3 4 0 7 -7 7 -7 0 -10 -3 -7 -7z  M135 780 c-3 -6 1 -7 9 -4 18 7 21 14 7 14 -6 0 -13 -4 -16 -10z  M82 729 c-13 -16 -20 -29 -15 -29 5 0 19 14 31 30 29 39 14 38 -16
-1z  M6 721 c-4 -7 -5 -15 -2 -18 9 -9 19 4 14 18 -4 11 -6 11 -12 0z  M18 673 c-10 -2 -18 -9 -18 -14 0 -14 16 -11 30 6 7 8 11 14 9 14 -2
-1 -12 -3 -21 -6z  M360 640 c13 -11 25 -18 28 -15 8 8 -19 35 -36 35 -11 0 -9 -5 8 -20z  M2571 646 c5 -5 406 -96 422 -96 32 0 -20 14 -202 55 -195 43 -229
50 -220 41z  M25 610 c3 -5 8 -10 11 -10 3 0 2 5 -1 10 -3 6 -8 10 -11 10 -3 0 -2
-4 1 -10z  M2550 610 c0 -7 3 -10 7 -7 3 4 3 10 0 14 -4 3 -7 0 -7 -7z  M370 601 c0 -5 -9 -13 -21 -16 -11 -4 -18 -9 -15 -13 8 -7 56 19 56
30 0 4 -4 8 -10 8 -5 0 -10 -4 -10 -9z  M130 589 c0 -5 5 -7 10 -4 6 3 10 8 10 11 0 2 -4 4 -10 4 -5 0 -10
-5 -10 -11z  M123 563 c4 -3 10 -3 14 0 3 4 0 7 -7 7 -7 0 -10 -3 -7 -7z  M261 544 c0 -11 3 -14 6 -6 3 7 2 16 -1 19 -3 4 -6 -2 -5 -13z  M368 553 c7 -3 16 -2 19 1 4 3 -2 6 -13 5 -11 0 -14 -3 -6 -6z  M106 534 c-5 -14 -4 -15 9 -4 17 14 19 20 6 20 -5 0 -12 -7 -15 -16z  M136 535 c-3 -8 -1 -15 3 -15 5 0 11 7 15 15 3 8 1 15 -3 15 -5 0
-11 -7 -15 -15z  M485 530 c-3 -5 -1 -10 4 -10 6 0 11 5 11 10 0 6 -2 10 -4 10 -3 0
-8 -4 -11 -10z  M527 500 c-5 -21 0 -25 21 -11 10 6 10 10 -1 20 -12 9 -16 7 -20 -9z  M2540 516 c0 -2 7 -6 15 -10 8 -3 15 -1 15 4 0 6 -7 10 -15 10 -8 0
-15 -2 -15 -4z  M640 491 c0 -5 -10 -11 -22 -15 -18 -4 -20 -8 -11 -17 9 -9 16 -9 28
1 13 11 15 10 9 -6 -5 -13 -4 -16 3 -9 6 6 14 20 18 33 5 16 2 22 -9 22 -9 0
-16 -4 -16 -9z  M699 469 c19 -7 22 -12 12 -22 -9 -9 -14 -9 -21 3 -8 12 -10 10 -10
-7 0 -21 8 -27 28 -20 4 1 6 6 4 11 -2 5 6 6 18 3 15 -4 20 0 20 14 0 10 -3
19 -7 20 -5 0 -21 2 -38 5 -28 3 -29 3 -6 -7z  M540 454 c0 -8 5 -12 10 -9 6 3 10 10 10 16 0 5 -4 9 -10 9 -5 0 -10
-7 -10 -16z  M846 461 c-8 -13 14 -28 53 -36 26 -5 32 -4 29 6 -3 8 -17 15 -31 17
-15 2 -27 8 -27 13 0 12 -17 12 -24 0z  M170 450 c0 -7 3 -10 7 -7 3 4 3 10 0 14 -4 3 -7 0 -7 -7z  M576 434 c-4 -10 -1 -14 6 -12 15 5 23 28 10 28 -5 0 -13 -7 -16 -16z  M940 430 c0 -14 37 -31 82 -36 23 -3 46 -7 50 -10 13 -8 9 6 -5 20
-7 7 -25 11 -40 9 -16 -2 -27 1 -27 8 0 6 -7 9 -15 6 -8 -4 -17 -2 -20 3 -8
13 -25 13 -25 0z  M1305 430 c-3 -5 -1 -10 4 -10 6 0 11 5 11 10 0 6 -2 10 -4 10 -3 0
-8 -4 -11 -10z  M2810 430 c0 -7 3 -10 7 -7 3 4 3 10 0 14 -4 3 -7 0 -7 -7z  M803 423 c4 -3 10 -3 14 0 3 4 0 7 -7 7 -7 0 -10 -3 -7 -7z  M830 416 c0 -2 7 -9 15 -16 12 -10 15 -10 15 4 0 9 -7 16 -15 16 -8
0 -15 -2 -15 -4z  M885 401 c6 -5 24 -13 40 -17 39 -9 30 0 -15 15 -19 6 -30 7 -25 2z  M1300 400 c-9 -6 -10 -10 -3 -10 6 0 15 5 18 10 8 12 4 12 -15 0z  M973 373 c4 -3 10 -3 14 0 3 4 0 7 -7 7 -7 0 -10 -3 -7 -7z  M1290 370 c0 -7 3 -10 7 -7 3 4 3 10 0 14 -4 3 -7 0 -7 -7z  M1200 360 c0 -7 3 -10 7 -7 3 4 3 10 0 14 -4 3 -7 0 -7 -7z  M515 350 c3 -5 8 -10 11 -10 2 0 4 5 4 10 0 6 -5 10 -11 10 -5 0 -7
-4 -4 -10z  M350 340 c0 -5 4 -10 9 -10 5 0 16 -3 25 -6 11 -4 16 0 16 12 0 16
-2 17 -10 4 -6 -10 -10 -11 -10 -2 0 6 -7 12 -15 12 -8 0 -15 -4 -15 -10z  M1293 343 c4 -3 10 -3 14 0 3 4 0 7 -7 7 -7 0 -10 -3 -7 -7z  M1170 331 c0 -5 7 -12 16 -15 14 -5 15 -4 4 9 -14 17 -20 19 -20 6z  M1283 323 c4 -3 10 -3 14 0 3 4 0 7 -7 7 -7 0 -10 -3 -7 -7z  M2535 290 c-15 -28 -14 -30 4 -30 21 0 61 -44 61 -66 0 -8 6 -14 13
-14 6 0 -1 -8 -16 -19 -23 -15 -25 -19 -12 -25 9 -3 14 -2 11 3 -3 5 1 12 10
15 17 7 47 -17 36 -29 -4 -5 -2 -5 5 -2 7 5 14 -5 19 -25 4 -18 9 -28 11 -21
4 10 7 10 18 0 7 -7 11 -15 9 -18 -4 -8 46 -43 52 -37 2 2 -18 31 -44 64 -26
33 -51 67 -57 75 -5 9 -23 35 -39 59 -15 23 -33 56 -38 71 -13 37 -24 37 -43
-1z  M377 303 c-9 -2 -15 -9 -12 -14 9 -14 22 -11 29 6 3 8 4 14 3 14 -1
-1 -10 -3 -20 -6z  M1350 292 c0 -5 18 -12 39 -16 22 -3 47 -9 57 -13 11 -4 15 -3 11 4
-4 6 -23 14 -43 17 -19 4 -42 10 -50 13 -8 3 -14 1 -14 -5z  M1870 280 c0 -7 3 -10 7 -7 3 4 3 10 0 14 -4 3 -7 0 -7 -7z  M2010 265 c7 -8 22 -14 34 -14 20 2 20 2 -1 6 -13 2 -23 9 -23 14 0
5 -5 9 -11 9 -8 0 -8 -5 1 -15z  M1475 260 c3 -5 10 -10 16 -10 5 0 9 5 9 10 0 6 -7 10 -16 10 -8 0
-12 -4 -9 -10z  M1522 256 c3 -4 26 -12 50 -17 24 -5 51 -12 61 -15 9 -3 17 -1 17 4
0 5 -15 12 -32 15 -18 3 -49 9 -68 13 -19 4 -32 4 -28 0z  M2435 199 c-4 -6 -5 -12 -2 -15 2 -3 7 2 10 11 7 17 1 20 -8 4z  M2577 203 c-4 -3 -7 -11 -7 -17 0 -6 5 -5 12 2 6 6 9 14 7 17 -3 3
-9 2 -12 -2z  M2468 163 c7 -3 16 -2 19 1 4 3 -2 6 -13 5 -11 0 -14 -3 -6 -6z  M603 133 c4 -3 10 -3 14 0 3 4 0 7 -7 7 -7 0 -10 -3 -7 -7z  M653 103 c4 -3 10 -3 14 0 3 4 0 7 -7 7 -7 0 -10 -3 -7 -7z  M683 99 c-9 -9 -8 -16 4 -27 13 -13 16 -13 24 -1 5 8 8 19 8 24 0 6
-3 4 -6 -2 -2 -7 -9 -13 -15 -13 -6 0 -8 7 -4 15 7 18 4 19 -11 4z  M803 96 c0 -8 13 -16 29 -18 32 -5 37 6 9 22 -27 14 -38 13 -38 -4z  M896 84 c-4 -9 -4 -19 -1 -22 2 -3 7 3 11 12 4 9 4 19 1 22 -2 3 -7
-3 -11 -12z  M2433 93 c4 -3 10 -3 14 0 3 4 0 7 -7 7 -7 0 -10 -3 -7 -7z  M1405 70 c-3 -5 -15 -10 -26 -10 -24 0 -43 -18 -47 -45 -3 -16 0 -15
18 8 13 16 28 26 37 23 8 -3 24 3 35 14 18 16 19 20 5 20 -8 0 -19 -4 -22 -10z  M2900 70 c0 -7 3 -10 7 -7 3 4 3 10 0 14 -4 3 -7 0 -7 -7z  M240 51 c-13 -26 -13 -34 3 -25 8 5 8 2 -2 -9 -11 -15 -11 -17 2 -17
17 0 30 27 17 35 -5 3 -7 12 -3 20 8 22 -5 18 -17 -4z  M1498 63 c7 -3 16 -2 19 1 4 3 -2 6 -13 5 -11 0 -14 -3 -6 -6z  M1473 43 c4 -3 10 -3 14 0 3 4 0 7 -7 7 -7 0 -10 -3 -7 -7z  M1912 38 c-24 -24 -13 -38 28 -38 31 0 38 3 34 15 -7 17 -24 20 -24
5 0 -5 -9 -10 -20 -10 -22 0 -27 16 -7 23 6 2 9 7 6 10 -3 4 -11 1 -17 -5z  M1424 28 c-4 -7 -3 -8 4 -4 7 4 12 9 12 12 0 8 -9 4 -16 -8z  M1850 9 c0 -5 5 -7 10 -4 6 3 10 8 10 11 0 2 -4 4 -10 4 -5 0 -10 -5
-10 -11z"/>
</g>
</svg>
