<!-- icon666.com - MILLIONS OF FREE VECTOR ICONS --><svg id="Layer_1" enable-background="new 0 0 450 450" viewBox="0 0 450 450" xmlns="http://www.w3.org/2000/svg" xmlns:xlink="http://www.w3.org/1999/xlink"><linearGradient id="SVGID_1_" gradientTransform="matrix(1 0 0 -1 0 452)" gradientUnits="userSpaceOnUse" x1="27.995" x2="395.251" y1="392.832" y2="25.576"><stop offset="0" stop-color="#00dbde"></stop><stop offset="1" stop-color="#fc00ff"></stop></linearGradient><path d="m344.8 188.8c0 2.8-2.2 5-5 5h-148.2c-2.8 0-5-2.2-5-5s2.2-5 5-5h148.2c2.8 0 5 2.2 5 5zm-239.6-102.6v-34.7c0-2.8 2.2-5 5-5h151.3c2.8 0 5 2.2 5 5v34.7c0 2.8-2.2 5-5 5h-151.3c-2.7 0-5-2.2-5-5zm10-5h141.3v-24.7h-141.3zm25.7 70.6c6.9 1 13.7 6.5 13.3 16.5-.1 2.8 2.1 5.1 4.8 5.2s5.1-2.1 5.2-4.8c.6-15.5-10.1-24.5-20.6-26.6v-10.5c0-2.8-2.2-5-5-5s-5 2.2-5 5v10.5c-9.1 1.7-18.1 8.3-21.4 21.2-5 19.3 15.7 26.9 22.5 29.3 4.8 1.8 20.4 8.4 18.8 20.8v.2c-.7 7.5-10.5 12.7-18.8 12.2-5.1-.3-13.6-2.7-13.5-16.5 0-2.8-2.2-5-5-5-2.7 0-5 2.2-5 5-.2 17.4 10.5 24.9 20.6 26.3v10.2c0 2.8 2.2 5 5 5s5-2.2 5-5v-10.6c10.7-2.2 20.6-9.7 21.6-20.6 2.5-19.7-18.7-29-25.3-31.4-16.7-6.1-17.6-12.2-16.2-17.4 3-12 12.1-15 19-14zm50.7 79.1c-2.8 0-5 2.2-5 5s2.2 5 5 5h148.2c2.8 0 5-2.2 5-5s-2.2-5-5-5zm-5-89.2c0 2.8 2.2 5 5 5h148.2c2.8 0 5-2.2 5-5s-2.2-5-5-5h-148.2c-2.8 0-5 2.2-5 5zm206-55.5v340.8c0 2-1.2 3.8-3 4.6l-32.5 13.8c-1.3.5-2.7.5-3.9 0l-30.5-13-30.5 13c-1.3.5-2.7.5-3.9 0l-30.5-13-30.5 13c-.6.3-1.3.4-2 .4s-1.3-.1-2-.4l-30.5-13-30.5 13c-1.2.5-2.7.5-3.9 0l-30.5-13-30.5 13c-1.2.5-2.7.5-3.9 0l-32.5-13.8c-1.8-.8-3-2.6-3-4.6v-381.3c0-22.1 18-40 40-40h214.2.1c.3 0 .6 0 .9.1h.1c.3.1.5.1.7.2.1 0 .2.1.3.1.2.1.4.2.6.3.1 0 .1.1.2.1.2.2.5.3.7.6l75.5 75.5s0 0 .1.1c.2.2.3.4.5.6.1.1.1.2.2.3.1.2.2.3.3.5 0 .1.1.2.1.3.1.2.1.4.2.7 0 .1 0 .1.1.2.1.3.1.6.1.9-.3 0-.3 0-.3 0zm-75.5-18.8c0 7.7 6.2 13.9 13.9 13.9h44.6l-58.5-58.5zm65.5 23.8h-51.6c-13.2 0-23.9-10.7-23.9-23.9v-51.6h-209.2c-16.6 0-30 13.5-30 30v377.9l27.5 11.7 30.5-13c1.3-.5 2.7-.5 3.9 0l30.5 13 30.5-13c1.3-.5 2.7-.5 3.9 0l30.5 13 30.5-13c1.3-.5 2.7-.5 3.9 0l30.5 13 30.5-13c1.3-.5 2.7-.5 3.9 0l30.5 13 27.5-11.7v-332.4zm-37.8 191.8v94.2c0 2.8-2.2 5-5 5h-229.6c-2.8 0-5-2.2-5-5v-94.2c0-2.8 2.2-5 5-5h229.6c2.8 0 5 2.2 5 5zm-182.2 67.7h-47.4v21.4h47.4zm0-31.4h-47.4v21.4h47.4zm0-31.3h-47.4v21.4h47.4zm57.4 62.7h-47.4v21.4h47.4zm0-31.4h-47.4v21.4h47.4zm0-31.3h-47.4v21.4h47.4zm57.4 62.7h-47.4v21.4h47.4zm0-31.4h-47.4v21.4h47.4zm0-31.3h-47.4v21.4h47.4zm57.4 62.7h-47.4v21.4h47.4zm0-31.4h-47.4v21.4h47.4zm0-31.3h-47.4v21.4h47.4z" fill="url(#SVGID_1_)"></path></svg>