<!-- icon666.com - MILLIONS OF FREE VECTOR ICONS --><svg viewBox="-87 0 496 496.73291" xmlns="http://www.w3.org/2000/svg" xmlns:xlink="http://www.w3.org/1999/xlink"><linearGradient id="a"><stop offset=".322" stop-color="#a163f5"></stop><stop offset=".466" stop-color="#b074ee"></stop><stop offset=".752" stop-color="#d8a1dd"></stop><stop offset=".898" stop-color="#efbad3"></stop></linearGradient><linearGradient id="b" gradientUnits="userSpaceOnUse" x1="123.238455" x2="123.238455" xlink:href="#a" y1="469.177" y2="-2.825"></linearGradient><linearGradient id="c" gradientUnits="userSpaceOnUse" x1="196.157455" x2="196.157455" xlink:href="#a" y1="469.177" y2="-2.825"></linearGradient><linearGradient id="d" gradientUnits="userSpaceOnUse" x1="56.312455" x2="56.312455" xlink:href="#a" y1="469.177" y2="-2.825"></linearGradient><linearGradient id="e" gradientUnits="userSpaceOnUse" x1="166.074455" x2="166.074455" xlink:href="#a" y1="469.177" y2="-2.825"></linearGradient><linearGradient id="f" gradientUnits="userSpaceOnUse" x1="108.299455" x2="108.299455" xlink:href="#a" y1="469.177" y2="-2.825"></linearGradient><linearGradient id="g" gradientUnits="userSpaceOnUse" x1="161.079455" x2="161.079455" xlink:href="#a" y1="469.177" y2="-2.825"></linearGradient><linearGradient id="h" gradientUnits="userSpaceOnUse" x1="131.556455" x2="131.556455" xlink:href="#a" y1="469.177" y2="-2.825"></linearGradient><linearGradient id="i" gradientUnits="userSpaceOnUse" x1="161.021455" x2="161.021455" xlink:href="#a" y1="469.177" y2="-2.825"></linearGradient><linearGradient id="j" gradientUnits="userSpaceOnUse" x1="247.704455" x2="247.704455" xlink:href="#a" y1="469.177" y2="-2.825"></linearGradient><path d="m143.222656 255.714844h-39.960937c-3.316407 0-6 2.683594-6 6v39.957031c0 3.3125 2.683593 6 6 6h39.960937c3.3125 0 6-2.6875 6-6v-39.957031c0-3.316406-2.6875-6-6-6zm-6 39.957031h-27.960937v-27.957031h27.960937zm0 0" fill="url(#b)"></path><path d="m176.179688 307.671875h39.957031c3.3125 0 6-2.6875 6-6v-39.957031c0-3.316406-2.6875-6-6-6h-39.957031c-3.3125 0-6 2.683594-6 6v39.957031c0 3.3125 2.6875 6 6 6zm6-39.957031h27.957031v27.957031h-27.957031zm0 0" fill="url(#c)"></path><path d="m76.289062 255.714844h-39.957031c-3.3125 0-6 2.683594-6 6v109.878906c0 3.3125 2.6875 6 6 6h39.957031c3.316407 0 6-2.6875 6-6v-109.878906c0-3.316406-2.683593-6-6-6zm-6 109.878906h-27.957031v-97.878906h27.957031zm0 0" fill="url(#d)"></path><path d="m143.222656 325.636719h-39.960937c-3.316407 0-6 2.6875-6 6v39.957031c0 3.3125 2.683593 6 6 6h39.960937c3.3125 0 6-2.6875 6-6v-39.957031c0-3.3125-2.6875-6-6-6zm-6 39.957031h-27.960937v-27.957031h27.960937zm0 0" fill="url(#b)"></path><path d="m76.289062 395.5625h-39.957031c-3.3125 0-6 2.6875-6 6v39.957031c0 3.3125 2.6875 6 6 6h39.957031c3.316407 0 6-2.6875 6-6v-39.957031c0-3.3125-2.683593-6-6-6zm-6 39.957031h-27.957031v-27.957031h27.957031zm0 0" fill="url(#d)"></path><path d="m143.222656 395.5625h-39.960937c-3.316407 0-6 2.6875-6 6v39.957031c0 3.3125 2.683593 6 6 6h39.960937c3.3125 0 6-2.6875 6-6v-39.957031c0-3.3125-2.6875-6-6-6zm-6 39.957031h-27.960937v-27.957031h27.960937zm0 0" fill="url(#b)"></path><path d="m159.855469 71.484375h12.4375c3.316406 0 6-2.683594 6-6 0-3.3125-2.683594-6-6-6h-12.4375c-3.316407 0-6 2.6875-6 6 0 3.316406 2.683593 6 6 6zm0 0" fill="url(#e)"></path><path d="m78.238281 71.484375h60.121094c3.3125 0 6-2.683594 6-6 0-3.3125-2.6875-6-6-6h-60.121094c-3.3125 0-6 2.6875-6 6 0 3.316406 2.6875 6 6 6zm0 0" fill="url(#f)"></path><path d="m149.863281 190.800781h22.429688c3.316406 0 6-2.6875 6-6 0-3.316406-2.683594-6-6-6h-22.429688c-3.3125 0-6 2.683594-6 6 0 3.3125 2.6875 6 6 6zm0 0" fill="url(#g)"></path><path d="m133.226562 178.800781h-3.339843c-3.3125 0-6 2.683594-6 6 0 3.3125 2.6875 6 6 6h3.339843c3.316407 0 6-2.6875 6-6 0-3.316406-2.683593-6-6-6zm0 0" fill="url(#h)"></path><path d="m159.855469 41.492188h12.4375c3.316406 0 6-2.683594 6-6 0-3.3125-2.683594-6-6-6h-12.4375c-3.316407 0-6 2.6875-6 6 0 3.316406 2.683593 6 6 6zm0 0" fill="url(#e)"></path><path d="m78.238281 41.492188h60.121094c3.3125 0 6-2.683594 6-6 0-3.3125-2.6875-6-6-6h-60.121094c-3.3125 0-6 2.6875-6 6 0 3.316406 2.6875 6 6 6zm0 0" fill="url(#f)"></path><path d="m159.855469 101.476562h12.4375c3.316406 0 6-2.683593 6-6 0-3.3125-2.683594-6-6-6h-12.4375c-3.316407 0-6 2.6875-6 6 0 3.316407 2.683593 6 6 6zm0 0" fill="url(#e)"></path><path d="m78.238281 101.476562h60.121094c3.3125 0 6-2.683593 6-6 0-3.3125-2.6875-6-6-6h-60.121094c-3.3125 0-6 2.6875-6 6 0 3.316407 2.6875 6 6 6zm0 0" fill="url(#f)"></path><path d="m159.855469 131.46875h12.4375c3.316406 0 6-2.683594 6-6 0-3.3125-2.683594-6-6-6h-12.4375c-3.316407 0-6 2.6875-6 6 0 3.316406 2.683593 6 6 6zm0 0" fill="url(#e)"></path><path d="m78.238281 131.46875h60.121094c3.3125 0 6-2.683594 6-6 0-3.3125-2.6875-6-6-6h-60.121094c-3.3125 0-6 2.6875-6 6 0 3.316406 2.6875 6 6 6zm0 0" fill="url(#f)"></path><path d="m159.855469 161.464844h12.4375c3.316406 0 6-2.6875 6-6 0-3.316406-2.683594-6-6-6h-12.4375c-3.316407 0-6 2.683594-6 6 0 3.3125 2.683593 6 6 6zm0 0" fill="url(#e)"></path><path d="m78.238281 161.464844h60.121094c3.3125 0 6-2.6875 6-6 0-3.316406-2.6875-6-6-6h-60.121094c-3.3125 0-6 2.683594-6 6 0 3.3125 2.6875 6 6 6zm0 0" fill="url(#f)"></path><path d="m318.496094 342.890625-66.394532-35.382813v-170.644531c-.007812-8.832031-7.167968-15.988281-16-16h-33.941406v-21.550781l54.109375.863281c1.609375.023438 3.164063-.59375 4.308594-1.722656 1.148437-1.128906 1.792969-2.671875 1.792969-4.277344v-58.074219c-.023438-19.929687-16.175782-36.0781245-36.105469-36.101562-.03125 0-.058594 0-.089844 0-.015625 0-.03125 0-.046875 0h-139.851562c-19.851563.0234375-35.941406 16.109375-35.964844 35.964844v84.898437h-33.945312c-8.832032.011719-15.992188 7.167969-16 16v336.605469c.007812 8.832031 7.167968 15.992188 16 16h211.390624c1.808594.921875 3.636719 1.808594 5.511719 2.628906l9.484375 4.136719c1.523438.664063 3.25.664063 4.777344.007813l10.679688-4.613282c38.449218-16.152344 63.464843-53.792968 63.464843-95.5v-47.945312c0-2.214844-1.222656-4.253906-3.179687-5.292969zm-116.335938-180.0625h7.976563v47.9375h-7.976563zm48.207032-126.726563v51.976563l-48.207032-.769531v-51.207032c0-13.3125 10.789063-24.105468 24.101563-24.105468s24.105469 10.792968 24.105469 24.105468zm-188.054688-.136718c.015625-13.230469 10.734375-23.953125 23.964844-23.96875h113.132812c-5.960937 6.609375-9.257812 15.199218-9.25 24.101562v174.667969h-127.847656zm-19.980469 174.800781v-47.9375h7.980469v47.9375zm-25.964843 266.703125c-2.210938 0-4-1.789062-4-4v-336.605469c0-2.207031 1.789062-4 4-4h33.945312v17.964844h-13.980469c-3.3125 0-6 2.6875-6 6v59.9375c0 3.3125 2.6875 6 6 6h179.800781c3.3125 0 6-2.6875 6-6v-59.9375c0-3.3125-2.6875-6-6-6h-13.972656v-17.964844h33.941406c2.210938 0 4 1.792969 4 4v169.925781l-65.929687 36.132813c-1.921875 1.054687-3.113281 3.070313-3.113281 5.261719v48.921875c.023437 31.179687 14.078125 60.695312 38.273437 80.363281zm293.308593-81.335938c-.007812 36.890626-22.144531 70.175782-56.160156 84.453126l-.042969.019531-8.308594 3.585937-7.089843-3.089844c-33.386719-14.59375-54.976563-47.558593-55.015625-84v-45.363281l62.375-34.1875 64.242187 34.234375zm0 0" fill="url(#i)"></path><path d="m221.503906 393.207031c-1.390625-1.640625-3.550781-2.414062-5.667968-2.027343-2.113282.390624-3.859376 1.878906-4.574219 3.910156-.714844 2.027344-.289063 4.28125 1.117187 5.910156l18.480469 21.644531c2.117187 2.476563 5.824219 2.8125 8.351563.757813l43.042968-35.019532c1.679688-1.347656 2.507813-3.492187 2.171875-5.617187-.335937-2.128906-1.785156-3.914063-3.800781-4.675781-2.015625-.761719-4.28125-.386719-5.945312.984375l-38.5 31.324219zm0 0" fill="url(#j)"></path></svg>