<!-- icon666.com - MILLIONS OF FREE VECTOR ICONS --><svg id="Layer_3" enable-background="new 0 0 64 64" viewBox="0 0 64 64" xmlns="http://www.w3.org/2000/svg" xmlns:xlink="http://www.w3.org/1999/xlink"><linearGradient id="SVGID_1_" gradientUnits="userSpaceOnUse" x1="32" x2="32" y1="63" y2="1"><stop offset="0" stop-color="#9f2fff"></stop><stop offset="1" stop-color="#0bb1d3"></stop></linearGradient><path d="m19 40c0 2.757 2.243 5 5 5s5-2.243 5-5-2.243-5-5-5-5 2.243-5 5zm8 0c0 1.654-1.346 3-3 3s-3-1.346-3-3 1.346-3 3-3 3 1.346 3 3zm28-9h-2v-26h-8v26h-2v-22h-8v22h-2v-18h-8v4h-4.785l-.866 3.544c-2.046.488-3.995 1.298-5.808 2.416l-3.128-1.9-5.353 5.353 1.9 3.128c-1.118 1.813-1.928 3.762-2.416 5.808l-3.544.866v7.57l3.544.866c.488 2.046 1.298 3.995 2.416 5.808l-1.9 3.128 5.353 5.353 3.128-1.9c1.813 1.118 3.762 1.928 5.808 2.416l.866 3.544h7.57l.866-3.544c2.046-.488 3.995-1.298 5.808-2.416l3.128 1.9 5.353-5.353-1.9-3.128c1.118-1.813 1.928-3.762 2.416-5.808l3.544-.866v-7.57l-3.544-.866c-.19-.798-.449-1.579-.738-2.349h20.282v-32h-8zm-8-24h4v24h-4zm-10 4h4v20h-4zm-2.055 22c1.341 2.09 2.055 4.497 2.055 7 0 7.168-5.832 13-13 13s-13-5.832-13-13 5.832-13 13-13c.333 0 .667.015 1 .04v2.01c-.332-.03-.666-.05-1-.05-6.065 0-11 4.935-11 11s4.935 11 11 11 11-4.935 11-11c0-2.606-.895-5.053-2.51-7zm-5.307 0c2.135 1.719 3.362 4.248 3.362 7 0 4.962-4.038 9-9 9s-9-4.038-9-9 4.038-9 9-9c.335 0 .669.023 1 .059v1.941zm-2.638-18h4v16h-4zm14.635 21.374.127.621 3.238.79v4.43l-3.239.791-.126.621c-.456 2.229-1.333 4.338-2.607 6.269l-.349.529 1.737 2.859-3.132 3.132-2.859-1.737-.529.349c-1.93 1.274-4.039 2.151-6.269 2.607l-.621.126-.791 3.239h-4.43l-.791-3.239-.621-.126c-2.229-.456-4.338-1.333-6.269-2.607l-.529-.349-2.859 1.737-3.132-3.132 1.737-2.859-.349-.529c-1.274-1.93-2.151-4.039-2.607-6.269l-.126-.621-3.239-.791v-4.43l3.239-.791.126-.621c.456-2.229 1.333-4.338 2.607-6.269l.349-.529-1.737-2.859 3.132-3.132 2.859 1.737.529-.349c1.93-1.274 4.039-2.151 6.269-2.607l.621-.126.791-3.239h3.215v6.035c-.333-.022-.667-.035-1-.035-8.271 0-15 6.729-15 15s6.729 15 15 15 15-6.729 15-15c0-2.467-.604-4.852-1.741-7h3.317c.462 1.09.823 2.22 1.059 3.374zm15.365-33.374h4v28h-4z" fill="url(#SVGID_1_)"></path></svg>