<svg class="svg-icon" style="width: 1em;height: 1em;vertical-align: middle;fill: currentColor;overflow: hidden;" viewBox="0 0 1024 1024" version="1.1" xmlns="http://www.w3.org/2000/svg"><path d="M848 766.4c44.1824 0 80 35.8176 80 80s-35.8176 80-80 80H592c-44.1824 0-80-35.8176-80-80s35.8176-80 80-80h256z m0 48H592c-17.6736 0-32 14.3264-32 32s14.3264 32 32 32h256c17.6736 0 32-14.3264 32-32s-14.3264-32-32-32zM176 96c44.1824 0 80 35.8176 80 80 0 35.8208-23.5424 66.144-56 76.336V512h200c13.2544 0 24 10.7456 24 24 0 13.2544-10.7456 24-24 24H200v246.4c0 8.688 6.9232 15.7568 15.552 15.9936l0.448 0.0064h232c13.2544 0 24 10.7456 24 24 0 13.088-10.4752 23.728-23.4976 23.9952L448 870.4H216c-34.992 0-63.4256-28.0832-63.992-62.9424L152 806.4V252.3376c-32.456-10.192-56-40.5168-56-76.3376 0-44.1824 35.8176-80 80-80z m672 360c44.1824 0 80 35.8176 80 80s-35.8176 80-80 80H592c-44.1824 0-80-35.8176-80-80s35.8176-80 80-80h256z m0 48H592c-17.6736 0-32 14.3264-32 32s14.3264 32 32 32h256c17.6736 0 32-14.3264 32-32s-14.3264-32-32-32z m0-408c44.1824 0 80 35.8176 80 80s-35.8176 80-80 80H400c-44.1824 0-80-35.8176-80-80s35.8176-80 80-80h448zM176 144c-17.6736 0-32 14.3264-32 32s14.3264 32 32 32 32-14.3264 32-32-14.3264-32-32-32z m672 0H400c-17.6736 0-32 14.3264-32 32s14.3264 32 32 32h448c17.6736 0 32-14.3264 32-32s-14.3264-32-32-32z" fill="#979797" /></svg>