<svg xmlns="http://www.w3.org/2000/svg" x="0px" y="0px" width="100" height="100" viewBox="0 0 50 50">
  <defs>
  <linearGradient id="gradient1" x1="0%" y1="0%" x2="100%" y2="100%">
      <stop offset="0" style="stop-color:#9f2fff;stop-opacity:1" />
      <stop offset="1" style="stop-color:#0bb1d3;stop-opacity:1" />
    </linearGradient>
</defs>
<path style="fill:url(#gradient1);" d="M 25 2 C 12.32 2 2 12.32 2 25 C 2 37.68 12.32 48 25 48 C 37.68 48 48 37.68 48 25 C 48 20.932573 46.930587 17.115653 45.072266 13.796875 C 46.224023 11.190729 47.624672 8.7787591 49.099609 6.4023438 C 49.305609 6.0713438 49.299984 5.6492188 49.083984 5.3242188 C 48.869984 4.9992188 48.489609 4.8247187 48.099609 4.8867188 C 44.885514 5.3801582 41.909179 6.0693316 39.138672 6.8984375 C 35.233353 3.838492 30.328634 2 25 2 z M 25 4 C 29.37101 4 33.428823 5.3560189 36.791016 7.6503906 C 16.121034 14.755506 8.4142272 29.819577 7.0273438 32.892578 C 6.4016704 32.7678 5.8016635 32.531738 5.2617188 32.175781 C 4.4448142 29.935765 4 27.519222 4 25 C 4 13.42 13.42 4 25 4 z M 46.257812 7.2265625 C 42.201041 14.050812 39.045135 21.467007 40.685547 32.976562 C 38.830623 32.857866 37.174975 31.719126 36.416016 29.988281 C 36.257016 29.623281 35.897 29.388672 35.5 29.388672 C 35.103 29.388672 34.742984 29.624281 34.583984 29.988281 C 33.781984 31.817281 31.982 33 30 33 C 28.018 33 26.219016 31.817281 25.416016 29.988281 C 25.256016 29.623281 24.897 29.388672 24.5 29.388672 C 24.103 29.388672 23.742984 29.624281 23.583984 29.988281 C 22.780984 31.817281 20.982 33 19 33 C 17.018 33 15.219016 31.817281 14.416016 29.988281 C 14.256016 29.623281 13.897 29.388672 13.5 29.388672 C 13.103 29.388672 12.742984 29.624281 12.583984 29.988281 C 11.959282 31.411171 10.728763 32.434164 9.28125 32.822266 C 11.81358 27.830066 21.70764 11.802983 46.257812 7.2265625 z M 44.087891 16.255859 C 45.315876 18.917123 46 21.883135 46 25 C 46 26.964719 45.72367 28.865017 45.216797 30.669922 C 44.602156 31.636102 43.703036 32.337322 42.667969 32.705078 C 41.719413 26.039518 42.468256 20.800894 44.087891 16.255859 z M 13.5 32.320312 C 14.811 33.987312 16.827 35 19 35 C 21.173 35 23.189 33.987313 24.5 32.320312 C 25.811 33.987312 27.826 35 30 35 C 32.174 35 34.189 33.987313 35.5 32.320312 C 36.811 33.987312 38.826 35 41 35 C 41.959282 35 42.882482 34.800632 43.732422 34.439453 C 40.268432 41.285403 33.182965 46 25 46 C 16.961845 46 9.9737778 41.45618 6.4453125 34.806641 C 6.7521357 34.876828 7.063106 34.926955 7.3789062 34.955078 C 7.4607623 34.975943 7.5431134 35 7.625 35 C 7.6669705 35 7.7068088 34.985705 7.7480469 34.980469 C 7.8326113 34.983515 7.9150534 35 8 35 C 10.173 35 12.189 33.987313 13.5 32.320312 z"></path>
</svg>