<?xml version="1.0" standalone="no"?>
<!DOCTYPE svg PUBLIC "-//W3C//DTD SVG 20010904//EN"
 "http://www.w3.org/TR/2001/REC-SVG-20010904/DTD/svg10.dtd">
<svg version="1.0" xmlns="http://www.w3.org/2000/svg"
 width="300.000000pt" height="329.000000pt" viewBox="0 0 300.000000 329.000000"
 preserveAspectRatio="xMidYMid meet">
<metadata>
Created by potrace 1.10, written by Peter Selinger 2001-2011
</metadata>
<defs>
  <linearGradient id="gradient1" x1="0%" y1="0%" x2="100%" y2="100%">
      <stop offset="0" style="stop-color:#9f2fff;stop-opacity:1"/>
      <stop offset="1" style="stop-color:#0bb1d3;stop-opacity:1"/>
    </linearGradient>
</defs>
<g fill="url(#gradient1)" transform="translate(0.000000,329.000000) scale(0.050000,-0.050000)"
 stroke="none">
<path d="M3424 6479 c-94 -38 -224 -142 -286 -229 -81 -112 -88 -112 -117 5
-59 236 -189 186 -214 -82 l-13 -133 -83 0 c-45 0 -115 -17 -155 -37 -65 -33
-77 -34 -122 -7 -170 104 -164 -129 9 -325 45 -51 79 -96 74 -99 -4 -4 -56
-32 -117 -62 -241 -121 -520 -359 -520 -443 0 -40 -10 -47 -67 -47 -66 0 -115
-36 -138 -102 -16 -44 -101 -58 -363 -58 -255 -1 -256 -1 -311 -121 -51 -113
-51 -180 -1 -279 57 -111 53 -127 -29 -112 -172 33 -231 -47 -231 -314 0 -205
-27 -248 -244 -387 l-136 -87 0 -126 c0 -157 3 -161 260 -329 251 -165 243
-156 317 -356 175 -475 203 -615 222 -1085 22 -579 -6 -717 -203 -998 -36 -52
-71 -102 -78 -111 -7 -10 -113 -43 -235 -74 -141 -36 -248 -75 -288 -107 -201
-155 -346 -291 -351 -330 -10 -65 4 -58 204 102 241 194 255 202 448 253 195
51 280 45 144 -10 -251 -103 -678 -366 -623 -385 13 -4 107 46 208 112 417
269 1059 477 2295 743 204 43 537 116 740 161 207 46 423 83 490 83 113 0 117
1 70 28 -70 39 -121 36 -392 -20 -329 -68 -991 -211 -1030 -222 -25 -8 -36 8
-45 66 -12 79 -61 164 -81 143 -7 -6 1 -55 17 -109 36 -119 56 -104 -214 -172
-124 -32 -384 -103 -577 -158 -194 -54 -359 -99 -366 -99 -38 0 45 92 173 192
195 153 318 272 441 428 117 148 131 160 166 147 89 -35 493 72 928 244 320
126 571 201 737 220 110 13 118 17 98 50 -37 59 -215 126 -215 81 0 -8 -16
-15 -35 -16 -51 -4 -92 -15 -120 -33 -15 -9 -25 -5 -25 11 0 16 -6 18 -15 6
-21 -29 -112 -77 -96 -51 21 33 -7 25 -75 -23 -34 -24 -54 -31 -44 -15 14 23
12 24 -11 6 -16 -13 -36 -24 -44 -25 -57 -7 -83 -13 -125 -32 -22 -9 -45 -25
-52 -35 -6 -9 -31 -18 -54 -20 -24 -2 -47 -15 -53 -29 -5 -14 -20 -26 -32 -26
-12 0 -16 9 -9 20 19 31 -9 24 -44 -11 -23 -23 -37 -25 -58 -7 -22 18 -28 16
-28 -11 0 -18 -8 -28 -19 -22 -10 6 -24 2 -32 -10 -7 -12 -27 -16 -44 -10 -16
6 -42 2 -57 -10 -14 -13 -37 -16 -50 -8 -16 10 -19 7 -8 -11 12 -20 5 -23 -27
-15 -24 6 -49 2 -56 -10 -8 -13 -3 -16 15 -7 15 8 11 1 -9 -15 -20 -17 -50
-25 -66 -19 -16 6 -44 -3 -63 -19 -35 -31 -192 -115 -215 -115 -7 0 33 84 88
186 94 175 183 380 183 423 0 41 -42 -27 -129 -205 -158 -323 -311 -508 -311
-375 0 14 -36 50 -80 79 -44 29 -80 47 -80 40 0 -7 -12 -3 -27 10 -15 12 -51
24 -80 26 -29 3 -53 12 -53 20 0 36 -194 16 -230 -24 -28 -31 -30 -41 -8 -49
289 -98 472 -151 528 -151 39 0 70 -9 70 -19 0 -38 -269 -325 -459 -489 -107
-93 -206 -196 -220 -228 -20 -50 -50 -69 -171 -112 -208 -74 -209 -73 -88 88
232 308 267 458 250 1045 -14 494 -58 711 -232 1161 -33 86 -60 161 -60 166 0
6 56 -30 125 -79 527 -374 1104 -450 1562 -207 128 67 171 61 195 -28 l12 -48
16 56 c8 31 25 52 37 47 24 -9 25 -21 2 -80 -12 -29 -7 -35 23 -30 23 5 42 30
50 67 l12 60 15 -54 c8 -29 10 -61 5 -70 -5 -9 2 -27 17 -41 26 -24 56 19 47
68 -8 44 5 51 30 16 20 -27 23 -49 9 -75 -24 -44 -6 -71 25 -40 14 14 47 15
95 4 203 -47 299 -10 395 154 29 49 71 102 95 118 23 17 36 30 28 30 -7 0 13
56 46 125 94 199 72 272 -86 290 -86 9 -103 21 -217 153 -185 214 -499 553
-763 823 -266 272 -256 256 -174 289 212 88 16 460 -243 460 -60 0 -121 11
-134 24 -19 19 -24 15 -24 -15 0 -61 -126 -138 -180 -109 -165 88 160 453 556
624 108 46 272 121 407 186 l94 45 11 -43 c6 -24 3 -110 -6 -193 -9 -82 -14
-152 -11 -156 16 -19 57 31 92 110 47 106 50 106 76 12 50 -178 100 -156 101
45 l2 120 70 -80 c187 -213 472 -664 466 -738 0 -12 -137 -89 -302 -170 l-301
-148 13 -197 c6 -108 18 -287 25 -397 7 -114 21 -200 32 -200 13 0 17 58 10
161 l-11 162 89 -156 c97 -171 120 -201 139 -182 12 13 -133 296 -182 355 -14
17 -31 118 -38 225 l-13 194 286 143 c157 78 296 151 308 161 29 23 -38 184
-147 354 -63 99 -126 224 -127 252 0 6 -22 34 -50 64 -27 29 -45 58 -39 63 9
10 -42 45 -110 76 -16 8 -55 37 -85 65 l-55 50 0 -72 c0 -139 -25 -151 -59
-28 -39 142 -63 145 -93 13 -34 -152 -48 -144 -48 27 0 186 -2 187 -238 73
-91 -44 -177 -80 -191 -80 -33 0 -178 156 -220 238 -38 74 -42 74 92 14 123
-56 317 -88 317 -54 0 29 -112 97 -187 114 -89 19 -25 47 109 48 81 0 138 -14
205 -49 76 -41 93 -44 93 -19 0 17 -36 46 -81 64 -95 40 -111 84 -87 230 l18
104 70 -139 c81 -161 100 -174 137 -92 51 117 319 371 354 337 5 -5 -22 -80
-60 -167 -37 -87 -65 -161 -62 -165 9 -9 420 209 499 263 l58 40 -12 -64 c-8
-36 -35 -109 -61 -164 -54 -114 -52 -122 33 -97 61 17 270 -5 317 -34 13 -8
-3 -24 -40 -40 -79 -33 -85 -73 -8 -49 126 40 177 39 254 -5 120 -68 113 -91
-32 -98 l-126 -6 135 -78 c75 -44 193 -141 269 -220 l135 -142 -85 -6 c-95 -7
-112 -36 -32 -56 32 -9 103 3 185 29 144 48 182 53 182 25 0 -39 -125 -122
-183 -122 -33 0 -55 -8 -49 -17 15 -24 233 -50 417 -50 152 0 155 -1 128 -42
-15 -22 -40 -62 -55 -87 -25 -42 -38 -45 -128 -32 -90 12 -97 10 -72 -20 15
-17 54 -32 86 -32 33 0 111 -15 173 -33 l113 -33 -80 -37 c-44 -20 -91 -36
-105 -36 -38 -1 -32 -16 63 -138 148 -191 290 -539 152 -373 -14 17 -30 26
-36 20 -6 -5 11 -34 38 -62 l48 -53 -90 15 -90 14 59 -62 c60 -63 272 -182
325 -182 63 0 -1 -39 -84 -51 -50 -7 -90 -17 -90 -21 0 -3 17 -50 37 -102 20
-53 43 -127 50 -165 l14 -70 -80 78 c-60 58 -82 71 -91 49 -17 -45 22 -285 58
-354 55 -107 20 -118 -70 -22 l-58 62 0 -117 c1 -72 16 -150 39 -202 l39 -85
-45 0 c-24 0 -65 14 -90 32 -60 42 -65 34 -42 -68 31 -136 -4 -223 -61 -154
-38 46 -55 20 -70 -110 -15 -130 -20 -136 -72 -88 -32 29 -36 24 -57 -75 -32
-156 -45 -168 -101 -93 l-47 64 -41 -128 c-47 -143 -81 -171 -99 -81 -18 90
-112 39 -219 -118 l-34 -50 -32 46 c-37 53 -60 40 -151 -85 -43 -58 -57 -68
-58 -40 0 32 -7 30 -46 -17 -36 -44 -50 -50 -70 -30 -21 20 -36 12 -80 -41
-65 -80 -108 -53 -132 86 -35 199 -190 433 -240 364 -23 -31 -28 -25 -49 54
-12 49 -31 95 -42 102 -27 16 -25 4 16 -159 40 -153 66 -180 95 -97 l20 55 55
-95 c90 -153 119 -253 116 -397 -5 -183 31 -456 82 -638 l43 -150 142 -55 c77
-29 152 -61 165 -70 38 -24 145 -564 123 -620 -18 -50 -15 -51 -148 39 -102
69 -321 143 -577 195 l-197 40 -223 -40 c-427 -77 -1062 -256 -1652 -466
l-310 -110 312 -1 c171 -1 318 6 326 14 9 8 21 15 29 16 7 0 33 12 58 25 25
14 45 18 45 10 0 -9 7 -7 15 5 19 26 163 69 234 69 30 0 48 9 41 20 -7 11 8
21 34 22 84 3 165 20 190 41 14 12 60 22 103 24 44 2 75 9 71 16 -10 17 67 36
147 37 36 0 65 9 65 20 0 29 55 25 67 -5 7 -17 10 -15 11 6 1 18 24 32 57 35
30 2 85 14 121 26 37 12 72 17 78 10 7 -6 23 -3 36 8 57 48 528 -20 570 -82 6
-9 33 -19 60 -23 28 -4 79 -22 114 -41 35 -19 78 -34 96 -34 17 0 36 -13 42
-28 6 -15 26 -23 46 -18 52 13 89 -45 101 -159 0 -8 37 -15 81 -15 90 0 87
-14 37 186 -13 53 -12 96 5 142 26 72 -62 609 -110 670 -12 15 -91 59 -176 98
-153 68 -155 70 -184 172 -70 240 -95 552 -44 552 15 0 38 14 52 30 14 17 50
30 81 30 31 0 62 9 69 20 7 11 30 20 51 20 24 0 53 29 79 80 41 80 67 97 90
60 32 -52 107 -19 159 70 53 90 91 116 91 61 0 -97 132 -62 191 50 25 49 39
57 80 47 62 -16 102 17 120 95 9 43 30 66 71 81 37 13 62 38 68 68 6 26 15 71
20 98 8 36 24 50 56 50 69 0 94 38 94 146 0 96 1 97 56 85 104 -23 141 47 86
164 -57 121 -55 132 21 134 100 2 114 49 51 178 -67 137 -68 133 16 119 98
-16 118 147 41 336 -10 25 10 38 93 60 148 40 163 177 19 178 -114 1 -226 72
-201 127 41 90 -48 343 -172 489 -62 73 -55 88 54 123 128 41 119 161 -11 161
-116 1 -126 25 -57 131 104 157 68 187 -176 145 -164 -28 -206 -10 -152 67 81
115 20 172 -149 138 -121 -23 -121 -23 -165 33 -54 69 -104 119 -193 193 -63
52 -66 60 -35 82 127 93 -213 334 -515 365 l-105 11 37 98 c78 205 12 303
-126 187 -78 -65 -316 -198 -330 -183 -7 6 8 43 32 82 79 128 20 206 -115 150z
m-1068 -1605 c26 -30 10 -60 -50 -91 -64 -34 -145 -28 -160 10 -28 74 157 145
210 81z m-467 -81 c35 -25 30 -33 -66 -126 -293 -283 36 -549 432 -350 l164
83 157 -165 c86 -91 279 -300 428 -465 149 -165 322 -349 384 -409 137 -134
137 -131 5 -157 -67 -14 -176 -63 -291 -133 -101 -61 -185 -111 -188 -111 -2
0 -6 54 -9 120 -3 71 3 120 15 120 11 0 20 -40 20 -90 0 -49 9 -90 20 -90 11
0 20 52 20 117 0 103 7 122 58 168 l57 51 13 -78 c19 -117 59 -99 48 22 -8 79
-3 106 27 133 21 18 33 37 28 42 -13 13 -111 -58 -348 -252 l-208 -169 10 -97
c5 -53 1 -97 -8 -97 -9 0 -17 29 -17 65 -1 51 -5 59 -22 35 -16 -23 -24 -24
-31 -5 -17 42 -47 6 -47 -56 0 -64 31 -80 46 -24 5 19 10 6 12 -30 2 -59 42
-98 42 -41 0 18 5 19 24 0 31 -31 436 185 571 304 113 99 565 107 565 10 0
-89 -122 -330 -225 -446 l-106 -117 -138 3 c-155 3 -167 8 -131 52 21 26 17
30 -28 30 -33 0 -52 11 -52 30 0 19 19 30 51 30 32 0 46 8 38 22 -10 16 -3 16
27 0 144 -77 353 108 251 221 -18 21 -52 36 -75 36 -42 -2 -42 -2 2 -23 70
-34 70 -72 -2 -151 l-67 -73 -164 74 c-172 77 -201 86 -201 56 0 -10 25 -24
55 -32 36 -10 45 -18 25 -25 -16 -5 -45 -28 -62 -51 -20 -24 -45 -35 -65 -28
-45 17 -19 74 33 74 33 0 37 5 17 25 -34 34 -93 -7 -93 -66 -1 -61 -34 -69
-79 -20 -35 39 -36 39 -132 -9 -155 -79 -373 -131 -589 -140 l-200 -9 208 30
c301 44 402 91 402 190 0 106 -36 119 -44 17 -6 -80 -10 -85 -96 -111 -477
-144 -922 -19 -1689 477 -98 63 -185 118 -192 121 -8 3 -21 52 -28 109 l-14
103 76 40 c107 54 242 165 288 235 l39 58 0 -67 c0 -50 -10 -69 -40 -77 -69
-18 16 -126 98 -126 19 0 49 -27 68 -59 53 -89 152 -181 196 -181 21 0 38 -7
38 -16 0 -53 149 -187 196 -178 42 8 69 -10 151 -99 215 -236 485 -285 681
-124 82 68 93 117 27 117 -219 3 -463 276 -615 690 -130 354 -177 406 -429
479 -131 38 -149 48 -122 70 39 33 40 102 1 194 -38 92 -38 173 1 248 l30 59
265 2 c145 2 291 10 324 18 94 24 139 22 179 -7z m226 -184 c169 -70 194 -161
63 -220 -215 -97 -387 1 -305 173 43 89 110 102 242 47z m-926 -435 c237 -101
293 -161 379 -406 137 -387 308 -620 534 -727 l123 -59 -68 -41 c-207 -126
-556 24 -707 305 -49 93 -64 94 -54 4 12 -103 -29 -76 -136 90 -95 147 -120
167 -120 98 0 -35 -5 -39 -29 -19 -85 71 -269 448 -229 472 35 22 18 52 -22
39 -37 -12 -40 -4 -40 107 0 255 49 273 369 137z m1671 -1095 c0 -34 9 -78 19
-97 17 -31 -120 -162 -170 -162 -34 0 -5 220 31 240 36 19 40 15 40 -48 0 -38
8 -75 18 -81 29 -17 43 46 29 131 -8 52 -5 78 10 78 13 0 23 -28 23 -61z m283
-342 c-24 -9 -43 -25 -43 -36 0 -12 -18 -21 -40 -21 -27 0 -40 13 -40 42 0 35
9 41 50 33 28 -5 50 -2 50 7 0 9 15 11 33 4 29 -11 27 -15 -10 -29z"/>
<path d="M1200 4402 c0 -9 13 -28 28 -41 32 -26 64 4 42 39 -15 25 -70 27 -70
2z"/>
<path d="M3280 3385 c0 -8 19 -46 43 -85 51 -83 74 -50 28 39 -29 55 -71 83
-71 46z"/>
<path d="M3425 3107 c-53 -12 -125 -98 -125 -150 0 -31 -16 -37 -100 -37 -55
0 -100 -9 -100 -20 0 -11 20 -20 45 -20 25 0 78 -6 118 -13 74 -12 74 -12 91
75 21 108 98 150 164 90 39 -35 94 -28 71 9 -6 11 2 19 19 19 25 0 27 -10 12
-50 -12 -31 -12 -80 -2 -125 l18 -75 2 74 c1 40 11 98 23 128 31 83 -81 128
-236 95z"/>
<path d="M3451 5988 c-74 -27 -200 -125 -183 -142 4 -5 51 21 104 57 78 53
121 67 222 74 160 10 158 -12 -5 -85 -144 -64 -154 -93 -42 -116 92 -19 184
-66 263 -132 58 -49 58 -50 10 -37 -27 7 -90 18 -140 23 -90 10 -90 10 30 -29
66 -22 144 -53 173 -70 65 -38 77 -39 77 -5 0 56 -145 194 -263 251 -132 63
-131 67 29 123 128 45 138 71 40 99 -103 28 -219 24 -315 -11z"/>
<path d="M2972 5500 c-7 -55 -19 -114 -25 -130 -20 -52 25 -33 50 21 27 59 31
209 6 209 -10 0 -24 -45 -31 -100z"/>
<path d="M4010 5280 c-33 -8 -117 -16 -186 -18 -143 -2 -151 -30 -14 -49 103
-14 267 15 323 58 44 33 -12 37 -123 9z"/>
<path d="M4160 5098 c-82 -60 -92 -62 -218 -49 -106 10 -127 8 -107 -12 64
-64 275 -46 358 29 100 92 78 112 -33 32z"/>
<path d="M2250 5125 c-51 -12 -150 -82 -150 -105 0 -10 38 -1 85 21 47 21 119
38 160 39 83 0 101 28 30 47 -49 14 -65 13 -125 -2z"/>
<path d="M2793 5041 c-145 -81 -241 -160 -163 -133 48 17 221 120 290 173 81
62 20 43 -127 -40z"/>
<path d="M3510 4894 c-392 -157 -388 -149 -329 -680 36 -329 72 -464 49 -184
-27 314 -19 588 19 648 36 58 199 142 278 142 78 0 213 77 213 121 0 32 -63
19 -230 -47z"/>
<path d="M4020 4885 c0 -9 47 -32 105 -53 58 -20 119 -42 135 -48 51 -19 -18
54 -83 87 -59 31 -157 39 -157 14z"/>
<path d="M4127 4734 c21 -13 75 -48 120 -78 86 -56 106 -58 86 -7 -17 44 -134
111 -193 110 -46 -1 -47 -3 -13 -25z"/>
<path d="M2680 4726 c0 -11 36 -30 79 -43 103 -31 133 -63 148 -161 17 -102
53 -127 53 -36 0 125 -22 188 -73 212 -71 32 -207 51 -207 28z"/>
<path d="M3664 4538 c4 -15 53 -58 107 -96 l99 -67 -120 10 c-66 6 -136 18
-155 25 -60 24 -39 -17 65 -128 99 -105 136 -119 60 -22 -53 67 -50 75 20 64
93 -13 280 15 280 43 0 14 -43 36 -95 50 -52 14 -121 46 -155 71 -95 71 -116
81 -106 50z"/>
<path d="M4900 4361 c0 -42 50 -78 75 -53 17 17 -19 77 -51 87 -14 5 -24 -10
-24 -34z"/>
<path d="M3995 4229 c-16 -16 25 -109 48 -109 9 0 17 -11 18 -25 1 -62 214
-215 299 -215 17 0 42 -18 55 -40 27 -42 133 -53 263 -27 84 16 79 47 -9 47
-132 0 -586 177 -560 218 6 10 44 24 86 32 120 22 119 35 -6 71 -66 18 -133
39 -150 47 -17 7 -37 8 -44 1z"/>
<path d="M3520 4159 c0 -34 95 -210 128 -238 47 -38 40 2 -22 128 -49 100
-106 159 -106 110z"/>
<path d="M4529 4098 c-18 -28 34 -63 58 -39 19 19 1 61 -27 61 -10 0 -24 -10
-31 -22z"/>
<path d="M4960 4049 c0 -32 45 -89 71 -89 35 0 38 43 5 76 -25 25 -76 33 -76
13z"/>
<path d="M4543 4007 c4 -20 23 -40 42 -43 49 -10 44 30 -7 57 -36 19 -41 17
-35 -14z"/>
<path d="M4059 3811 c34 -40 174 -105 277 -128 133 -30 94 10 -85 88 -174 76
-232 88 -192 40z"/>
<path d="M4513 3710 c7 -18 70 -90 140 -160 71 -69 126 -134 124 -143 -8 -33
71 -167 99 -167 17 0 24 -12 17 -30 -7 -16 -3 -30 8 -30 10 0 19 -10 19 -21 0
-12 -11 -16 -25 -9 -14 7 -7 -2 15 -20 22 -18 38 -42 35 -53 -4 -11 2 -15 11
-10 9 6 43 -3 75 -20 33 -17 90 -33 128 -36 87 -8 49 26 -119 105 l-110 52 80
17 c97 20 139 55 69 56 -123 1 -300 167 -196 183 35 5 6 34 -145 148 -227 171
-242 181 -225 138z"/>
<path d="M4260 3580 c0 -27 136 -92 223 -108 102 -18 117 21 19 47 -44 12
-116 35 -161 51 -44 15 -81 20 -81 10z"/>
<path d="M3782 3437 c3 -93 25 -163 54 -172 26 -9 30 89 6 174 -21 76 -62 75
-60 -2z"/>
<path d="M4247 3465 c88 -265 130 -327 107 -158 l-12 87 102 -10 c73 -7 98 -3
88 13 -8 13 -34 23 -58 23 -24 1 -83 19 -131 40 -107 49 -111 49 -96 5z"/>
<path d="M4080 3278 c0 -40 87 -158 116 -158 19 0 13 24 -20 84 -46 83 -96
122 -96 74z"/>
<path d="M3980 3269 c0 -27 107 -209 123 -209 29 0 18 46 -28 128 -40 71 -95
118 -95 81z"/>
<path d="M3940 2930 c0 -64 59 -210 84 -210 26 0 3 129 -36 204 -36 69 -48 71
-48 6z"/>
<path d="M4540 2914 c0 -42 73 -127 93 -108 19 19 -32 117 -68 129 -14 5 -25
-5 -25 -21z"/>
<path d="M4112 2864 c-17 -29 39 -164 69 -164 13 0 18 14 11 32 -7 17 -12 42
-12 56 0 42 -52 101 -68 76z"/>
<path d="M4200 2771 c0 -26 49 -111 63 -111 23 0 21 35 -4 81 -18 34 -59 55
-59 30z"/>
<path d="M3810 2658 c-19 -86 21 -124 50 -48 23 60 14 110 -18 110 -10 0 -25
-28 -32 -62z"/>
<path d="M4320 2703 c0 -26 80 -123 101 -123 35 0 19 53 -27 97 -49 45 -74 54
-74 26z"/>
<path d="M2843 2475 c-112 -353 -128 -595 -41 -595 20 0 69 -18 108 -40 127
-71 212 -21 207 123 l-2 87 -16 -70 c-10 -44 -15 27 -13 194 2 295 -9 336 -53
193 l-30 -97 -2 94 c-2 148 -52 129 -88 -34 -4 -22 -9 11 -11 74 -2 132 -30
165 -59 71z m7 -470 c-8 -55 -23 -85 -41 -85 -38 0 -37 50 6 280 l35 190 6
-150 c4 -82 1 -188 -6 -235z m106 96 c-8 -182 -26 -239 -61 -204 -14 14 -9 88
16 237 42 239 58 227 45 -33z m85 -208 c-11 -29 -29 -53 -41 -53 -28 0 -25 59
15 300 l35 210 6 -202 c3 -111 -4 -226 -15 -255z"/>
<path d="M4033 2367 c-16 -17 -17 -93 -1 -135 21 -54 48 -14 48 69 0 74 -16
96 -47 66z"/>
<path d="M2312 2277 c-17 -24 -25 -52 -19 -62 14 -23 87 42 87 78 0 41 -34 32
-68 -16z"/>
<path d="M2333 2187 c-20 -21 -16 -87 6 -87 18 0 61 63 61 89 0 15 -50 14 -67
-2z"/>
</g>
</svg>
